<?xml version="1.0" encoding="utf-8"?>
<!-- Generator: Adobe Illustrator 21.1.0, SVG Export Plug-In . SVG Version: 6.00 Build 0)  -->
<!DOCTYPE svg PUBLIC "-//W3C//DTD SVG 1.1//EN" "http://www.w3.org/Graphics/SVG/1.1/DTD/svg11.dtd">
<svg version="1.1" id="Layer_1" xmlns="http://www.w3.org/2000/svg" xmlns:xlink="http://www.w3.org/1999/xlink" x="0px" y="0px"
	 viewBox="0 0 280 150.9" style="enable-background:new 0 0 280 150.9;" xml:space="preserve">
<style type="text/css">
	.st0{fill:#757472;}
	.st1{fill:#FFFFFF;}
	.st2{fill:#E8E8E8;}
</style>
<title>Install_Icon</title>
<path class="st0" d="M179,104.4c-0.6,0-1-0.4-1-1c0-22.9,0-31.4,6.9-42.2c0.3-0.5,0.9-0.6,1.4-0.3s0.6,0.9,0.3,1.4
	C180,72.6,180,81,180,103.4C180,104,179.6,104.4,179,104.4z"/>
<path class="st0" d="M199.3,104.4c-0.6,0-1-0.4-1-1c0-22.4,0-30.9-6.6-41.1c-0.3-0.5-0.2-1.1,0.3-1.4s1.1-0.2,1.4,0.3l0,0
	c6.9,10.7,6.9,19.3,6.9,42.1C200.3,104,199.8,104.5,199.3,104.4C199.3,104.5,199.3,104.5,199.3,104.4z"/>
<path class="st1" d="M132.6,6.7c-2.4,2.9-6.7,3.3-9.6,0.9c-0.5-0.4-1-0.9-1.3-1.5v17.3c2.1-3.1,6.3-3.9,9.4-1.8
	c0.5,0.4,1,0.8,1.5,1.3"/>
<path class="st0" d="M121.7,24.5c-0.6,0-1-0.4-1-1V6.1c0-0.6,0.4-1,1-1c0.3,0,0.6,0.2,0.8,0.4c1.8,2.7,5.4,3.4,8.1,1.6
	c0.5-0.3,0.9-0.7,1.2-1.1c0.4-0.4,1-0.5,1.4-0.1c0.4,0.4,0.5,1,0.1,1.4l0,0c-2.6,3.2-7.3,3.8-10.7,1.3V21c3.3-2.5,8-1.9,10.7,1.3
	c0.4,0.4,0.3,1.1-0.1,1.4c-0.4,0.4-1.1,0.3-1.4-0.1l0,0c-2-2.5-5.7-2.8-8.2-0.8c-0.4,0.4-0.8,0.8-1.1,1.2
	C122.3,24.3,122,24.5,121.7,24.5z"/>
<path class="st0" d="M142,108.6h-5c-2.9,0-5.2-2.3-5.2-5.2V21.9c0-0.3,0.2-0.5,0.5-0.5s0.5,0.2,0.5,0.5v81.5c0,2.3,1.9,4.2,4.2,4.2
	h5c2.3,0,4.2-1.9,4.2-4.2V21.9c0-0.3,0.2-0.5,0.5-0.5s0.5,0.2,0.5,0.5v81.5C147.2,106.3,144.9,108.6,142,108.6z"/>
<path class="st1" d="M114.4,11.2c0-2.8,2.3-5.1,5.1-5.1h3.3c0.9,0,1.7,0.8,1.7,1.7l0,0v14c0,0.9-0.8,1.7-1.7,1.7l0,0h-3.3
	c-2.8,0-5.1-2.3-5.1-5.1V11.2z"/>
<path class="st0" d="M122.8,24.6h-3.3c-3.4,0-6.1-2.7-6.1-6.1v-7.2c0-3.4,2.8-6.1,6.1-6.1h3.3c1.5,0,2.7,1.2,2.7,2.7v14
	C125.5,23.4,124.3,24.6,122.8,24.6z M119.5,7.1c-2.3,0-4.1,1.9-4.1,4.1c0,0,0,0,0,0v7.3c0,2.3,1.9,4.1,4.1,4.1h3.3
	c0.4,0,0.7-0.3,0.7-0.7l0,0V7.8c0-0.4-0.3-0.7-0.7-0.7l0,0H119.5z"/>
<path class="st1" d="M132.2,23.6V7.8c0-0.9,0.8-1.7,1.7-1.7l0,0h16.7c7.8,0,14.2,5.4,15,12.3c-4.7-4.3-12-4-16.3,0.6
	c-1.2,1.3-2.1,2.9-2.6,4.6L132.2,23.6"/>
<path class="st0" d="M132.2,24.6c-0.6,0-1-0.4-1-1V7.8c0-1.5,1.2-2.7,2.7-2.7h16.6c8.3,0,15.2,5.7,16.1,13.2c0.1,0.5-0.3,1-0.9,1.1
	c-0.3,0-0.6-0.1-0.8-0.3c-1.9-1.8-4.5-2.8-7.1-2.8c-4.7,0-8.8,3.1-10.1,7.6c-0.1,0.4-0.5,0.7-1,0.7L132.2,24.6z M150.6,7h-16.7
	c-0.4,0-0.7,0.3-0.7,0.7l0,0v14.8H146c1.8-5,6.5-8.2,11.8-8.3c2.2,0,4.3,0.6,6.2,1.7C162.2,10.7,156.9,7,150.6,7L150.6,7z"/>
<path class="st1" d="M96.4,87.7V50.3c6.8-3.2,9.7-11.3,6.4-18.1c-1.4-2.9-3.7-5.2-6.7-6.6V38H84.9V25.6c-6.8,3.1-9.9,11.1-6.8,18
	c1.4,3,3.8,5.4,6.8,6.8v37.1c-6.8,3.1-9.9,11.1-6.8,18c1.4,3,3.8,5.4,6.8,6.8V99.9h11.2v12.4c6.8-3.1,9.9-11.1,6.8-18
	C101.6,91.4,99.3,89,96.4,87.7z"/>
<path class="st0" d="M96.1,113.3c-0.6,0-1-0.4-1-1v-11.4h-9.2v11.4c0,0.6-0.4,1-1,1c-0.1,0-0.3,0-0.4-0.1c-7.3-3.3-10.6-12-7.3-19.3
	c1.4-3,3.7-5.5,6.7-7V51.1c-7.2-3.6-10.1-12.4-6.4-19.6c1.5-3,4-5.3,7-6.7c0.5-0.2,1.1,0,1.3,0.5c0.1,0.1,0.1,0.3,0.1,0.4V37h9.2
	V25.6c0-0.6,0.4-1,1-1c0.1,0,0.3,0,0.4,0.1c7.3,3.3,10.6,12,7.3,19.3c-1.3,2.9-3.6,5.4-6.5,6.9V87c7.1,3.8,9.8,12.6,6.1,19.7
	c-1.5,2.9-3.9,5.1-6.9,6.5C96.4,113.3,96.3,113.3,96.1,113.3z M84.9,98.9h11.2c0.6,0,1,0.4,1,1v10.7c5.9-3.6,7.8-11.4,4.1-17.3
	c-1.3-2.1-3.1-3.7-5.3-4.8c-0.3-0.2-0.6-0.5-0.6-0.9V50.3c0-0.4,0.2-0.7,0.6-0.9c6.3-3,9-10.5,6-16.8c-1-2.2-2.7-4.1-4.8-5.3V38
	c0,0.6-0.4,1-1,1H84.9c-0.6,0-1-0.4-1-1V27.3C78,31,76.1,38.7,79.8,44.6c1.3,2.1,3.3,3.8,5.6,4.9c0.4,0.2,0.6,0.5,0.6,0.9v37.1
	c0,0.4-0.2,0.7-0.6,0.9c-6.3,2.9-9.2,10.3-6.3,16.6c1,2.3,2.7,4.2,4.9,5.6V99.9C83.9,99.4,84.4,98.9,84.9,98.9z"/>
<rect x="62.3" y="78.2" class="st1" width="155.3" height="66.6"/>
<path class="st0" d="M217.6,145.8H62.3c-0.6,0-1-0.4-1-1V78.2c0-0.6,0.4-1,1-1h155.3c0.6,0,1,0.4,1,1v66.6
	C218.6,145.4,218.2,145.8,217.6,145.8z M63.4,143.8h153.3V79.2H63.3L63.4,143.8z"/>
<path class="st0" d="M217.6,99.5H62.3c-0.6,0-1-0.4-1-1s0.4-1,1-1h155.3c0.6,0,1,0.4,1,1S218.2,99.5,217.6,99.5z"/>
<path class="st1" d="M86.8,91.2h14.4l0,0v22.2c0,2.2-1.8,4-4,4h-6.4c-2.2,0-4-1.8-4-4V91.2L86.8,91.2z"/>
<path class="st0" d="M97.2,118h-6.4c-2.5,0-4.5-2-4.5-4.5V91.2c0-0.3,0.2-0.5,0.5-0.5h14.4c0.3,0,0.5,0.2,0.5,0.5v22.2
	C101.7,115.9,99.7,118,97.2,118C97.2,118,97.2,118,97.2,118z M87.4,91.7v21.7c0,1.9,1.6,3.5,3.5,3.5h6.4c1.9,0,3.5-1.6,3.5-3.5V91.7
	L87.4,91.7z"/>
<path class="st1" d="M178.8,91.2h14.4l0,0v22.2c0,2.2-1.8,4-4,4h-6.4c-2.2,0-4-1.8-4-4V91.2L178.8,91.2z"/>
<path class="st0" d="M189.1,118h-6.4c-2.5,0-4.5-2-4.5-4.5V91.2c0-0.3,0.2-0.5,0.5-0.5h14.4c0.3,0,0.5,0.2,0.5,0.5v22.2
	C193.7,115.9,191.6,118,189.1,118C189.2,118,189.2,118,189.1,118z M179.3,91.7v21.7c0,1.9,1.6,3.5,3.5,3.5h6.4
	c1.9,0,3.5-1.6,3.5-3.5V91.7L179.3,91.7z"/>
<path class="st1" d="M189.1,62.4L189.1,62.4c-5.5,0-10-4.5-10-10V40.6l6.1-14h7.8l6.1,14v11.8C199.1,57.9,194.6,62.3,189.1,62.4z"/>
<path class="st0" d="M189.1,63.4c-6.1,0-11-4.9-11-11V40.6c0-0.1,0-0.3,0.1-0.4l6.1-14c0.2-0.4,0.5-0.6,0.9-0.6h7.8
	c0.4,0,0.8,0.2,0.9,0.6l6.1,14c0.1,0.1,0.1,0.3,0.1,0.4v11.8C200.1,58.4,195.2,63.3,189.1,63.4z M180.1,40.8v11.6c0,5,4,9,9,9
	s9-4,9-9V40.8l-5.8-13.2h-6.5L180.1,40.8z"/>
<circle class="st2" cx="189.1" cy="49.6" r="3.7"/>
<path class="st0" d="M189.1,53.8c-2.3,0-4.2-1.9-4.2-4.2s1.9-4.2,4.2-4.2s4.2,1.9,4.2,4.2c0,0,0,0,0,0
	C193.3,52,191.5,53.8,189.1,53.8z M189.1,46.4c-1.8,0-3.2,1.4-3.2,3.2c0,1.8,1.4,3.2,3.2,3.2c1.8,0,3.2-1.4,3.2-3.2v0
	C192.3,47.9,190.9,46.4,189.1,46.4z"/>
<path class="st0" d="M189.1,46.4c-0.3,0-0.5-0.2-0.5-0.5V26.5c0-0.3,0.2-0.5,0.5-0.5s0.5,0.2,0.5,0.5v19.4
	C189.6,46.2,189.4,46.4,189.1,46.4z"/>
</svg>
