<?xml version="1.0" encoding="utf-8"?>
<!-- Generator: Adobe Illustrator 21.1.0, SVG Export Plug-In . SVG Version: 6.00 Build 0)  -->
<!DOCTYPE svg PUBLIC "-//W3C//DTD SVG 1.1//EN" "http://www.w3.org/Graphics/SVG/1.1/DTD/svg11.dtd">
<svg version="1.1" id="Layer_1" xmlns="http://www.w3.org/2000/svg" xmlns:xlink="http://www.w3.org/1999/xlink" x="0px" y="0px"
	 viewBox="0 0 280 150.9" style="enable-background:new 0 0 280 150.9;" xml:space="preserve">
<style type="text/css">
	.st0{fill:#FFFFFF;}
	.st1{fill:#757472;}
	.st2{fill:#23201B;}
</style>
<title>schedule-icon</title>
<g>
	<path class="st0" d="M203.6,149c-4.4,3.2-10.6,2.3-13.8-2.1c0,0,0,0,0,0c-13.5-18.6-18.4-42.1-13.3-64.5c1.2-5.3,6.5-8.7,11.8-7.5
		c5.3,1.2,8.7,6.5,7.5,11.8l0,0c-3.8,16.9-0.2,34.5,10,48.5C209,139.6,208,145.7,203.6,149z"/>
	<path class="st1" d="M197.8,151.9c-3.4,0-6.7-1.5-8.8-4.5c-13.7-18.8-18.6-42.6-13.5-65.3c1.3-5.8,7.2-9.5,13-8.2
		c2.8,0.6,5.2,2.3,6.8,4.8c1.6,2.5,2.1,5.4,1.4,8.2c-3.8,16.6-0.2,34,9.8,47.7c3.5,4.8,2.5,11.6-2.4,15.2c0,0,0,0,0,0
		C202.3,151.2,200,151.9,197.8,151.9z M186.1,75.6c-4.1,0-7.7,2.8-8.7,6.9c-5,22.1-0.2,45.3,13.2,63.7c2.9,4,8.5,4.8,12.4,1.9l0,0
		c3.9-2.9,4.8-8.4,1.9-12.4c-10.3-14.2-14.1-32.2-10.2-49.3c0.5-2.3,0.1-4.7-1.2-6.7c-1.3-2-3.2-3.4-5.5-3.9
		C187.4,75.7,186.8,75.6,186.1,75.6z M203.6,149L203.6,149L203.6,149z"/>
</g>
<g>
	<path class="st0" d="M257.3,109.8c4.4-3.2,5.4-9.4,2.2-13.8c0,0,0,0,0,0c-13.6-18.6-34.5-30.4-57.4-32.4c-5.4-0.5-10.2,3.5-10.7,9
		s3.5,10.2,9,10.7c17.2,1.5,32.9,10.4,43.1,24.3C246.7,112,252.9,113,257.3,109.8C257.3,109.8,257.3,109.8,257.3,109.8z"/>
	<path class="st1" d="M251.5,112.7c-3.4,0-6.7-1.6-8.8-4.5c-10-13.7-25.5-22.4-42.4-23.9c-6-0.5-10.4-5.8-9.9-11.8
		c0.5-6,5.8-10.4,11.8-9.9c23.2,2,44.3,14,58.1,32.8c0,0,0,0,0,0c1.7,2.4,2.4,5.2,1.9,8.1c-0.5,2.9-2,5.4-4.3,7.1c0,0,0,0,0,0
		C256,112,253.7,112.7,251.5,112.7z M201.3,64.6c-4.5,0-8.4,3.5-8.8,8.1c-0.4,4.9,3.2,9.2,8.1,9.6C218,83.8,234,92.8,244.3,107
		c2.9,4,8.4,4.8,12.4,2c0,0,0,0,0,0c1.9-1.4,3.2-3.4,3.5-5.8c0.4-2.3-0.2-4.7-1.6-6.6c0,0,0,0,0,0c-13.4-18.3-34-30-56.6-32
		C201.8,64.6,201.5,64.6,201.3,64.6z M257.3,109.8L257.3,109.8L257.3,109.8z"/>
</g>
<g>
	<path class="st2" d="M203.8,64.2c-3.7,5.5-6.3,11.6-7.7,18"/>
	<path class="st1" d="M196.5,82.3l-1-0.2c1.5-6.5,4.1-12.6,7.8-18.2l0.8,0.6C200.6,69.9,198,75.9,196.5,82.3z"/>
</g>
<g>
	<path class="st0" d="M203.9,64.3L156,19.2l-7.8,5.7l28.3,59.3c6.3-1.8,13-2.4,19.6-1.9"/>
	<path class="st1" d="M176.5,84.6c-0.2,0-0.4-0.1-0.5-0.3L147.8,25c-0.1-0.2,0-0.5,0.2-0.6l7.8-5.6c0.2-0.1,0.5-0.1,0.6,0l47.9,45.1
		c0.2,0.2,0.2,0.5,0,0.7c-0.2,0.2-0.5,0.2-0.7,0L156,19.8l-7.1,5.2l27.9,58.5c6.3-1.7,12.8-2.3,19.3-1.8c0.3,0,0.5,0.3,0.5,0.5
		c0,0.3-0.3,0.5-0.5,0.5c-6.5-0.6-13.1,0-19.4,1.8C176.6,84.6,176.6,84.6,176.5,84.6z"/>
</g>
<g>
	<path class="st0" d="M156,19.1l47.8,45c-3.7,5.5-6.3,11.6-7.7,18"/>
	<path class="st1" d="M196.1,82.6c0,0-0.1,0-0.1,0c-0.3-0.1-0.4-0.3-0.4-0.6c1.4-6.4,4-12.4,7.6-17.8l-47.5-44.7
		c-0.2-0.2-0.2-0.5,0-0.7s0.5-0.2,0.7,0l47.8,45c0.2,0.2,0.2,0.4,0.1,0.6c-3.6,5.4-6.2,11.4-7.7,17.8
		C196.5,82.5,196.3,82.6,196.1,82.6z"/>
</g>
<g>
	<path class="st1" d="M185.2,74.2c-0.4,0-0.7,0-1.1-0.1c-1.8-0.3-3.4-1.3-4.5-2.7c-1.1-1.5-1.5-3.3-1.2-5.1s1.3-3.4,2.7-4.5l0,0
		c1.5-1.1,3.3-1.5,5.1-1.2c1.8,0.3,3.4,1.3,4.5,2.7c2.2,3.1,1.6,7.4-1.5,9.6C188.1,73.7,186.7,74.2,185.2,74.2z M181.7,62.6
		c-1.3,0.9-2.1,2.3-2.3,3.8c-0.2,1.6,0.1,3.1,1.1,4.4c1.9,2.6,5.6,3.2,8.2,1.3c2.6-1.9,3.2-5.6,1.3-8.2
		C188,61.2,184.4,60.7,181.7,62.6L181.7,62.6z"/>
</g>
<g>
	<path class="st1" d="M175,57.1c-0.2,0-0.4,0-0.6,0c-1-0.2-1.8-0.7-2.4-1.5c-0.6-0.8-0.8-1.8-0.7-2.8c0.2-1,0.7-1.8,1.5-2.4
		c1.7-1.2,4-0.8,5.2,0.8c0.6,0.8,0.8,1.8,0.7,2.8s-0.7,1.8-1.5,2.4C176.6,56.8,175.8,57.1,175,57.1z M175,50.7
		c-0.6,0-1.1,0.2-1.6,0.5l0,0c-0.6,0.4-1,1.1-1.1,1.8c-0.1,0.7,0.1,1.4,0.5,2c0.4,0.6,1.1,1,1.8,1.1c0.7,0.1,1.4-0.1,2-0.5
		c1.2-0.9,1.5-2.6,0.6-3.8C176.7,51.1,175.9,50.7,175,50.7z M173.1,50.8L173.1,50.8L173.1,50.8z"/>
</g>
<g>
	<path class="st1" d="M173.1,51.3c-0.2,0-0.3-0.1-0.4-0.2l-21-28.8c-0.2-0.2-0.1-0.5,0.1-0.7c0.2-0.2,0.5-0.1,0.7,0.1l21,28.8
		c0.2,0.2,0.1,0.5-0.1,0.7C173.3,51.2,173.2,51.3,173.1,51.3z"/>
</g>
<g>
	<path class="st0" d="M145.1,118.8l0.8,4l9.4,0.1c4.6,0,7.4-3.6,6.2-8.1l-2-11.5c-1.4-4.6-5.6-7.9-10.5-8.1l-47.2-0.1v27.5l21.2,0.1
		"/>
	<path class="st1" d="M155.3,123.4l-9.4,0c-0.2,0-0.4-0.2-0.5-0.4l-0.8-4c-0.1-0.3,0.1-0.5,0.4-0.6c0.3-0.1,0.5,0.1,0.6,0.4l0.8,3.6
		l8.9,0c2.1,0,3.8-0.8,4.9-2.2c1.1-1.4,1.4-3.3,0.8-5.3l-2-11.6c-1.4-4.4-5.4-7.5-10-7.6l-46.7-0.1v26.5l20.7,0.1
		c0.3,0,0.5,0.2,0.5,0.5s-0.2,0.5-0.5,0.5c0,0,0,0,0,0l-21.2-0.1c-0.3,0-0.5-0.2-0.5-0.5V95.1c0-0.1,0.1-0.3,0.1-0.4
		c0.1-0.1,0.2-0.1,0.4-0.1c0,0,0,0,0,0l47.2,0.1c5.1,0.2,9.5,3.6,11,8.4l2,11.6c0.6,2.2,0.2,4.4-1,6.1
		C159.7,122.5,157.7,123.4,155.3,123.4z"/>
</g>
<g>
	<path class="st1" d="M97.5,38.8c-11,0-19.9-8.9-19.9-19.9S86.6-1,97.5-1s19.9,8.9,19.9,19.9S108.5,38.8,97.5,38.8z M97.5,1
		c-9.9,0-17.9,8-17.9,17.9c0,9.9,8,17.9,17.9,17.9s17.9-8,17.9-17.9C115.4,9,107.4,1,97.5,1z"/>
</g>
<g>
	<path class="st1" d="M102.5,24.3c-0.1,0-0.3,0-0.4-0.1l-4.9-4.9C97.1,19.1,97,19,97,18.9V8.7c0-0.3,0.2-0.5,0.5-0.5S98,8.4,98,8.7
		v10l4.8,4.8c0.2,0.2,0.2,0.5,0,0.7C102.7,24.3,102.6,24.3,102.5,24.3z"/>
</g>
<g>
	<circle class="st0" cx="134.5" cy="122.9" r="11.5"/>
	<path class="st1" d="M134.5,135.4c-6.9,0-12.5-5.6-12.5-12.5c0-6.9,5.6-12.5,12.5-12.5S147,116,147,122.9
		C147,129.8,141.4,135.4,134.5,135.4z M134.5,112.4c-5.8,0-10.5,4.7-10.5,10.5c0,5.8,4.7,10.5,10.5,10.5s10.5-4.7,10.5-10.5
		C145,117.1,140.3,112.4,134.5,112.4z"/>
</g>
<g>
	<path class="st0" d="M101.4,73.4h-27c-1.3,0.1-2.6,0.7-3.4,1.8L58.6,93.9c-0.3,0.5-0.6,0.9-1,1.3c0,0-0.1,0,0,0.1
		c0,0,0,0.1-0.1,0.1H40.6c-1,0-2,0.2-3,0.5c-0.1,0-0.2,0.1-0.3,0.2l-7.8,6c-0.1,0.1-0.2,0.1-0.2,0.2c-0.5,0.8-0.9,1.8-1.1,2.8
		l-1.4,8.3c-0.1,1-0.1,2,0,2.9c0,0.2,0.1,0.3,0.2,0.5l4.1,5.4c0.1,0.1,0.2,0.2,0.4,0.3c0.9,0.4,1.9,0.6,2.8,0.6l67.8-0.4
		c0.9,0,1.6-0.7,1.6-1.6l0.3-45C104,74.6,102.8,73.4,101.4,73.4z M93.4,91.6H74.8c-0.6,0-1-0.4-1.1-0.9c0-0.2,0-0.4,0.2-0.6l5-8.9
		c0.2-0.3,0.5-0.5,0.9-0.5h13.6c0.6,0,1,0.4,1,1v8.9C94.4,91.1,94,91.5,93.4,91.6C93.4,91.6,93.4,91.6,93.4,91.6z"/>
	<path class="st1" d="M34.3,123.5c-1.1,0-2.1-0.3-3-0.6c-0.3-0.1-0.5-0.3-0.6-0.5l-4.1-5.4c-0.2-0.2-0.3-0.4-0.3-0.7
		c-0.1-1-0.1-2.1,0-3.1l1.4-8.4c0.2-1.1,0.6-2,1.2-2.9c0.1-0.2,0.2-0.3,0.4-0.4l7.8-6c0.1-0.1,0.3-0.2,0.4-0.2
		c1-0.3,2.1-0.5,3.2-0.6h16.7c0,0,0,0,0,0c0.3-0.4,0.6-0.8,0.9-1.2l12.4-18.7c0.9-1.2,2.3-1.9,3.8-2l27,0c1.7,0,3.1,1.4,3.1,3.2
		l-0.3,45c0,1.2-1,2.1-2.1,2.1L34.3,123.5z M58,95.5c-0.1,0.2-0.2,0.3-0.4,0.3l-17,0c-1,0-1.9,0.2-2.8,0.5c0,0-0.1,0-0.1,0.1l-7.8,6
		c-0.1,0-0.1,0.1-0.1,0.1c-0.5,0.8-0.9,1.6-1,2.6l-1.4,8.3c-0.1,0.9-0.1,1.8,0,2.8c0,0.1,0,0.2,0.1,0.2l4.1,5.4
		c0.1,0.1,0.1,0.1,0.2,0.2c0.8,0.3,1.7,0.5,2.6,0.6l67.8-0.4c0.6,0,1.1-0.5,1.1-1.1l0.3-45c0-1.2-0.9-2.1-2.1-2.2h-27
		c-1.2,0.1-2.3,0.6-3,1.6L59,94.2C58.7,94.6,58.4,95.1,58,95.5z M74.7,92.1c-0.8,0-1.4-0.6-1.5-1.4c0-0.3,0.1-0.6,0.2-0.9l5-8.9
		c0.3-0.5,0.8-0.8,1.3-0.8h13.6c0.8,0,1.5,0.7,1.5,1.5v8.9c0,0.4-0.1,0.8-0.4,1.1c-0.3,0.3-0.6,0.5-1,0.5l-0.1,0L74.7,92.1
		C74.8,92.1,74.7,92.1,74.7,92.1z M93.4,91.1v0.5V91.1c0.2,0,0.3-0.1,0.4-0.2c0.1-0.1,0.1-0.2,0.1-0.4l0-8.9c0-0.3-0.2-0.5-0.5-0.5
		H79.8c-0.2,0-0.4,0.1-0.5,0.3l-5,8.9c-0.1,0.1-0.1,0.2-0.1,0.3c0,0.3,0.2,0.5,0.5,0.5L93.4,91.1z"/>
</g>
<g>
	<circle class="st0" cx="52.8" cy="123.3" r="11.5"/>
	<path class="st1" d="M52.8,135.7c-6.9,0-12.5-5.6-12.5-12.5c0-6.9,5.6-12.5,12.5-12.5c6.9,0,12.5,5.6,12.5,12.5
		C65.2,130.1,59.6,135.7,52.8,135.7z M52.8,112.8c-5.8,0-10.5,4.7-10.5,10.5c0,5.8,4.7,10.5,10.5,10.5s10.5-4.7,10.5-10.5
		C63.2,117.5,58.5,112.8,52.8,112.8z"/>
</g>
</svg>
