<?xml version="1.0" encoding="utf-8"?>
<!-- Generator: Adobe Illustrator 21.0.0, SVG Export Plug-In . SVG Version: 6.00 Build 0)  -->
<!DOCTYPE svg PUBLIC "-//W3C//DTD SVG 1.1//EN" "http://www.w3.org/Graphics/SVG/1.1/DTD/svg11.dtd">
<svg version="1.1" id="Icons_Centered" xmlns="http://www.w3.org/2000/svg" xmlns:xlink="http://www.w3.org/1999/xlink" x="0px"
	 y="0px" viewBox="0 0 124 52.1" style="enable-background:new 0 0 124 52.1;" xml:space="preserve">
<style type="text/css">
	.st0{opacity:0.1;}
	.st1{fill:#F6BE15;}
	.st2{fill:#EDB631;}
	.st3{opacity:0.2;}
</style>
<g class="st0">
	<path class="st1" d="M60.5,14.3c20.5,0,37.1,16.6,37.1,37.1h14.3C111.9,23,88.9,0,60.5,0S9.2,23,9.2,51.4h14.3
		C23.4,30.9,40.1,14.3,60.5,14.3z"/>
</g>
<g class="st0">
	<path class="st2" d="M60.5,14.3c-20.5,0-37.1,16.6-37.1,37.1h13.9c0-12.8,10.4-23.2,23.2-23.2s23.2,10.4,23.2,23.2h13.9
		C97.7,30.9,81,14.3,60.5,14.3z"/>
</g>
<g class="st3">
	<path class="st1" d="M60.5,14.3c-20.5,0-37.1,16.6-37.1,37.1h13.9c0-12.8,10.4-23.2,23.2-23.2s23.2,10.4,23.2,23.2h13.9
		C97.7,30.9,81,14.3,60.5,14.3z"/>
</g>
<g>
	<path class="st1" d="M60.5,28.2c-12.8,0-23.2,10.4-23.2,23.2h46.4C83.7,38.6,73.3,28.2,60.5,28.2z"/>
</g>
<g>
	<path class="st1" d="M123.2,52.1H0.7c-0.4,0-0.7-0.3-0.7-0.7s0.3-0.7,0.7-0.7h122.5c0.4,0,0.7,0.3,0.7,0.7S123.6,52.1,123.2,52.1z"
		/>
</g>
</svg>
