<svg xmlns="http://www.w3.org/2000/svg" viewBox="0 0 280 261.94"><defs><style>.cls-1{fill:#fff;}.cls-2{fill:#757472;}</style></defs><title>Fixtures_</title><g id="ON_WHITE_OFF" data-name="ON WHITE / OFF"><polygon class="cls-1" points="85.38 112.86 85.38 168.47 103.27 168.24 103.27 104.66 85.38 112.86"/><path class="cls-2" d="M85.38,169.47a1,1,0,0,1-1-1v-55.6A1,1,0,0,1,85,112l17.88-8.2a1,1,0,0,1,1.42.91v63.58a1,1,0,0,1-1,1l-17.88.23Zm1-56v53.95l15.88-.2v-61Z"/><line class="cls-1" x1="161.2" y1="108.95" x2="104.56" y2="134.93"/><path class="cls-2" d="M104.56,135.93a1,1,0,0,1-.42-1.91l56.63-26a1,1,0,1,1,.83,1.82l-56.63,26A1,1,0,0,1,104.56,135.93Z"/><path class="cls-1" d="M179.08,81.28l.08,53.16c-.79,2.83-4.48,5-8.92,5s-8.14-2.12-8.94-5l-.08-53.16C162.1,81.14,179.08,81.28,179.08,81.28Z"/><path class="cls-2" d="M170.21,140.44c-4.79,0-8.95-2.39-9.88-5.68a1,1,0,0,1,0-.27l-.08-53.16a1,1,0,0,1,.8-1c.92-.19,14.07-.09,18.07-.06a1,1,0,0,1,1,1l.08,53.16a1,1,0,0,1,0,.27c-.92,3.31-5.07,5.72-9.88,5.73Zm-7.91-6.1c.76,2.35,4.13,4.1,7.92,4.1h0c3.8,0,7.17-1.78,7.92-4.14l-.08-52c-5.51,0-13.27-.07-15.87,0Z"/><path class="cls-2" d="M179.16,135.48H161.3a1,1,0,0,1,0-2h17.87a1,1,0,0,1,0,2Z"/></g></svg>