<svg xmlns="http://www.w3.org/2000/svg" viewBox="0 0 280 261.94"><defs><style>.cls-1{fill:#757472;}.cls-2{fill:#fff;}</style></defs><title>Fixtures_</title><g id="ON_WHITE_OFF" data-name="ON WHITE / OFF"><path class="cls-1" d="M207.59,144.06h-16a1,1,0,0,1,0-2h15V111.83a13,13,0,0,0-12.95-12.95h-108a13,13,0,0,0-12.95,12.95v30.23H88.45a1,1,0,0,1,0,2H71.68a1,1,0,0,1-1-1V111.83A15,15,0,0,1,85.63,96.88h108a15,15,0,0,1,14.95,14.95v31.23A1,1,0,0,1,207.59,144.06Z"/><path class="cls-2" d="M111.71,152.38a13.21,13.21,0,0,1-17.69,0"/><path class="cls-1" d="M102.87,156.78a14.18,14.18,0,0,1-9.51-3.65,1,1,0,1,1,1.34-1.49,12.21,12.21,0,0,0,16.35,0,1,1,0,0,1,1.34,1.49A14.18,14.18,0,0,1,102.87,156.78Z"/><path class="cls-2" d="M105.41,129.1V112.87a1.8,1.8,0,0,0-1.79-1.79h-1.49a1.8,1.8,0,0,0-1.79,1.79V129.1"/><path class="cls-1" d="M105.41,130.1a1,1,0,0,1-1-1V112.87a.79.79,0,0,0-.79-.79h-1.49a.79.79,0,0,0-.79.79V129.1a1,1,0,0,1-2,0V112.87a2.8,2.8,0,0,1,2.79-2.79h1.49a2.8,2.8,0,0,1,2.79,2.79V129.1A1,1,0,0,1,105.41,130.1Z"/><path class="cls-2" d="M91.31,152.12h23.12a14.41,14.41,0,1,0-23.11,0"/><path class="cls-1" d="M91.31,153.12a1,1,0,0,1-.8-.4,15.41,15.41,0,1,1,24.72,0l-.09.11a1,1,0,0,1-.77.29H91.31Zm11.55-23a13.41,13.41,0,0,0-11,21h22.09a13.41,13.41,0,0,0-11-21Z"/><path class="cls-2" d="M148.85,152.38a13.21,13.21,0,0,1-17.69,0"/><path class="cls-1" d="M140,156.78a14.18,14.18,0,0,1-9.51-3.65,1,1,0,1,1,1.34-1.49,12.21,12.21,0,0,0,16.35,0,1,1,0,0,1,1.34,1.48A14.18,14.18,0,0,1,140,156.78Z"/><path class="cls-2" d="M142.54,129.1V112.87a1.8,1.8,0,0,0-1.79-1.79h-1.49a1.8,1.8,0,0,0-1.79,1.79V129.1"/><path class="cls-1" d="M142.54,130.1a1,1,0,0,1-1-1V112.87a.79.79,0,0,0-.79-.79h-1.49a.79.79,0,0,0-.79.79V129.1a1,1,0,0,1-2,0V112.87a2.8,2.8,0,0,1,2.79-2.79h1.49a2.8,2.8,0,0,1,2.79,2.79V129.1A1,1,0,0,1,142.54,130.1Z"/><path class="cls-2" d="M128.44,152.12h23.12a14.41,14.41,0,1,0-23.11,0"/><path class="cls-1" d="M128.45,153.12a1,1,0,0,1-.8-.4,15.41,15.41,0,1,1,24.72,0,1,1,0,0,1-.87.41h-23Zm11.55-23a13.43,13.43,0,0,0-13.41,13.41,13.29,13.29,0,0,0,2.37,7.61H151a13.41,13.41,0,0,0-11-21Z"/><path class="cls-2" d="M186,152.38a13.21,13.21,0,0,1-17.69,0"/><path class="cls-1" d="M177.13,156.78a14.18,14.18,0,0,1-9.51-3.65,1,1,0,0,1,1.34-1.49,12.21,12.21,0,0,0,16.35,0,1,1,0,0,1,1.34,1.49A14.18,14.18,0,0,1,177.13,156.78Z"/><path class="cls-2" d="M179.67,129.1V112.87a1.8,1.8,0,0,0-1.79-1.79h-1.49a1.8,1.8,0,0,0-1.79,1.79V129.1"/><path class="cls-1" d="M179.67,130.1a1,1,0,0,1-1-1V112.87a.79.79,0,0,0-.79-.79h-1.49a.79.79,0,0,0-.79.79V129.1a1,1,0,0,1-2,0V112.87a2.8,2.8,0,0,1,2.79-2.79h1.49a2.8,2.8,0,0,1,2.79,2.79V129.1A1,1,0,0,1,179.67,130.1Z"/><path class="cls-2" d="M165.57,152.12h23.12a14.41,14.41,0,1,0-23.11,0"/><path class="cls-1" d="M165.58,153.12a1,1,0,0,1-.8-.4,15.41,15.41,0,1,1,24.72,0l-.09.11a1,1,0,0,1-.77.29H165.58Zm11.55-23a13.41,13.41,0,0,0-11,21h22.09a13.41,13.41,0,0,0-11-21Z"/><path class="cls-1" d="M162.72,144.51h-8.31a1,1,0,1,1,0-2h8.31a1,1,0,0,1,0,2Z"/><path class="cls-1" d="M125.59,144.51h-8.31a1,1,0,1,1,0-2h8.31a1,1,0,0,1,0,2Z"/></g></svg>