<svg xmlns="http://www.w3.org/2000/svg" viewBox="0 0 280 261.94"><defs><style>.cls-1{fill:#fff;}.cls-2{fill:#757472;}</style></defs><title>Fixtures_</title><g id="ON_WHITE_OFF" data-name="ON WHITE / OFF"><path class="cls-1" d="M113.25,161.52a7.58,7.58,0,0,1-14.52,0Z"/><path class="cls-2" d="M106,167.93a8.62,8.62,0,0,1-8.22-6.13,1,1,0,0,1,1-1.29h14.52a1,1,0,0,1,1,1.28A8.62,8.62,0,0,1,106,167.93Zm-5.76-5.41a6.57,6.57,0,0,0,11.53,0Z"/><path class="cls-1" d="M147.26,161.52a7.58,7.58,0,0,1-14.52,0Z"/><path class="cls-2" d="M140,167.93a8.62,8.62,0,0,1-8.22-6.13,1,1,0,0,1,1-1.28h14.52a1,1,0,0,1,1,1.29A8.63,8.63,0,0,1,140,167.93Zm-5.76-5.41a6.57,6.57,0,0,0,11.53,0Z"/><path class="cls-1" d="M181.27,161.52a7.58,7.58,0,0,1-14.52,0Z"/><path class="cls-2" d="M174,167.93a8.63,8.63,0,0,1-8.22-6.13,1,1,0,0,1,1-1.29h14.52a1,1,0,0,1,1,1.29A8.63,8.63,0,0,1,174,167.93Zm-5.76-5.41a6.57,6.57,0,0,0,11.53,0Z"/><rect class="cls-1" x="109.48" y="114" width="61.05" height="34.01" transform="translate(271 -9) rotate(90)"/><path class="cls-2" d="M157,162.52H123a1,1,0,0,1-1-1v-61a1,1,0,0,1,1-1h34a1,1,0,0,1,1,1v61A1,1,0,0,1,157,162.52Zm-33-2h32v-59H124Z"/><rect class="cls-1" x="143.48" y="114" width="61.05" height="34.01" transform="translate(305.01 -43.01) rotate(90)"/><path class="cls-2" d="M191,162.52H157a1,1,0,0,1-1-1v-61a1,1,0,0,1,1-1h34a1,1,0,0,1,1,1v61A1,1,0,0,1,191,162.52Zm-33-2h32v-59H158Z"/><rect class="cls-1" x="75.47" y="114" width="61.05" height="34.01" transform="translate(236.99 25.01) rotate(90)"/><path class="cls-2" d="M123,162.52H89a1,1,0,0,1-1-1v-61a1,1,0,0,1,1-1h34a1,1,0,0,1,1,1v61A1,1,0,0,1,123,162.52Zm-33-2h32v-59H90Z"/><line class="cls-1" x1="114.44" y1="147.86" x2="114.44" y2="140.3"/><path class="cls-2" d="M114.44,148.86a1,1,0,0,1-1-1V140.3a1,1,0,0,1,2,0v7.56A1,1,0,0,1,114.44,148.86Z"/><line class="cls-1" x1="148.44" y1="147.86" x2="148.44" y2="140.3"/><path class="cls-2" d="M148.44,148.86a1,1,0,0,1-1-1V140.3a1,1,0,0,1,2,0v7.56A1,1,0,0,1,148.44,148.86Z"/><line class="cls-1" x1="182.45" y1="147.86" x2="182.45" y2="140.3"/><path class="cls-2" d="M182.45,148.86a1,1,0,0,1-1-1V140.3a1,1,0,0,1,2,0v7.56A1,1,0,0,1,182.45,148.86Z"/></g></svg>