<svg xmlns="http://www.w3.org/2000/svg" viewBox="0 0 281.66 261.94"><defs><style>.cls-1{fill:#fff;}.cls-2{fill:#757472;}</style></defs><title>Fixtures_</title><g id="ON_WHITE_OFF" data-name="ON WHITE / OFF"><path class="cls-1" d="M100.38,95.14H88.21v55.6h12.18a5.72,5.72,0,0,0,5.71-5.71V100.85A5.72,5.72,0,0,0,100.38,95.14Z"/><path class="cls-2" d="M100.38,151.74H88.21a1,1,0,0,1-1-1V95.14a1,1,0,0,1,1-1h12.18a6.71,6.71,0,0,1,6.71,6.71V145A6.71,6.71,0,0,1,100.38,151.74Zm-11.18-2h11.18a4.71,4.71,0,0,0,4.71-4.71V100.85a4.71,4.71,0,0,0-4.71-4.71H89.21Z"/><polygon class="cls-1" points="201.4 156.25 126.85 156.25 145.4 88.94 182.85 88.94 201.4 156.25"/><path class="cls-2" d="M201.4,157.25H126.85a1,1,0,0,1-1-1.27l18.55-67.31a1,1,0,0,1,1-.73h37.45a1,1,0,0,1,1,.73L202.37,156a1,1,0,0,1-1,1.27Zm-73.24-2h71.93l-18-65.31H146.16Z"/><path class="cls-2" d="M185.5,99.54H142.75a1,1,0,0,1,0-2H185.5a1,1,0,0,1,0,2Z"/><path class="cls-2" d="M135.11,187a30.05,30.05,0,0,1-30-30V138.11a1,1,0,0,1,2,0v18.82a28,28,0,1,0,56,0,1,1,0,0,1,2,0A30.05,30.05,0,0,1,135.11,187Z"/></g></svg>