<svg xmlns="http://www.w3.org/2000/svg" viewBox="0 0 280 261.94"><defs><style>.cls-1{fill:#fff;}.cls-2{fill:#757472;}</style></defs><title>Fixtures_</title><g id="ON_WHITE_OFF" data-name="ON WHITE / OFF"><path class="cls-1" d="M140,164.5a24.33,24.33,0,0,1-24.33,24.33h48.65A24.33,24.33,0,0,1,140,164.5"/><path class="cls-2" d="M164.33,189.82H115.67a1,1,0,0,1,0-2A23.35,23.35,0,0,0,139,164.5a1,1,0,0,1,2,0,23.35,23.35,0,0,0,23.33,23.33,1,1,0,0,1,0,2Zm-38.79-2h28.92A25.45,25.45,0,0,1,140,171.55,25.45,25.45,0,0,1,125.54,187.82Z"/><path class="cls-2" d="M140,165.5a1,1,0,0,1-1-1v-56.1a1,1,0,0,1,2,0v56.1A1,1,0,0,1,140,165.5Z"/><rect class="cls-1" x="109.85" y="73.18" width="60.29" height="27.85"/><path class="cls-2" d="M170.15,102H109.85a1,1,0,0,1-1-1V73.18a1,1,0,0,1,1-1h60.29a1,1,0,0,1,1,1V101A1,1,0,0,1,170.15,102Zm-59.29-2h58.29V74.18H110.85Z"/><rect class="cls-1" x="115.26" y="101.02" width="49.48" height="7.37"/><path class="cls-2" d="M164.74,109.39H115.26a1,1,0,0,1-1-1V101a1,1,0,0,1,1-1h49.48a1,1,0,0,1,1,1v7.37A1,1,0,0,1,164.74,109.39Zm-48.48-2h47.48V102H116.26Z"/></g></svg>