<svg xmlns="http://www.w3.org/2000/svg" viewBox="0 0 280 261.94"><defs><style>.cls-1{fill:#fff;}.cls-2{fill:#757472;}</style></defs><title>Fixtures_</title><g id="ON_WHITE_OFF" data-name="ON WHITE / OFF"><path class="cls-1" d="M192.34,119.38C187.69,136,166,148.52,140,148.52S92.31,136,87.66,119.38Z"/><path class="cls-2" d="M140,149.52c-26,0-48.45-12.56-53.3-29.88a1,1,0,0,1,1-1.27H192.34a1,1,0,0,1,1,1.27C188.45,137,166,149.52,140,149.52ZM89,120.38c5.34,15.81,26.48,27.15,51,27.15s45.64-11.34,51-27.15Z"/><polygon class="cls-1" points="84.27 113.64 195.73 113.64 192.34 119.38 87.66 119.38 84.27 113.64"/><path class="cls-2" d="M192.34,120.38H87.66a1,1,0,0,1-.86-.49l-3.39-5.73a1,1,0,0,1,.86-1.51H195.73a1,1,0,0,1,.86,1.51l-3.39,5.73A1,1,0,0,1,192.34,120.38Zm-104.11-2H191.77l2.21-3.73H86Z"/><path class="cls-2" d="M207.53,114.64H72.47a1,1,0,0,1,0-2H207.53a1,1,0,0,1,0,2Z"/></g></svg>