<svg xmlns="http://www.w3.org/2000/svg" viewBox="0 0 280 261.94"><defs><style>.cls-1{fill:#fff;}.cls-2{fill:#757472;}</style></defs><title>Fixtures_</title><g id="ON_WHITE_OFF" data-name="ON WHITE / OFF"><path class="cls-1" d="M108.09,113.65v4a4.29,4.29,0,0,0,4.28,4.28h55.26a4.29,4.29,0,0,0,4.28-4.28v-4Z"/><path class="cls-2" d="M167.63,122.89H112.37a5.28,5.28,0,0,1-5.28-5.28v-4a1,1,0,0,1,1-1h63.81a1,1,0,0,1,1,1v4A5.28,5.28,0,0,1,167.63,122.89Zm-58.54-8.24v3a3.28,3.28,0,0,0,3.28,3.28h55.26a3.28,3.28,0,0,0,3.28-3.28v-3Z"/><path class="cls-1" d="M154.82,121.89c-1.32,4.7-7.45,8.25-14.82,8.25s-13.51-3.55-14.82-8.25Z"/><path class="cls-2" d="M140,131.14c-7.69,0-14.33-3.78-15.78-9a1,1,0,0,1,1-1.27h29.64a1,1,0,0,1,1,1.27C154.33,127.37,147.69,131.14,140,131.14Zm-13.36-8.25c1.9,3.69,7.23,6.25,13.36,6.25s11.46-2.56,13.36-6.25Z"/><path class="cls-2" d="M207.53,114.64H72.47a1,1,0,0,1,0-2H207.53a1,1,0,0,1,0,2Z"/></g></svg>