<svg xmlns="http://www.w3.org/2000/svg" viewBox="0 0 280 261.94"><defs><style>.cls-1{fill:#fff;}.cls-2{fill:#757472;}</style></defs><title>Fixtures_</title><g id="ON_WHITE_OFF" data-name="ON WHITE / OFF"><path class="cls-1" d="M87.66,131.54C92.31,114.95,114,102.4,140,102.4s47.69,12.55,52.34,29.15Z"/><path class="cls-2" d="M192.34,132.54H87.66a1,1,0,0,1-1-1.27C91.55,114,114,101.4,140,101.4s48.45,12.56,53.3,29.88a1,1,0,0,1-1,1.27ZM89,130.54H191c-5.34-15.81-26.48-27.15-51-27.15S94.36,114.74,89,130.54Z"/><path class="cls-1" d="M151.68,136.11a12.11,12.11,0,0,1-23.2,0Z"/><path class="cls-2" d="M140.08,145.76a13.18,13.18,0,0,1-12.56-9.36,1,1,0,0,1,1-1.29h23.21a1,1,0,0,1,1,1.28A13.18,13.18,0,0,1,140.08,145.76Zm-10.17-8.65a11.11,11.11,0,0,0,20.34,0Z"/><path class="cls-2" d="M140,103.4a1,1,0,0,1-1-1V42a1,1,0,1,1,2,0v60.4A1,1,0,0,1,140,103.4Z"/><rect class="cls-1" x="87.66" y="131.54" width="104.68" height="4.56"/><path class="cls-2" d="M192.34,137.11H87.66a1,1,0,0,1-1-1v-4.56a1,1,0,0,1,1-1H192.34a1,1,0,0,1,1,1v4.56A1,1,0,0,1,192.34,137.11Zm-103.68-2H191.34v-2.56H88.66Z"/></g></svg>