<svg xmlns="http://www.w3.org/2000/svg" viewBox="0 0 280 261.94"><defs><style>.cls-1{fill:#757472;}.cls-2{fill:#fff;}</style></defs><title>Fixtures_</title><g id="ON_WHITE_OFF" data-name="ON WHITE / OFF"><path class="cls-1" d="M207.53,114.64H72.47a1,1,0,0,1,0-2H207.53a1,1,0,0,1,0,2Z"/><line class="cls-2" x1="186.01" y1="113.64" x2="186.05" y2="134.34"/><path class="cls-1" d="M186,135.34a1,1,0,0,1-1-1l0-20.7a1,1,0,0,1,1-1h0a1,1,0,0,1,1,1l0,20.7a1,1,0,0,1-1,1Z"/><line class="cls-2" x1="93.99" y1="113.64" x2="93.96" y2="129.42"/><path class="cls-1" d="M94,130.42h0a1,1,0,0,1-1-1l0-15.78a1,1,0,0,1,1-1h0a1,1,0,0,1,1,1l0,15.78A1,1,0,0,1,94,130.42Z"/><path class="cls-2" d="M87.81,157.85,87.76,133c.54-2,3.09-3.44,6.16-3.45s5.62,1.47,6.18,3.42l.06,24.88"/><path class="cls-1" d="M87.81,158.85a1,1,0,0,1-1-1L86.76,133a1,1,0,0,1,0-.27c.68-2.45,3.61-4.17,7.12-4.18h0c3.5,0,6.42,1.7,7.12,4.15a1,1,0,0,1,0,.27l.06,24.88a1,1,0,0,1-1,1h0a1,1,0,0,1-1-1l-.06-24.73c-.51-1.48-2.69-2.57-5.16-2.57h0c-2.47,0-4.65,1.11-5.16,2.6l.05,24.73a1,1,0,0,1-1,1Z"/><ellipse class="cls-2" cx="93.99" cy="157.69" rx="6.17" ry="2.31"/><path class="cls-1" d="M94,161c-3.45,0-7.17-1-7.17-3.31s3.72-3.31,7.17-3.31,7.17,1,7.17,3.31S97.44,161,94,161Zm0-4.61c-3.26,0-5,1-5.17,1.33C88.94,158,90.73,159,94,159s5-.92,5.16-1.31C98.94,157.3,97.17,156.38,94,156.38Zm5.17,1.33h0Z"/><path class="cls-2" d="M192.25,155l-19.3-15.7c-1.17-1.66-.71-4.57,1.23-7s4.69-3.43,6.56-2.62l19.3,15.7"/><path class="cls-1" d="M192.25,156a1,1,0,0,1-.63-.22L172.32,140a1,1,0,0,1-.19-.2c-1.47-2.08-.95-5.44,1.27-8.16s5.39-3.92,7.73-2.9a1,1,0,0,1,.23.14l19.3,15.7a1,1,0,0,1-1.26,1.55l-19.19-15.61c-1.47-.54-3.71.46-5.27,2.38s-2.08,4.31-1.26,5.64l19.19,15.61a1,1,0,0,1-.63,1.78Z"/><ellipse class="cls-2" cx="196.03" cy="150.08" rx="6.17" ry="2.31" transform="translate(-44.22 206.9) rotate(-50.74)"/><path class="cls-1" d="M192.81,156.08a2,2,0,0,1-1.32-.45c-1.76-1.44-.21-5,2-7.64A13.93,13.93,0,0,1,197,144.8c2-1.15,3.06-.67,3.54-.28,1.76,1.44.21,5-2,7.64C196.88,154.26,194.57,156.08,192.81,156.08Zm6.41-10c-.53,0-2.29.83-4.21,3.18-2.06,2.52-2.44,4.52-2.24,4.85.33.09,2.2-.67,4.26-3.2s2.42-4.42,2.25-4.82Zm.1,0h0Z"/><line class="cls-2" x1="139.99" y1="113.64" x2="140.02" y2="133.71"/><path class="cls-1" d="M140,134.71a1,1,0,0,1-1-1l0-20.06a1,1,0,0,1,1-1h0a1,1,0,0,1,1,1l0,20.06a1,1,0,0,1-1,1Z"/><path class="cls-2" d="M146.59,155l-19.3-15.7c-1.17-1.66-.71-4.57,1.23-7s4.69-3.43,6.56-2.62l19.3,15.7"/><path class="cls-1" d="M146.59,156a1,1,0,0,1-.63-.22L126.66,140a1,1,0,0,1-.19-.2c-1.47-2.08-.95-5.44,1.27-8.16s5.4-3.92,7.73-2.9a1,1,0,0,1,.23.14l19.3,15.7a1,1,0,0,1-1.26,1.55l-19.19-15.61c-1.47-.54-3.71.46-5.27,2.38s-2.08,4.31-1.26,5.64l19.19,15.61a1,1,0,0,1-.63,1.78Z"/><ellipse class="cls-2" cx="150.37" cy="150.08" rx="6.17" ry="2.31" transform="matrix(0.63, -0.77, 0.77, 0.63, -60.99, 171.55)"/><path class="cls-1" d="M147.16,156.08a2,2,0,0,1-1.32-.45c-.48-.39-1.17-1.37-.43-3.53a15.4,15.4,0,0,1,6-7.3c2-1.15,3.06-.67,3.54-.28,1.76,1.44.21,5-2,7.64C151.22,154.26,148.92,156.08,147.16,156.08Zm6.41-10c-.53,0-2.29.83-4.21,3.18-2.06,2.52-2.44,4.52-2.24,4.85.32.1,2.2-.67,4.26-3.2s2.42-4.42,2.25-4.82Zm.1,0h0Z"/></g></svg>