<svg xmlns="http://www.w3.org/2000/svg" viewBox="0 0 280 261.94"><defs><style>.cls-1{fill:#fff;}.cls-2{fill:#757472;}</style></defs><title>Fixtures_</title><g id="ON_WHITE_OFF" data-name="ON WHITE / OFF"><path class="cls-1" d="M70.4,137.42a16.15,16.15,0,0,1,31,0Z"/><path class="cls-2" d="M101.36,138.42h-31a1,1,0,0,1-1-1.29,17.15,17.15,0,0,1,32.88,0,1,1,0,0,1-1,1.29Zm-29.55-2H100a15.15,15.15,0,0,0-28.15,0Z"/><path class="cls-1" d="M70.4,149a16.15,16.15,0,0,1,31,0Z"/><path class="cls-2" d="M101.36,150h-31a1,1,0,0,1-1-1.29,17.15,17.15,0,0,1,32.88,0,1,1,0,0,1-1,1.29Zm-29.55-2H100a15.15,15.15,0,0,0-28.15,0Z"/><path class="cls-1" d="M124.52,137.42a16.15,16.15,0,0,1,31,0Z"/><path class="cls-2" d="M155.48,138.42h-31a1,1,0,0,1-1-1.29,17.15,17.15,0,0,1,32.88,0,1,1,0,0,1-1,1.29Zm-29.55-2h28.15a15.15,15.15,0,0,0-28.15,0Z"/><path class="cls-1" d="M124.52,149a16.15,16.15,0,0,1,31,0Z"/><path class="cls-2" d="M155.48,150h-31a1,1,0,0,1-1-1.29,17.15,17.15,0,0,1,32.88,0,1,1,0,0,1-1,1.29Zm-29.55-2h28.15a15.15,15.15,0,0,0-28.15,0Z"/><path class="cls-1" d="M178.64,137.42a16.15,16.15,0,0,1,31,0Z"/><path class="cls-2" d="M209.6,138.42h-31a1,1,0,0,1-1-1.29,17.15,17.15,0,0,1,32.88,0,1,1,0,0,1-1,1.29Zm-29.55-2h28.15a15.15,15.15,0,0,0-28.15,0Z"/><path class="cls-1" d="M178.64,149a16.15,16.15,0,0,1,31,0Z"/><path class="cls-2" d="M209.6,150h-31a1,1,0,0,1-1-1.29,17.15,17.15,0,0,1,32.88,0,1,1,0,0,1-1,1.29ZM180,148h28.15A15.15,15.15,0,0,0,180,148Z"/><path class="cls-2" d="M140,126.88a1,1,0,0,1-1-1,26.06,26.06,0,0,0-52.12,0,1,1,0,0,1-2,0,28.06,28.06,0,0,1,56.12,0A1,1,0,0,1,140,126.88Z"/><path class="cls-2" d="M194.12,126.88a1,1,0,0,1-1-1,26.06,26.06,0,0,0-52.12,0,1,1,0,0,1-2,0,28.06,28.06,0,0,1,56.12,0A1,1,0,0,1,194.12,126.88Z"/><path class="cls-2" d="M140,126.88a1,1,0,0,1-1-1V42a1,1,0,1,1,2,0v83.88A1,1,0,0,1,140,126.88Z"/></g></svg>