<?xml version="1.0" encoding="UTF-8"?>
<svg width="1227px" height="607px" viewBox="0 0 1227 607" version="1.1" xmlns="http://www.w3.org/2000/svg" xmlns:xlink="http://www.w3.org/1999/xlink">
    <!-- Generator: Sketch 44.1 (41455) - http://www.bohemiancoding.com/sketch -->
    <title>Noon_Help_Center</title>
    <desc>Created with Sketch.</desc>
    <defs></defs>
    <g id="Page-1" stroke="none" stroke-width="1" fill="none" fill-rule="evenodd">
        <g id="Noon_Help_Center" transform="translate(1.000000, 0.000000)">
            <g id="CIRCLE" transform="translate(110.000000, 0.000000)" fill-rule="nonzero" fill="#FFC815" opacity="0.7">
                <path d="M276.81,604.84 L543.81,604.84 L543.81,495.29 L986,495.29 C986,494.55 986,493.82 986,493.09 C986,221.03 765.46,0.49 493.4,0.49 C221.34,0.49 0.84,221 0.84,493.09 C0.838869088,527.96111 4.52604597,562.73454 11.84,596.83 L276.84,596.83 L276.81,604.84 Z" id="Shape"></path>
            </g>
            <g id="GROUND_LANDSCAPE" transform="translate(0.000000, 92.000000)">
                <path d="M1004,144 C996,140 987,147 987,147 C987,147 958.5,109.57 940.5,106.57 C922.5,103.57 900,105 876,114 C852,123 801,167 792,168 C783,169 770,160 742,159 C714,158 688,200 688,200 C688,200 649,228 644,233 C639,238 451,221 433,218 C415,215 344,166 324,163 C304,160 227,221 227,221 C227,221 205,208 195,209 C188.6,209.64 159.29,225.05 138.74,237.1 C108.334043,323.291382 102.353677,416.212011 121.46,505.59 L386.46,505.59 L386.46,513.59 L653.46,513.59 L653.46,404 L1095.7,404 C1095.7,403.26 1095.7,402.53 1095.7,401.8 C1095.76378,343.308673 1085.38776,285.275434 1065.06,230.43 C1042.27,195.87 1009.17,146.59 1004,144 Z" id="Shape" fill="#FFC815" fill-rule="nonzero"></path>
                <polyline id="Shape" stroke="#767573" stroke-width="2" stroke-linecap="round" stroke-linejoin="round" points="0.4 505.58 386.48 505.58 386.48 513.59 653.46 513.59 653.46 404.04 1201.2 404.04"></polyline>
                <path d="M99.26,147.34 C99.26,147.13 99.26,146.91 99.26,146.7 C99.2413614,121.662051 115.934429,99.6898115 140.060952,92.9957743 C164.187475,86.301737 189.815257,96.5318227 202.7,118 C222.805073,112.089385 244.190772,121.903253 252.82,141 L252.82,141 C252.82,141 278.53,127.36 309.66,128.71 C335.12,129.82 350.31,142.71 355,147.34 L99.26,147.34 Z" id="Shape" fill="#FFFFFF" fill-rule="nonzero"></path>
                <path d="M753.92,60.67 C753.92,60.46 753.92,60.24 753.92,60.03 C753.908853,34.9879254 770.613891,13.0181305 794.747721,6.33502394 C818.88155,-0.348082641 844.508125,9.89930037 857.38,31.38 C877.472572,25.4552902 898.85896,35.2419197 907.51,54.32 L907.51,54.32 C907.51,54.32 933.22,40.68 964.35,42.03 C989.81,43.14 1005,56.03 1009.69,60.66 L753.92,60.67 Z" id="Shape" fill="#FFFFFF" fill-rule="nonzero"></path>
                <path d="M1066.38,148 C1065.15113,140.70924 1059.81466,134.788004 1052.69045,132.810369 C1045.56625,130.832733 1037.94118,133.155922 1033.13,138.77 C1031.11423,112.172593 1013.38973,89.3582364 988.116204,80.8298099 C962.842674,72.3013834 934.91892,79.7119655 917.2,99.65 C904.383233,95.246112 890.236331,97.1955867 879.088372,104.901867 C867.940413,112.608148 861.118426,125.153896 860.71,138.7 C856.41,136.38 830.34,123.16 796.71,124.62 C763.6,126.06 745.16,144.29 741.71,148 L1066.38,148 Z" id="Shape" fill="#FFFFFF" fill-rule="nonzero"></path>
                <path d="M152.9,70.72 C154.153019,63.4304612 159.512246,57.5251111 166.646387,55.5728125 C173.780528,53.6205139 181.399888,55.9741987 186.19,61.61 C188.305698,35.0192687 206.117063,12.2709636 231.42384,3.838278 C256.730618,-4.59440764 284.627139,2.92318577 302.27,22.93 C315.10418,18.5750601 329.244218,20.5791658 340.362757,28.328989 C351.481297,36.0788122 358.254676,48.6517373 358.61,62.2 C362.91,59.9 389.04,46.77 422.69,48.37 C455.79,49.94 474.17,68.24 477.58,71.96 L152.9,70.72 Z" id="Shape" fill="#FFFFFF" fill-rule="nonzero"></path>
                <path d="M146.67,186.76 C146.67,186.76 199.67,162.93 217.67,159.93 C235.67,156.93 253.6,163.33 277.6,172.33 C301.6,181.33 324.82,180.33 333.82,181.33 C342.82,182.33 358.56,169.33 386.32,173.17 C393.39,174.17 427.94,183.97 461.15,177.41 C487.76,172.15 528.15,147.9 552.09,147.32 C573.04,146.81 603.83,156.32 615.37,156.18 C637,156 654.28,141 682,138.82 C709,136.71 773,162.89 813.57,160.49 C833.76,159.3 925.48,266.59 925.48,266.59 C925.48,266.59 947.48,253.59 957.48,254.59 C963.88,255.23 993.19,270.64 1013.74,282.69 C1032.02,334.2 1038.15,345.26 1038.15,403.03 L653.45,404.03 L56.78,449.63 C56.78,448.89 56.78,448.16 56.78,447.43 C56.716221,388.938673 67.0922404,330.905434 87.42,276.06 C110.22,241.47 146.67,186.76 146.67,186.76 Z" id="Shape" fill="#FFC815" fill-rule="nonzero" opacity="0.5"></path>
            </g>
            <g id="LANDSCAPE_2" transform="translate(142.000000, 248.000000)" stroke-width="2" stroke-linecap="round" stroke-linejoin="round">
                <path d="M5.1,111.45 L44.9,111.45" id="Shape" stroke="#FFFFFF" opacity="0.3"></path>
                <path d="M80.84,111.45 L101.74,111.45" id="Shape" stroke="#FFFFFF" opacity="0.3"></path>
                <path d="M0,164.07 L35.18,164.07" id="Shape" stroke="#FFFFFF" opacity="0.3"></path>
                <path d="M689.53,12.4 L710.62,12.4" id="Shape" stroke="#FFFFFF" opacity="0.3"></path>
                <path d="M72.69,22.69 L102.74,22.69" id="Shape" stroke="#FFC815"></path>
                <path d="M22.04,46.34 L41.53,46.34" id="Shape" stroke="#FFC815"></path>
                <path d="M57.61,32.86 L77.31,32.86" id="Shape" stroke="#FFC815"></path>
                <path d="M111.73,32.86 L146.68,32.86" id="Shape" stroke="#FFC815"></path>
                <path d="M530.43,0.2 L558.34,0.2" id="Shape" stroke="#FFC815"></path>
                <path d="M844.47,46.33 L874.53,46.33" id="Shape" stroke="#FFFFFF" opacity="0.3"></path>
                <path d="M823.35,87.23 L844.16,87.23" id="Shape" stroke="#FFFFFF" opacity="0.3"></path>
                <path d="M837.95,120.75 L889.58,120.75" id="Shape" stroke="#FFFFFF" opacity="0.3"></path>
                <path d="M756.75,0.2 L792.61,0.2" id="Shape" stroke="#FFFFFF" opacity="0.3"></path>
                <path d="M807.57,12.49 L826.14,12.49" id="Shape" stroke="#FFFFFF" opacity="0.3"></path>
                <path d="M146.93,49 L167.43,49" id="Shape" stroke="#FFFFFF" opacity="0.3"></path>
                <path d="M263.13,80.19 L283.63,80.19" id="Shape" stroke="#FFFFFF" opacity="0.3"></path>
                <path d="M211.61,66.5 L248.53,66.5" id="Shape" stroke="#FFFFFF" opacity="0.3"></path>
                <path d="M110.74,68.39 L157.18,68.39" id="Shape" stroke="#FFFFFF" opacity="0.3"></path>
                <path d="M29.68,99 L52.62,99" id="Shape" stroke="#FFFFFF" opacity="0.3"></path>
                <path d="M61.35,143.51 L91.29,143.51" id="Shape" stroke="#FFFFFF" opacity="0.3"></path>
                <path d="M14.86,212.06 L44.8,212.06" id="Shape" stroke="#FFFFFF" opacity="0.3"></path>
                <path d="M76.32,182.65 L98.56,182.65" id="Shape" stroke="#FFFFFF" opacity="0.3"></path>
            </g>
            <g id="WALLS_GREY" transform="translate(256.000000, 277.000000)" fill-rule="nonzero" fill="#E8E8E8">
                <rect id="Rectangle-path" x="543.14" y="0.43" width="150.43" height="101.42"></rect>
                <rect id="Rectangle-path" x="450.49" y="109.85" width="243.08" height="101.42"></rect>
                <rect id="Rectangle-path" x="0.79" y="109.85" width="388.66" height="101.12"></rect>
                <rect id="Rectangle-path" x="130.48" y="219.28" width="258.97" height="101.42"></rect>
            </g>
            <g id="SECTION_CUT" transform="translate(252.000000, 225.000000)" stroke="#767573" fill-rule="nonzero" stroke-width="2" fill="#FFFFFF" stroke-linecap="round" stroke-linejoin="round">
                <polygon id="Shape" points="701.57 71.82 701.57 44.42 539.13 44.42 539.13 44.42 539.13 153.84 454.5 153.84 454.5 44.42 454.49 44.42 130.47 0.98 130.47 60.95 138.48 60.95 138.48 10.13 446.5 51.43 446.5 263.04 401.46 263.04 401.46 161.85 401.46 161.85 401.46 153.84 0.79 153.85 0.79 172.74 8.79 172.74 8.79 161.85 393.45 161.85 393.45 263.04 8.79 263.04 8.79 224.91 0.79 224.91 0.79 271.04 130.48 271.04 130.48 286.06 138.49 286.06 138.49 271.04 393.45 271.04 393.45 372.58 134.48 372.58 134.48 380.59 401.46 380.59 401.46 271.04 701.57 271.04 701.57 224.91 693.57 224.91 693.57 263.04 454.5 263.04 454.5 161.85 693.57 161.85 693.57 172.74 701.57 172.74 701.57 110.77 693.57 110.77 693.57 153.84 547.14 153.84 547.14 52.43 693.57 52.43 693.57 71.82"></polygon>
            </g>
            <g id="WINDOWS_WALLS_STAIRS" transform="translate(256.000000, 234.000000)">
                <path d="M184.57,51.94 L152.63,51.94 L152.63,107.57 L156.07,107.57 L156.07,107.57 L184.57,107.57 L184.57,107.57 L188,107.57 L188,51.94 L184.57,51.94 Z M184.57,104 L156.07,104 L156.07,55.46 L184.57,55.46 L184.57,104 Z" id="Shape" fill="#FFFFFF" fill-rule="nonzero"></path>
                <path d="M422.57,51.94 L390.63,51.94 L390.63,107.57 L394.07,107.57 L394.07,107.57 L422.57,107.57 L422.57,107.57 L426,107.57 L426,51.94 L422.57,51.94 Z M422.57,104 L394.07,104 L394.07,55.46 L422.57,55.46 L422.57,104 Z" id="Shape" fill="#FFFFFF" fill-rule="nonzero"></path>
                <path d="M130.28,0.56 L130.47,144.85 L397.47,144.85 L397.47,254 L442.47,254 L442.47,43.43 L130.28,0.56 Z M188,107.25 L152.79,107.25 L152.79,52 L188,52 L188,107.25 Z M426.06,107.25 L390.85,107.25 L390.85,52 L426.1,52 L426.06,107.25 Z" id="Shape" stroke="#767573" stroke-width="2" fill="#E8E8E8" fill-rule="nonzero"></path>
                <rect id="Rectangle-path" stroke="#767573" stroke-linecap="round" stroke-linejoin="round" x="394.25" y="55.41" width="28.33" height="48.39"></rect>
                <rect id="Rectangle-path" stroke="#767573" stroke-linecap="round" stroke-linejoin="round" x="156.19" y="55.41" width="28.45" height="48.59"></rect>
                <path d="M130.48,51.95 L130.48,144.84" id="Shape" stroke="#767573" stroke-width="2" stroke-linecap="round" stroke-linejoin="round"></path>
                <path d="M0.79,163.74 L0.79,215.91" id="Shape" stroke="#767573" stroke-width="2" stroke-linecap="round" stroke-linejoin="round"></path>
                <path d="M693.57,163.74 L693.57,215.91" id="Shape" stroke="#767573" stroke-width="2" stroke-linecap="round" stroke-linejoin="round"></path>
                <path d="M130.48,277.06 L130.48,363.58" id="Shape" stroke="#767573" stroke-width="2" stroke-linecap="round" stroke-linejoin="round"></path>
                <path d="M693.57,62.82 L693.57,101.77" id="Shape" stroke="#767573" stroke-width="2" stroke-linecap="round" stroke-linejoin="round"></path>
                <rect id="Rectangle-path" stroke="#767573" stroke-width="2" fill="#FFFFFF" fill-rule="nonzero" stroke-linecap="round" stroke-linejoin="round" x="632.32" y="43.43" width="4" height="101.4"></rect>
                <path d="M397.46,208.56 L442.5,208.56" id="Shape" stroke="#767573" stroke-width="2" stroke-linecap="round" stroke-linejoin="round"></path>
                <path d="M397.46,199.46 L442.5,199.46" id="Shape" stroke="#767573" stroke-width="2" stroke-linecap="round" stroke-linejoin="round"></path>
                <path d="M397.46,190.35 L442.5,190.35" id="Shape" stroke="#767573" stroke-width="2" stroke-linecap="round" stroke-linejoin="round"></path>
                <path d="M397.46,181.25 L442.5,181.25" id="Shape" stroke="#767573" stroke-width="2" stroke-linecap="round" stroke-linejoin="round"></path>
                <path d="M397.46,163.05 L442.5,163.05" id="Shape" stroke="#767573" stroke-width="2" stroke-linecap="round" stroke-linejoin="round"></path>
                <path d="M397.46,172.15 L442.5,172.15" id="Shape" stroke="#767573" stroke-width="2" stroke-linecap="round" stroke-linejoin="round"></path>
                <path d="M397.46,153.94 L442.5,153.94" id="Shape" stroke="#767573" stroke-width="2" stroke-linecap="round" stroke-linejoin="round"></path>
                <path d="M397.46,144.84 L442.5,144.84" id="Shape" stroke="#767573" stroke-width="2" stroke-linecap="round" stroke-linejoin="round"></path>
                <path d="M397.46,244.97 L442.5,244.97" id="Shape" stroke="#767573" stroke-width="2" stroke-linecap="round" stroke-linejoin="round"></path>
                <path d="M397.46,235.87 L442.5,235.87" id="Shape" stroke="#767573" stroke-width="2" stroke-linecap="round" stroke-linejoin="round"></path>
                <path d="M397.46,226.77 L442.5,226.77" id="Shape" stroke="#767573" stroke-width="2" stroke-linecap="round" stroke-linejoin="round"></path>
                <path d="M397.46,217.66 L442.5,217.66" id="Shape" stroke="#767573" stroke-width="2" stroke-linecap="round" stroke-linejoin="round"></path>
            </g>
            <g id="PHOTO_MIRROR" transform="translate(804.000000, 296.000000)" stroke="#767573" stroke-linecap="round" stroke-linejoin="round">
                <rect id="Rectangle-path" stroke-width="2" fill="#FFFFFF" fill-rule="nonzero" x="0.54" y="103.74" width="67.81" height="39.81"></rect>
                <circle id="Oval" cx="25.55" cy="119.33" r="3.09"></circle>
                <polyline id="Shape" points="29.34 138.59 19.5 128.75 4.83 143.41"></polyline>
                <polyline id="Shape" points="68.35 139.09 48.6 119.34 24.52 143.41"></polyline>
                <rect id="Rectangle-path" fill="#FFFFFF" fill-rule="nonzero" x="23.9" y="0.82" width="31.97" height="38.95"></rect>
                <path d="M38.07,7.92 L32.3,13.69" id="Shape" fill="#FFFFFF" fill-rule="nonzero"></path>
                <path d="M42.29,10.36 L33.86,18.79" id="Shape" fill="#FFFFFF" fill-rule="nonzero"></path>
            </g>
            <g id="LIGHT_GLOWS_copy" transform="translate(309.000000, 291.000000)" fill-rule="nonzero" fill="#FFC815">
                <circle id="Oval" cx="24.78" cy="131.54" r="24.35"></circle>
                <circle id="Oval" cx="161.08" cy="126.65" r="14"></circle>
                <circle id="Oval" cx="191.87" cy="126.65" r="14"></circle>
                <circle id="Oval" cx="222.66" cy="126.65" r="14"></circle>
                <circle id="Oval" cx="163.56" cy="37.19" r="17.43"></circle>
                <circle id="Oval" cx="312.25" cy="37.19" r="17.43"></circle>
                <circle id="Oval" cx="217.79" cy="12.66" r="12.5"></circle>
                <circle id="Oval" cx="255.54" cy="12.66" r="12.5"></circle>
                <circle id="Oval" cx="510.34" cy="22.19" r="14.86"></circle>
                <circle id="Oval" cx="559.65" cy="22.19" r="14.86"></circle>
                <circle id="Oval" cx="566.53" cy="130.38" r="23.22"></circle>
            </g>
            <g id="FURNITURE_MATERIALS" transform="translate(256.000000, 269.000000)">
                <polygon id="Shape" stroke="#767573" stroke-width="2" fill="#FFFFFF" fill-rule="nonzero" stroke-linecap="round" stroke-linejoin="round" points="498.27 219.04 480.95 219.04 477.94 198.91 501.27 198.91"></polygon>
                <path d="M489.61,162.21 L489.61,162.21 C485.915746,156.29258 485.915746,148.78742 489.61,142.87 L489.61,142.87 C493.304254,148.78742 493.304254,156.29258 489.61,162.21 L489.61,162.21 Z" id="Shape" stroke="#767573" fill="#FFFFFF" fill-rule="nonzero" stroke-linecap="round" stroke-linejoin="round"></path>
                <path d="M489.61,171.15 L489.61,171.15 C482.810524,169.578781 477.501219,164.269476 475.93,157.47 L475.93,157.47 C482.729476,159.041219 488.038781,164.350524 489.61,171.15 L489.61,171.15 Z" id="Shape" stroke="#767573" fill="#FFFFFF" fill-rule="nonzero" stroke-linecap="round" stroke-linejoin="round"></path>
                <path d="M489.61,171.15 L489.61,171.15 C496.409476,169.578781 501.718781,164.269476 503.29,157.47 L503.29,157.47 C496.490524,159.041219 491.181219,164.350524 489.61,171.15 L489.61,171.15 Z" id="Shape" stroke="#767573" fill="#FFFFFF" fill-rule="nonzero" stroke-linecap="round" stroke-linejoin="round"></path>
                <path d="M489.61,183.27 L489.61,183.27 C482.810524,181.698781 477.501219,176.389476 475.93,169.59 L475.93,169.59 C482.729476,171.161219 488.038781,176.470524 489.61,183.27 L489.61,183.27 Z" id="Shape" stroke="#767573" fill="#FFFFFF" fill-rule="nonzero" stroke-linecap="round" stroke-linejoin="round"></path>
                <path d="M489.61,183.27 L489.61,183.27 C496.409476,181.698781 501.718781,176.389476 503.29,169.59 L503.29,169.59 C496.490524,171.161219 491.181219,176.470524 489.61,183.27 L489.61,183.27 Z" id="Shape" stroke="#767573" fill="#FFFFFF" fill-rule="nonzero" stroke-linecap="round" stroke-linejoin="round"></path>
                <path d="M489.61,195.38 L489.61,195.38 C482.810524,193.808781 477.501219,188.499476 475.93,181.7 L475.93,181.7 C482.729476,183.271219 488.038781,188.580524 489.61,195.38 L489.61,195.38 Z" id="Shape" stroke="#767573" fill="#FFFFFF" fill-rule="nonzero" stroke-linecap="round" stroke-linejoin="round"></path>
                <path d="M489.61,195.38 L489.61,195.38 C496.409476,193.808781 501.718781,188.499476 503.29,181.7 L503.29,181.7 C496.490524,183.271219 491.181219,188.580524 489.61,195.38 L489.61,195.38 Z" id="Shape" stroke="#767573" fill="#FFFFFF" fill-rule="nonzero" stroke-linecap="round" stroke-linejoin="round"></path>
                <path d="M489.61,161.65 L489.61,198.91" id="Shape" stroke="#767573" stroke-linecap="round" stroke-linejoin="round"></path>
                <rect id="Rectangle-path" stroke="#767573" stroke-width="2" fill="#FFFFFF" fill-rule="nonzero" stroke-linecap="round" stroke-linejoin="round" x="450.49" y="0.42" width="84.64" height="109.42"></rect>
                <path d="M450.49,16.08 L535.13,16.08" id="Shape" stroke="#757472" stroke-width="2" stroke-linecap="round" stroke-linejoin="round"></path>
                <path d="M450.49,31.74 L535.13,31.74" id="Shape" stroke="#757472" stroke-width="2" stroke-linecap="round" stroke-linejoin="round"></path>
                <path d="M450.49,23.91 L535.13,23.91" id="Shape" stroke="#757472" stroke-width="2" stroke-linecap="round" stroke-linejoin="round"></path>
                <path d="M450.49,47.39 L535.13,47.39" id="Shape" stroke="#757472" stroke-width="2" stroke-linecap="round" stroke-linejoin="round"></path>
                <path d="M450.49,39.57 L535.13,39.57" id="Shape" stroke="#757472" stroke-width="2" stroke-linecap="round" stroke-linejoin="round"></path>
                <path d="M450.49,63.05 L535.13,63.05" id="Shape" stroke="#757472" stroke-width="2" stroke-linecap="round" stroke-linejoin="round"></path>
                <path d="M450.49,55.22 L535.13,55.22" id="Shape" stroke="#757472" stroke-width="2" stroke-linecap="round" stroke-linejoin="round"></path>
                <path d="M450.49,78.71 L535.13,78.71" id="Shape" stroke="#757472" stroke-width="2" stroke-linecap="round" stroke-linejoin="round"></path>
                <path d="M450.49,70.88 L535.13,70.88" id="Shape" stroke="#757472" stroke-width="2" stroke-linecap="round" stroke-linejoin="round"></path>
                <path d="M450.49,102.2 L535.13,102.2" id="Shape" stroke="#757472" stroke-width="2" stroke-linecap="round" stroke-linejoin="round"></path>
                <path d="M450.49,86.54 L535.13,86.54" id="Shape" stroke="#757472" stroke-width="2" stroke-linecap="round" stroke-linejoin="round"></path>
                <path d="M450.49,94.37 L535.13,94.37" id="Shape" stroke="#757472" stroke-width="2" stroke-linecap="round" stroke-linejoin="round"></path>
                <path d="M492.81,0.42 L492.81,8.25" id="Shape" stroke="#757472" stroke-width="2" stroke-linecap="round" stroke-linejoin="round"></path>
                <path d="M471.43,8.25 L471.43,16.08" id="Shape" stroke="#757472" stroke-width="2" stroke-linecap="round" stroke-linejoin="round"></path>
                <path d="M514.21,8.25 L514.21,16.08" id="Shape" stroke="#757472" stroke-width="2" stroke-linecap="round" stroke-linejoin="round"></path>
                <path d="M492.8,16.08 L492.8,23.91" id="Shape" stroke="#757472" stroke-width="2" stroke-linecap="round" stroke-linejoin="round"></path>
                <path d="M471.41,23.91 L471.41,31.74" id="Shape" stroke="#757472" stroke-width="2" stroke-linecap="round" stroke-linejoin="round"></path>
                <path d="M514.2,23.91 L514.2,31.74" id="Shape" stroke="#757472" stroke-width="2" stroke-linecap="round" stroke-linejoin="round"></path>
                <path d="M492.81,31.74 L492.81,39.57" id="Shape" stroke="#757472" stroke-width="2" stroke-linecap="round" stroke-linejoin="round"></path>
                <path d="M471.43,39.57 L471.43,47.39" id="Shape" stroke="#757472" stroke-width="2" stroke-linecap="round" stroke-linejoin="round"></path>
                <path d="M514.21,39.57 L514.21,47.39" id="Shape" stroke="#757472" stroke-width="2" stroke-linecap="round" stroke-linejoin="round"></path>
                <path d="M492.8,47.39 L492.8,55.22" id="Shape" stroke="#757472" stroke-width="2" stroke-linecap="round" stroke-linejoin="round"></path>
                <path d="M471.41,55.22 L471.41,63.05" id="Shape" stroke="#757472" stroke-width="2" stroke-linecap="round" stroke-linejoin="round"></path>
                <path d="M514.2,55.22 L514.2,63.05" id="Shape" stroke="#757472" stroke-width="2" stroke-linecap="round" stroke-linejoin="round"></path>
                <path d="M492.81,63.05 L492.81,70.88" id="Shape" stroke="#757472" stroke-width="2" stroke-linecap="round" stroke-linejoin="round"></path>
                <path d="M471.43,70.88 L471.43,78.71" id="Shape" stroke="#757472" stroke-width="2" stroke-linecap="round" stroke-linejoin="round"></path>
                <path d="M514.21,70.88 L514.21,78.71" id="Shape" stroke="#757472" stroke-width="2" stroke-linecap="round" stroke-linejoin="round"></path>
                <path d="M492.81,94.37 L492.81,102.2" id="Shape" stroke="#757472" stroke-width="2" stroke-linecap="round" stroke-linejoin="round"></path>
                <path d="M471.43,102.2 L471.43,109.85" id="Shape" stroke="#757472" stroke-width="2" stroke-linecap="round" stroke-linejoin="round"></path>
                <path d="M514.21,102.2 L514.21,109.85" id="Shape" stroke="#757472" stroke-width="2" stroke-linecap="round" stroke-linejoin="round"></path>
                <path d="M492.8,78.71 L492.8,86.54" id="Shape" stroke="#757472" stroke-width="2" stroke-linecap="round" stroke-linejoin="round"></path>
                <path d="M471.41,86.54 L471.41,94.37" id="Shape" stroke="#757472" stroke-width="2" stroke-linecap="round" stroke-linejoin="round"></path>
                <path d="M514.2,86.54 L514.2,94.37" id="Shape" stroke="#757472" stroke-width="2" stroke-linecap="round" stroke-linejoin="round"></path>
                <path d="M450.5,8.25 L535.13,8.25" id="Shape" stroke="#767573" stroke-width="2" stroke-linecap="round" stroke-linejoin="round"></path>
                <rect id="Rectangle-path" stroke="#767573" stroke-width="2" fill="#FFFFFF" fill-rule="nonzero" stroke-linecap="round" stroke-linejoin="round" x="342.14" y="248.2" width="37.97" height="80.39"></rect>
                <circle id="Oval" stroke="#767573" stroke-linecap="round" stroke-linejoin="round" cx="349.55" cy="287.44" r="2.44"></circle>
                <circle id="Oval" stroke="#767573" fill="#FFFFFF" fill-rule="nonzero" stroke-linecap="round" stroke-linejoin="round" cx="313.01" cy="248.4" r="7.42"></circle>
                <rect id="Rectangle-path" stroke="#767573" fill="#FFFFFF" fill-rule="nonzero" stroke-linecap="round" stroke-linejoin="round" x="289.12" y="267.07" width="12.18" height="9.69"></rect>
                <rect id="Rectangle-path" stroke="#767573" fill="#FFFFFF" fill-rule="nonzero" stroke-linecap="round" stroke-linejoin="round" x="305.27" y="269.99" width="12.18" height="6.78"></rect>
                <rect id="Rectangle-path" stroke="#767573" fill="#FFFFFF" fill-rule="nonzero" stroke-linecap="round" stroke-linejoin="round" x="289.12" y="247.3" width="8.52" height="8.52"></rect>
                <path d="M324.1,284.77 L324.1,258.84" id="Shape" stroke="#767573" stroke-width="2" stroke-linecap="round" stroke-linejoin="round"></path>
                <path d="M283.12,284.77 L283.12,258.84" id="Shape" stroke="#767573" stroke-width="2" stroke-linecap="round" stroke-linejoin="round"></path>
                <rect id="Rectangle-path" stroke="#767573" stroke-width="2" fill="#FFFFFF" fill-rule="nonzero" stroke-linecap="round" stroke-linejoin="round" x="280.49" y="255.81" width="46.22" height="3.7"></rect>
                <rect id="Rectangle-path" stroke="#767573" stroke-width="2" fill="#FFFFFF" fill-rule="nonzero" stroke-linecap="round" stroke-linejoin="round" x="280.49" y="276.77" width="46.22" height="3.7"></rect>
                <path d="M655.4,109.82 L655.4,8.43" id="Shape" stroke="#767573" stroke-linecap="round" stroke-linejoin="round"></path>
                <path d="M674.48,109.82 L674.48,8.43" id="Shape" stroke="#767573" stroke-linecap="round" stroke-linejoin="round"></path>
                <path d="M636.32,76.04 L689.57,76.04" id="Shape" stroke="#767573" stroke-linecap="round" stroke-linejoin="round"></path>
                <path d="M636.32,92.94 L689.57,92.94" id="Shape" stroke="#767573" stroke-linecap="round" stroke-linejoin="round"></path>
                <path d="M693.57,59.14 L636.32,59.14" id="Shape" stroke="#767573" stroke-linecap="round" stroke-linejoin="round"></path>
                <path d="M636.32,25.33 L689.57,25.33" id="Shape" stroke="#767573" stroke-linecap="round" stroke-linejoin="round"></path>
                <path d="M636.32,42.23 L693.57,42.23" id="Shape" stroke="#767573" stroke-linecap="round" stroke-linejoin="round"></path>
                <path d="M664.97,32.85 L664.97,38.43" id="Shape" stroke="#767573" stroke-linecap="round" stroke-linejoin="round"></path>
                <path d="M660.17,32.85 L660.17,38.43" id="Shape" stroke="#767573" stroke-linecap="round" stroke-linejoin="round"></path>
                <path d="M669.78,32.85 L669.78,38.43" id="Shape" stroke="#767573" stroke-linecap="round" stroke-linejoin="round"></path>
                <path d="M664.94,22.94 L664.94,8.43" id="Shape" stroke="#767573" stroke-linecap="round" stroke-linejoin="round"></path>
                <path d="M671.35,29.34 C671.35,25.8026162 668.482384,22.935 664.945,22.935 C661.407616,22.935 658.54,25.8026162 658.54,29.34 L671.35,29.34 Z" id="Shape" stroke="#767573" fill="#FFFFFF" fill-rule="nonzero" stroke-linecap="round" stroke-linejoin="round"></path>
                <path d="M91.18,29.1 L91.18,29.1 C87.4857456,23.1825803 87.4857456,15.6774197 91.18,9.76 L91.18,9.76 C94.8742544,15.6774197 94.8742544,23.1825803 91.18,29.1 Z" id="Shape" stroke="#767573" fill="#FFFFFF" fill-rule="nonzero" stroke-linecap="round" stroke-linejoin="round"></path>
                <path d="M91.18,59.18 L91.18,59.18 C84.3805243,57.6087813 79.0712187,52.2994757 77.5,45.5 L77.5,45.5 C84.2994757,47.0712187 89.6087813,52.3805243 91.18,59.18 Z" id="Shape" stroke="#767573" fill="#FFFFFF" fill-rule="nonzero" stroke-linecap="round" stroke-linejoin="round"></path>
                <path d="M91.18,67.26 L91.18,67.26 C97.9794757,65.6887813 103.288781,60.3794757 104.86,53.58 L104.86,53.58 C98.0605243,55.1512187 92.7512187,60.4605243 91.18,67.26 Z" id="Shape" stroke="#767573" fill="#FFFFFF" fill-rule="nonzero" stroke-linecap="round" stroke-linejoin="round"></path>
                <path d="M91.18,75.34 L91.18,75.34 C84.3805243,73.7687813 79.0712187,68.4594757 77.5,61.66 L77.5,61.66 C84.2994757,63.2312187 89.6087813,68.5405243 91.18,75.34 L91.18,75.34 Z" id="Shape" stroke="#767573" fill="#FFFFFF" fill-rule="nonzero" stroke-linecap="round" stroke-linejoin="round"></path>
                <path d="M91.18,43 L91.18,43 C84.3805243,41.4287813 79.0712187,36.1194757 77.5,29.32 L77.5,29.32 C84.2994757,30.8912187 89.6087813,36.2005243 91.18,43 Z" id="Shape" stroke="#767573" fill="#FFFFFF" fill-rule="nonzero" stroke-linecap="round" stroke-linejoin="round"></path>
                <path d="M91.18,51.1 L91.18,51.1 C97.9794757,49.5287813 103.288781,44.2194757 104.86,37.42 L104.86,37.42 C98.0605243,38.9912187 92.7512187,44.3005243 91.18,51.1 L91.18,51.1 Z" id="Shape" stroke="#767573" fill="#FFFFFF" fill-rule="nonzero" stroke-linecap="round" stroke-linejoin="round"></path>
                <path d="M91.18,29.1 L91.18,71" id="Shape" stroke="#767573" stroke-linecap="round" stroke-linejoin="round"></path>
                <rect id="Rectangle-path" stroke="#767573" stroke-width="2" fill="#FFFFFF" fill-rule="nonzero" stroke-linecap="round" stroke-linejoin="round" x="0.79" y="71" width="129.69" height="38.84"></rect>
                <path d="M80.06,71 L80.06,109.85" id="Shape" stroke="#767573" stroke-linecap="round" stroke-linejoin="round"></path>
                <path d="M72.85,71 L72.85,109.85" id="Shape" stroke="#767573" stroke-linecap="round" stroke-linejoin="round"></path>
                <path d="M65.64,71 L65.64,109.85" id="Shape" stroke="#767573" stroke-linecap="round" stroke-linejoin="round"></path>
                <path d="M58.44,71 L58.44,109.85" id="Shape" stroke="#767573" stroke-linecap="round" stroke-linejoin="round"></path>
                <path d="M22.41,71 L22.41,109.85" id="Shape" stroke="#767573" stroke-linecap="round" stroke-linejoin="round"></path>
                <path d="M15.2,71 L15.2,109.85" id="Shape" stroke="#767573" stroke-linecap="round" stroke-linejoin="round"></path>
                <path d="M8,71 L8,109.85" id="Shape" stroke="#767573" stroke-linecap="round" stroke-linejoin="round"></path>
                <path d="M51.23,71 L51.23,109.85" id="Shape" stroke="#767573" stroke-linecap="round" stroke-linejoin="round"></path>
                <path d="M44.03,71 L44.03,109.85" id="Shape" stroke="#767573" stroke-linecap="round" stroke-linejoin="round"></path>
                <rect id="Rectangle-path" stroke="#767573" stroke-width="2" fill="#FFFFFF" fill-rule="nonzero" stroke-linecap="round" stroke-linejoin="round" x="188.57" y="185.61" width="113.21" height="33.42"></rect>
                <rect id="Rectangle-path" stroke="#767573" stroke-width="2" fill="#FFFFFF" fill-rule="nonzero" stroke-linecap="round" stroke-linejoin="round" x="356.29" y="185.61" width="33.17" height="33.42"></rect>
                <rect id="Rectangle-path" stroke="#767573" stroke-width="2" fill="#FFFFFF" fill-rule="nonzero" stroke-linecap="round" stroke-linejoin="round" x="301.77" y="139.85" width="54.51" height="71.45"></rect>
                <path d="M329.03,139.85 L329.03,211.3" id="Shape" stroke="#767573" stroke-linecap="round" stroke-linejoin="round"></path>
                <rect id="Rectangle-path" stroke="#767573" fill="#FFFFFF" fill-rule="nonzero" stroke-linecap="round" stroke-linejoin="round" x="301.77" y="211.3" width="54.51" height="7.74"></rect>
                <path d="M324.53,158.1 L324.53,197.68" id="Shape" stroke="#767573" stroke-width="2" stroke-linecap="round" stroke-linejoin="round"></path>
                <path d="M333.51,158.1 L333.51,197.68" id="Shape" stroke="#767573" stroke-width="2" stroke-linecap="round" stroke-linejoin="round"></path>
                <path d="M245.29,185.61 L245.29,173.54 C245.29,172.573502 244.506498,171.79 243.54,171.79 C242.573502,171.79 241.79,172.573502 241.79,173.54 L241.79,175.62" id="Shape" stroke="#757472" stroke-width="2" stroke-linecap="round" stroke-linejoin="round"></path>
                <path d="M280.26,152.07 L271.06,152.07 L271.57,146.7 C271.822696,144.633173 273.577783,143.079771 275.66,143.08 L275.66,143.08 C277.742217,143.079771 279.497304,144.633173 279.75,146.7 L280.26,152.07 Z" id="Shape" stroke="#767573" stroke-width="2" fill="#FFFFFF" fill-rule="nonzero" stroke-linecap="round" stroke-linejoin="round"></path>
                <path d="M249.47,152.07 L240.27,152.07 L240.78,146.7 C241.032696,144.633173 242.787783,143.079771 244.87,143.08 L244.87,143.08 C246.952217,143.079771 248.707304,144.633173 248.96,146.7 L249.47,152.07 Z" id="Shape" stroke="#767573" stroke-width="2" fill="#FFFFFF" fill-rule="nonzero" stroke-linecap="round" stroke-linejoin="round"></path>
                <path d="M218.68,152.07 L209.48,152.07 L209.99,146.7 C210.242696,144.633173 211.997783,143.079771 214.08,143.08 L214.08,143.08 C216.162217,143.079771 217.917304,144.633173 218.17,146.7 L218.68,152.07 Z" id="Shape" stroke="#767573" stroke-width="2" fill="#FFFFFF" fill-rule="nonzero" stroke-linecap="round" stroke-linejoin="round"></path>
                <path d="M214.08,117.85 L214.08,143.07" id="Shape" stroke="#767573" stroke-linecap="round" stroke-linejoin="round"></path>
                <path d="M244.87,117.85 L244.87,143.07" id="Shape" stroke="#767573" stroke-linecap="round" stroke-linejoin="round"></path>
                <path d="M275.66,117.85 L275.66,143.07" id="Shape" stroke="#767573" stroke-linecap="round" stroke-linejoin="round"></path>
                <rect id="Rectangle-path" stroke="#767573" fill="#FFFFFF" fill-rule="nonzero" stroke-linecap="round" stroke-linejoin="round" x="217.21" y="195.45" width="3.16" height="5.08"></rect>
                <path d="M218.79,200.53 L218.79,219.3" id="Shape" stroke="#767573" stroke-linecap="round" stroke-linejoin="round"></path>
                <path d="M214.74,211.75 L222.84,211.75" id="Shape" stroke="#767573" stroke-linecap="round" stroke-linejoin="round"></path>
                <path d="M212.98,194.98 L224.6,194.98" id="Shape" stroke="#767573" stroke-width="2" stroke-linecap="round" stroke-linejoin="round"></path>
                <path d="M288.37,179.61 C287.49,182.77 283.37,185.15 278.37,185.15 C273.37,185.15 269.3,182.76 268.37,179.61 L288.37,179.61 Z" id="Shape" stroke="#767573" fill="#FFFFFF" fill-rule="nonzero" stroke-linecap="round" stroke-linejoin="round"></path>
                <rect id="Rectangle-path" stroke="#767573" fill="#FFFFFF" fill-rule="nonzero" stroke-linecap="round" stroke-linejoin="round" x="243.8" y="195.45" width="3.16" height="5.08"></rect>
                <path d="M245.38,200.53 L245.38,219.3" id="Shape" stroke="#767573" stroke-linecap="round" stroke-linejoin="round"></path>
                <path d="M241.33,211.75 L249.43,211.75" id="Shape" stroke="#767573" stroke-linecap="round" stroke-linejoin="round"></path>
                <path d="M239.57,194.98 L251.19,194.98" id="Shape" stroke="#767573" stroke-width="2" stroke-linecap="round" stroke-linejoin="round"></path>
                <rect id="Rectangle-path" stroke="#767573" fill="#FFFFFF" fill-rule="nonzero" stroke-linecap="round" stroke-linejoin="round" x="270.39" y="195.45" width="3.16" height="5.08"></rect>
                <path d="M271.97,200.53 L271.97,219.3" id="Shape" stroke="#767573" stroke-linecap="round" stroke-linejoin="round"></path>
                <path d="M267.92,211.75 L276.01,211.75" id="Shape" stroke="#767573" stroke-linecap="round" stroke-linejoin="round"></path>
                <path d="M266.16,194.98 L277.78,194.98" id="Shape" stroke="#767573" stroke-width="2" stroke-linecap="round" stroke-linejoin="round"></path>
                <path d="M36.82,71 L36.82,109.85" id="Shape" stroke="#767573" stroke-linecap="round" stroke-linejoin="round"></path>
                <path d="M123.29,71 L123.29,109.85" id="Shape" stroke="#767573" stroke-linecap="round" stroke-linejoin="round"></path>
                <path d="M116.09,71 L116.09,109.85" id="Shape" stroke="#767573" stroke-linecap="round" stroke-linejoin="round"></path>
                <path d="M108.88,71 L108.88,109.85" id="Shape" stroke="#767573" stroke-linecap="round" stroke-linejoin="round"></path>
                <path d="M101.68,71 L101.68,109.85" id="Shape" stroke="#767573" stroke-linecap="round" stroke-linejoin="round"></path>
                <path d="M94.47,71 L94.47,109.85" id="Shape" stroke="#767573" stroke-linecap="round" stroke-linejoin="round"></path>
                <path d="M87.26,71 L87.26,109.85" id="Shape" stroke="#767573" stroke-linecap="round" stroke-linejoin="round"></path>
                <path d="M29.61,71 L29.61,109.85" id="Shape" stroke="#767573" stroke-linecap="round" stroke-linejoin="round"></path>
                <path d="M60.65,156.2 C62.17,150.77 69.26,146.66 77.78,146.66 C86.3,146.66 93.39,150.77 94.91,156.2 L60.65,156.2 Z" id="Shape" stroke="#767573" stroke-width="2" fill="#FFFFFF" fill-rule="nonzero" stroke-linecap="round" stroke-linejoin="round"></path>
                <path d="M77.78,146 L77.78,117.82" id="Shape" stroke="#767573" fill="#FFFFFF" fill-rule="nonzero" stroke-linecap="round" stroke-linejoin="round"></path>
                <path d="M126.4,219 L126.4,206.91 C126.4,205.4354 125.2046,204.24 123.73,204.24 L112.27,204.24 C110.7954,204.24 109.6,205.4354 109.6,206.91 L109.6,219" id="Shape" stroke="#767573" stroke-width="2" stroke-linecap="round" stroke-linejoin="round"></path>
                <path d="M126.4,206.91 L126.4,180.7" id="Shape" stroke="#767573" stroke-width="2" stroke-linecap="round" stroke-linejoin="round"></path>
                <path d="M29.15,219 L29.15,206.91 C29.15,205.4354 30.3453997,204.24 31.82,204.24 L43.28,204.24 C44.7546003,204.24 45.95,205.4354 45.95,206.91 L45.95,219" id="Shape" stroke="#767573" stroke-width="2" stroke-linecap="round" stroke-linejoin="round"></path>
                <path d="M29.15,206.91 L29.15,180.7" id="Shape" stroke="#767573" stroke-width="2" stroke-linecap="round" stroke-linejoin="round"></path>
                <path d="M54.96,197.13 L54.96,219.04" id="Shape" stroke="#767573" stroke-linecap="round" stroke-linejoin="round"></path>
                <path d="M100.6,197.13 L100.6,219.04" id="Shape" stroke="#767573" stroke-linecap="round" stroke-linejoin="round"></path>
                <path d="M107.61,192 L107.61,194.49 C107.61,195.9646 106.4146,197.16 104.94,197.16 L50.62,197.16 C49.1453997,197.16 47.95,195.9646 47.95,194.49 L47.95,192 L107.61,192 Z" id="Shape" stroke="#767573" stroke-width="2" fill="#FFFFFF" fill-rule="nonzero" stroke-linecap="round" stroke-linejoin="round"></path>
                <path d="M58.11,191.96 L58.11,187.72" id="Shape" stroke="#767573" stroke-linecap="round" stroke-linejoin="round"></path>
                <path d="M55.42,180 L60.81,180 L60.81,185 C60.81,185.713432 60.5265901,186.397644 60.0221172,186.902117 C59.5176444,187.40659 58.8334324,187.69 58.12,187.69 L58.12,187.69 C57.4065676,187.69 56.7223556,187.40659 56.2178828,186.902117 C55.7134099,186.397644 55.43,185.713432 55.43,185 L55.43,180 L55.42,180 Z" id="Shape" stroke="#767573" fill="#FFFFFF" fill-rule="nonzero" stroke-linecap="round" stroke-linejoin="round"></path>
                <path d="M97.61,191.96 L97.61,187.72" id="Shape" stroke="#767573" stroke-linecap="round" stroke-linejoin="round"></path>
                <path d="M94.91,180 L100.3,180 L100.3,185 C100.3,186.485646 99.095646,187.69 97.61,187.69 L97.61,187.69 C96.124354,187.69 94.92,186.485646 94.92,185 L94.92,180 L94.91,180 Z" id="Shape" stroke="#767573" fill="#FFFFFF" fill-rule="nonzero" stroke-linecap="round" stroke-linejoin="round"></path>
                <path d="M87.73,185.51 C86.85,188.67 82.73,191.05 77.73,191.05 C72.73,191.05 68.66,188.66 67.73,185.51 L87.73,185.51 Z" id="Shape" stroke="#767573" fill="#FFFFFF" fill-rule="nonzero" stroke-linecap="round" stroke-linejoin="round"></path>
                <path d="M70.22,181.82 L75.37,185.51" id="Shape" stroke="#767573" stroke-linecap="round" stroke-linejoin="round"></path>
                <polygon id="Shape" stroke="#767573" stroke-width="2" fill="#FFFFFF" fill-rule="nonzero" stroke-linecap="round" stroke-linejoin="round" points="376.7 66.23 353.8 66.23 358.21 52.15 359.86 52.15 372.29 52.15"></polygon>
                <path d="M376.92,109.87 L376.92,83.11 C376.92,81.4531458 375.576854,80.11 373.92,80.11 L356.56,80.11 C354.903146,80.11 353.56,81.4531458 353.56,83.11 L353.56,109.87" id="Shape" stroke="#767573" stroke-width="2" stroke-linecap="round" stroke-linejoin="round"></path>
                <path d="M353.58,89 L353.58,83.06 C353.58,81.4031458 354.923146,80.06 356.58,80.06 L373.95,80.06 C375.606854,80.06 376.95,81.4031458 376.95,83.06 L376.95,89 L353.58,89 Z" id="Shape" stroke="#767573" fill="#FFFFFF" fill-rule="nonzero" stroke-linecap="round" stroke-linejoin="round"></path>
                <path d="M353.58,105.08 L376.92,105.08" id="Shape" stroke="#767573" stroke-linecap="round" stroke-linejoin="round"></path>
                <path d="M365.25,66.23 L365.25,80.09" id="Shape" stroke="#767573" stroke-linecap="round" stroke-linejoin="round"></path>
                <path d="M362.8,84.73 L367.7,84.73" id="Shape" stroke="#767573" stroke-width="2" stroke-linecap="round" stroke-linejoin="round"></path>
                <path d="M308.54,31.27 C307.155528,31.2736413 305.93682,32.18361 305.54,33.51 L305.54,43.51 L311.54,43.51 L311.54,33.51 C311.14318,32.18361 309.924472,31.2736413 308.54,31.27 Z" id="Shape" stroke="#767573" stroke-width="2" fill="#FFFFFF" fill-rule="nonzero" stroke-linecap="round" stroke-linejoin="round"></path>
                <path d="M308.54,24.74 L308.54,31.27" id="Shape" stroke="#767573" stroke-linecap="round" stroke-linejoin="round"></path>
                <path d="M270.79,31.27 C269.405528,31.2736413 268.18682,32.18361 267.79,33.51 L267.79,43.51 L273.79,43.51 L273.79,33.51 C273.39318,32.18361 272.174472,31.2736413 270.79,31.27 Z" id="Shape" stroke="#767573" stroke-width="2" fill="#FFFFFF" fill-rule="nonzero" stroke-linecap="round" stroke-linejoin="round"></path>
                <path d="M270.79,24.74 L270.79,31.27" id="Shape" stroke="#767573" stroke-linecap="round" stroke-linejoin="round"></path>
                <path d="M241,105.12 L241,83.93 C241.005495,81.8335983 242.703598,80.1354952 244.8,80.13 L333.94,80.13 C336.036402,80.1354952 337.734505,81.8335983 337.74,83.93 L337.74,105.11 L241,105.12 Z" id="Shape" stroke="#767573" stroke-width="2" fill="#FFFFFF" fill-rule="nonzero" stroke-linecap="round" stroke-linejoin="round"></path>
                <path d="M241,100.41 L241,83.93 C241.005495,81.8335983 242.703598,80.1354952 244.8,80.13 L333.94,80.13 C336.036402,80.1354952 337.734505,81.8335983 337.74,83.93 L337.74,100.41 L241,100.41 Z" id="Shape" stroke="#767573" stroke-linecap="round" stroke-linejoin="round"></path>
                <polyline id="Shape" stroke="#767573" stroke-width="2" stroke-linecap="round" stroke-linejoin="round" points="246.73 109.85 246.72 105.12 332.01 105.12 332.01 109.85"></polyline>
                <rect id="Rectangle-path" stroke="#767573" stroke-width="2" fill="#FFFFFF" fill-rule="nonzero" stroke-linecap="round" stroke-linejoin="round" x="242.27" y="56.93" width="95.97" height="18.98"></rect>
                <path d="M256.69,80 C257.99,75.37 264.03,71.87 271.29,71.87 C278.55,71.87 284.59,75.37 285.89,80 L256.69,80 Z" id="Shape" stroke="#767573" fill="#FFFFFF" fill-rule="nonzero" stroke-linecap="round" stroke-linejoin="round"></path>
                <path d="M293.95,80 C295.25,75.37 301.29,71.87 308.55,71.87 C315.81,71.87 321.85,75.37 323.15,80 L293.95,80 Z" id="Shape" stroke="#767573" fill="#FFFFFF" fill-rule="nonzero" stroke-linecap="round" stroke-linejoin="round"></path>
                <path d="M204.89,88.88 L204.89,82.94 C204.89,81.2831458 206.233146,79.94 207.89,79.94 L225.26,79.94 C226.916854,79.94 228.26,81.2831458 228.26,82.94 L228.26,88.88 L204.89,88.88 Z" id="Shape" stroke="#767573" fill="#FFFFFF" fill-rule="nonzero" stroke-linecap="round" stroke-linejoin="round"></path>
                <polygon id="Shape" stroke="#767573" stroke-width="2" fill="#FFFFFF" fill-rule="nonzero" stroke-linecap="round" stroke-linejoin="round" points="228.01 66.23 205.11 66.23 209.52 52.15 211.17 52.15 223.6 52.15"></polygon>
                <path d="M228.23,109.77 L228.23,83.11 C228.23,81.4531458 226.886854,80.11 225.23,80.11 L207.87,80.11 C206.213146,80.11 204.87,81.4531458 204.87,83.11 L204.87,109.77" id="Shape" stroke="#767573" stroke-width="2" stroke-linecap="round" stroke-linejoin="round"></path>
                <path d="M204.89,105.08 L228.23,105.08" id="Shape" stroke="#767573" stroke-linecap="round" stroke-linejoin="round"></path>
                <path d="M216.56,66.23 L216.56,80.09" id="Shape" stroke="#767573" stroke-linecap="round" stroke-linejoin="round"></path>
                <path d="M214.11,84.73 L219.01,84.73" id="Shape" stroke="#767573" stroke-width="2" stroke-linecap="round" stroke-linejoin="round"></path>
                <rect id="Rectangle-path" stroke="#767573" stroke-width="2" fill="#FFFFFF" fill-rule="nonzero" stroke-linecap="round" stroke-linejoin="round" transform="translate(563.335000, 43.500000) rotate(180.000000) translate(-563.335000, -43.500000) " x="560.74" y="34.64" width="5.19" height="17.72"></rect>
                <path d="M560.75,39.27 L565.94,39.27" id="Shape" stroke="#767573" fill="#FFFFFF" fill-rule="nonzero" stroke-linecap="round" stroke-linejoin="round"></path>
                <rect id="Rectangle-path" stroke="#767573" stroke-width="2" fill="#FFFFFF" fill-rule="nonzero" stroke-linecap="round" stroke-linejoin="round" transform="translate(612.655000, 43.500000) rotate(180.000000) translate(-612.655000, -43.500000) " x="610.06" y="34.64" width="5.19" height="17.72"></rect>
                <path d="M610.05,39.27 L615.24,39.27" id="Shape" stroke="#767573" fill="#FFFFFF" fill-rule="nonzero" stroke-linecap="round" stroke-linejoin="round"></path>
                <rect id="Rectangle-path" stroke="#767573" stroke-width="2" fill="#FFFFFF" fill-rule="nonzero" stroke-linecap="round" stroke-linejoin="round" x="566.21" y="74.38" width="43.21" height="30.45"></rect>
                <path d="M587.82,74.38 L587.82,64.19" id="Shape" stroke="#767573" stroke-width="2" stroke-linecap="round" stroke-linejoin="round"></path>
                <polyline id="Shape" stroke="#767573" stroke-width="2" stroke-linecap="round" stroke-linejoin="round" points="591.88 74.38 591.88 70.75 594.12 70.75"></polyline>
                <polyline id="Shape" stroke="#767573" stroke-width="2" stroke-linecap="round" stroke-linejoin="round" points="583.73 74.38 583.73 70.75 581.5 70.75"></polyline>
                <path d="M566.21,82.28 L609.43,82.28" id="Shape" stroke="#767573" fill="#FFFFFF" fill-rule="nonzero" stroke-linecap="round" stroke-linejoin="round"></path>
                <path d="M587.89,82.28 L587.89,104.82" id="Shape" stroke="#767573" fill="#FFFFFF" fill-rule="nonzero" stroke-linecap="round" stroke-linejoin="round"></path>
                <path d="M566.21,109.31 L566.21,104.82" id="Shape" stroke="#767573" stroke-width="2" fill="#FFFFFF" fill-rule="nonzero" stroke-linecap="round" stroke-linejoin="round"></path>
                <path d="M609.43,109.31 L609.43,104.82" id="Shape" stroke="#767573" stroke-width="2" fill="#FFFFFF" fill-rule="nonzero" stroke-linecap="round" stroke-linejoin="round"></path>
                <path d="M629.76,188.81 L629.76,177.65 L535.84,177.65 L535.84,188.78 L527.42,188.78 L527.42,210.57 C527.425489,212.301895 528.828105,213.704511 530.56,213.71 L635,213.71 C636.731895,213.704511 638.134511,212.301895 638.14,210.57 L638.14,188.78 L629.72,188.78 L629.76,188.81 Z" id="Shape" stroke="#767573" stroke-width="2" fill="#FFFFFF" fill-rule="nonzero" stroke-linecap="round" stroke-linejoin="round"></path>
                <path d="M582.8,203 L582.8,198.35 L629.8,198.35 L629.8,203 C629.800009,204.730276 628.400268,206.13449 626.67,206.14 L585.97,206.14 C585.132034,206.148006 584.325635,205.820724 583.730266,205.23099 C583.134897,204.641255 582.799962,203.838004 582.8,203 Z" id="Shape" stroke="#767573" fill="#FFFFFF" fill-rule="nonzero" stroke-linecap="round" stroke-linejoin="round"></path>
                <path d="M535.84,203 L535.84,198.35 L582.84,198.35 L582.84,203 C582.840009,204.730276 581.440268,206.13449 579.71,206.14 L539,206.14 C538.16376,206.145326 537.359941,205.816859 536.766744,205.227416 C536.173548,204.637974 535.839983,203.836257 535.84,203 Z" id="Shape" stroke="#767573" fill="#FFFFFF" fill-rule="nonzero" stroke-linecap="round" stroke-linejoin="round"></path>
                <polyline id="Shape" stroke="#767573" stroke-width="2" stroke-linecap="round" stroke-linejoin="round" points="535.84 219.04 535.84 213.71 629.76 213.71 629.76 219.04"></polyline>
                <rect id="Rectangle-path" fill="#FFFFFF" fill-rule="nonzero" x="656.09" y="196.63" width="9.24" height="22.41"></rect>
                <rect id="Rectangle-path" stroke="#767573" stroke-width="2" stroke-linecap="round" stroke-linejoin="round" x="656.09" y="196.63" width="9.24" height="22.41"></rect>
                <path d="M631.22,148.78 C638.435412,144.750761 647.245262,144.845047 654.372786,149.027789 C661.50031,153.210532 665.878912,160.855804 665.88,169.12 L665.88,196.62" id="Shape" stroke="#767573" stroke-linecap="round" stroke-linejoin="round"></path>
                <path d="M637.93,156.27 C636.3,150.44 628.68,146.03 619.54,146.03 C610.4,146.03 602.78,150.44 601.15,156.27 L637.93,156.27 Z" id="Shape" stroke="#767573" stroke-width="2" fill="#FFFFFF" fill-rule="nonzero" stroke-linecap="round" stroke-linejoin="round"></path>
            </g>
            <g id="CAR" transform="translate(394.000000, 537.000000)" stroke="#757472" stroke-linecap="round" stroke-linejoin="round">
                <path d="M79.05,1.33226424e-15 L27.53,1.33226424e-15 C25.8704092,0.000817662439 24.3193708,0.825040991 23.39,2.2 L13.19,16.8 C12.3,18.07 10.34,18.7 9,19.3 C7.2,20.1 5.31,20.7 4.2,22.44 C3.48922554,23.6593937 2.89973819,24.945548 2.44,26.28 C2.01528785,27.3762185 1.66122965,28.4985162 1.38,29.64 C0.849665966,31.8706456 0.591121241,34.1572554 0.61,36.45 C0.742958324,40.7163073 1.20769442,44.9658007 2,49.16 C2.13265826,49.9846561 2.8447424,50.5907753 3.68,50.59 L139.68,50.59 C140.554218,50.5909272 141.327735,50.0239516 141.59,49.19 C142.23,47.19 141.98,44.05 142,36.43 C142,25.99 129.42,22.49 123.09,21.24 C118.62,20.36 106.72,20.09 106.72,20.09 L86.85,2.87 C84.6748809,1.01474461 81.9088645,-0.00300758391 79.05,1.33226424e-15 Z" id="Shape" stroke-width="2" fill="#FFFFFF" fill-rule="nonzero"></path>
                <polygon id="Shape" points="18.19 20.39 52.34 20.63 52.34 5.91 27.99 5.9"></polygon>
                <polygon id="Shape" points="107.38 20.63 59.88 20.63 59.88 5.91 90.38 5.9"></polygon>
                <path d="M66.23,27.74 L72.73,27.74" id="Shape"></path>
                <circle id="Oval" stroke-width="2" fill="#FFFFFF" fill-rule="nonzero" cx="123.24" cy="46.93" r="13"></circle>
                <circle id="Oval" fill="#FFFFFF" fill-rule="nonzero" cx="123.24" cy="46.93" r="7.58"></circle>
                <circle id="Oval" stroke-width="2" fill="#FFFFFF" fill-rule="nonzero" cx="20.38" cy="46.93" r="13"></circle>
                <circle id="Oval" fill="#FFFFFF" fill-rule="nonzero" cx="20.38" cy="46.93" r="7.58"></circle>
                <path d="M59.88,26.53 L59.88,50.41" id="Shape" stroke-width="2"></path>
            </g>
            <g id="TRUCK" transform="translate(33.000000, 496.000000)">
                <path d="M178,46.52 L157.16,36.61 L150,14.61 C147.323046,6.37260489 139.661387,0.783626468 131,0.75 L104,0.74 L104,86.24 L181.39,86.24 C182.195546,86.2400049 182.964275,85.9026394 183.509634,85.3097756 C184.054993,84.7169118 184.327129,83.9227436 184.26,83.12 L180.08,49.72 C180.003356,48.3598988 179.211859,47.1422109 178,46.52 L178,46.52 Z" id="Shape" stroke="#767573" stroke-width="2" fill="#FFFFFF" fill-rule="nonzero" stroke-linecap="round" stroke-linejoin="round"></path>
                <path d="M104,86.24 L3.95,86.24 C1.82922656,86.24 0.11,84.5207734 0.11,82.4 L0.11,4.59 C0.11,2.46922656 1.82922656,0.75 3.95,0.75 L104,0.75 L104,86.24 Z" id="Shape" stroke="#767573" stroke-width="2" fill="#FFFFFF" fill-rule="nonzero" stroke-linecap="round" stroke-linejoin="round"></path>
                <path d="M157.13,36.61 L123.77,36.61 C121.649227,36.61 119.93,34.8907734 119.93,32.77 L119.93,16.86 C119.93,14.7392266 121.649227,13.02 123.77,13.02 L149.35,13.02" id="Shape" stroke="#767573" stroke-linecap="round" stroke-linejoin="round"></path>
                <circle id="Oval" stroke="#757472" stroke-width="2" fill="#FFFFFF" fill-rule="nonzero" stroke-linecap="round" stroke-linejoin="round" cx="25.32" cy="86.24" r="15.25"></circle>
                <path d="M25.32,95.72 C20.0843406,95.72 15.84,91.4756594 15.84,86.24 C15.84,81.0043406 20.0843406,76.76 25.32,76.76 C30.5556594,76.76 34.8,81.0043406 34.8,86.24 C34.7944883,91.4733747 30.5533747,95.7144883 25.32,95.72 L25.32,95.72 Z" id="Shape" stroke="#757472" stroke-linecap="round" stroke-linejoin="round"></path>
                <path d="M104.04,52.73 L0.1,52.73" id="Shape" stroke="#767573" stroke-linecap="round" stroke-linejoin="round"></path>
                <circle id="Oval" stroke="#757472" stroke-width="2" fill="#FFFFFF" fill-rule="nonzero" stroke-linecap="round" stroke-linejoin="round" cx="129.35" cy="86.24" r="15.25"></circle>
                <path d="M129.35,95.72 C124.114341,95.72 119.87,91.4756594 119.87,86.24 C119.87,81.0043406 124.114341,76.76 129.35,76.76 C134.585659,76.76 138.83,81.0043406 138.83,86.24 C138.824488,91.4733747 134.583375,95.7144883 129.35,95.72 L129.35,95.72 Z" id="Shape" stroke="#757472" stroke-linecap="round" stroke-linejoin="round"></path>
                <path d="M78.54,36.61 L77.28,36.61 C77.2969193,29.9465773 74.6380888,23.5552965 69.9,18.87 C60.0302546,9.08672112 44.1197454,9.08672112 34.25,18.87 C29.5119112,23.5552965 26.8530807,29.9465773 26.87,36.61 L25.6,36.61 C25.6,21.9910227 37.4510227,10.14 52.07,10.14 C66.6889773,10.14 78.54,21.9910227 78.54,36.61 L78.54,36.61 Z" id="Shape" fill="#757472" fill-rule="nonzero"></path>
                <path d="M43.83,19.28 C43.83,17.2862521 45.4462521,15.67 47.44,15.67 C49.4337479,15.67 51.05,17.2862521 51.05,19.28 C51.05,21.2737479 49.4337479,22.89 47.44,22.89 C45.4462521,22.89 43.83,21.2737479 43.83,19.28 L43.83,19.28 Z M47.44,21.6 C48.7213006,21.6 49.76,20.5613006 49.76,19.28 C49.76,17.9986994 48.7213006,16.96 47.44,16.96 C46.1586994,16.96 45.12,17.9986994 45.12,19.28 C45.12,20.5613006 46.1586994,21.6 47.44,21.6 Z" id="Shape" fill="#757472" fill-rule="nonzero"></path>
                <path d="M56.71,22.89 C54.7162521,22.89 53.1,21.2737479 53.1,19.28 C53.1,17.2862521 54.7162521,15.67 56.71,15.67 C58.7037479,15.67 60.32,17.2862521 60.32,19.28 C60.32,21.2737479 58.7037479,22.89 56.71,22.89 L56.71,22.89 Z M59.03,19.28 C59.03,17.9986994 57.9913006,16.96 56.71,16.96 C55.4286994,16.96 54.39,17.9986994 54.39,19.28 C54.39,20.5613006 55.4286994,21.6 56.71,21.6 C57.9795696,21.5835818 59.0001062,20.5496757 59,19.28 L59.03,19.28 Z" id="Shape" fill="#757472" fill-rule="nonzero"></path>
                <polygon id="Shape" fill="#757472" fill-rule="nonzero" points="41.11 27.37 38.2 24.38 43.89 24.7 44.31 24.29 39.55 19.39 38.62 20.28 41.52 23.27 35.84 22.96 35.42 23.36 40.18 28.27"></polygon>
                <polygon id="Shape" fill="#757472" fill-rule="nonzero" points="60.75 25.1 63.69 22.14 63.47 27.84 63.88 28.25 68.7 23.4 67.79 22.49 64.85 25.44 65.07 19.75 64.66 19.34 59.83 24.19"></polygon>
                <path d="M116.6,52.73 L110.73,52.73" id="Shape" stroke="#757472" stroke-linecap="round" stroke-linejoin="round"></path>
                <polyline id="Shape" stroke="#757472" stroke-width="2" stroke-linecap="round" stroke-linejoin="round" points="183.75 78.68 170.86 78.68 162.39 52.73 180.51 52.73"></polyline>
                <path d="M163.57,56.43 L180.96,56.43" id="Shape" stroke="#757472" stroke-linecap="round" stroke-linejoin="round"></path>
                <path d="M166.01,63.83 L181.9,63.83" id="Shape" stroke="#757472" stroke-linecap="round" stroke-linejoin="round"></path>
                <path d="M169.64,74.93 L183.28,74.93" id="Shape" stroke="#757472" stroke-linecap="round" stroke-linejoin="round"></path>
                <path d="M168.52,71.23 L182.82,71.23" id="Shape" stroke="#757472" stroke-linecap="round" stroke-linejoin="round"></path>
                <path d="M167.22,67.53 L182.36,67.53" id="Shape" stroke="#757472" stroke-linecap="round" stroke-linejoin="round"></path>
                <path d="M164.81,60.13 L181.43,60.13" id="Shape" stroke="#757472" stroke-linecap="round" stroke-linejoin="round"></path>
            </g>
            <g id="PEOPLE_ANIMALS" transform="translate(240.000000, 411.000000)">
                <path d="M191,29 L191.27,33.63 C192.402491,35.5365779 193.744119,37.3108816 195.27,38.92 C195.72,39.37 196.64,37.7 196.35,37.34 C195.44,36.14 191,29 191,29 Z" id="Shape" fill="#FFFFFF" fill-rule="nonzero"></path>
                <path d="M187.76,16 C188.639812,16.1968021 189.561484,15.9874981 190.27,15.43 C190.191569,14.8057874 190.191569,14.1742126 190.27,13.55 C190.59,12.55 191.77,12.49 192.27,12.21 C192.77,11.93 192.57,11.14 192.8,10.21 C192.93,9.71 193.47,9.43 193.47,8.88 C193.365494,8.0731865 193.205109,7.27460044 192.99,6.49 C192.896893,6.01740665 192.830123,5.54000378 192.79,5.06 C192.41,5.06 191.79,4.82 191.55,5.56 C191.28645,6.42010626 190.895437,7.23583942 190.39,7.98 C189.8,8.14 189.23,6.91 188.56,7.19 C187.89,7.47 188.28,8.25 188.36,9.29 C188.44,10.33 187.46,10.46 186.43,11.2 C186.34,11.26 186.17,11.35 186.07,11.3 L185.61,14.81 C186.184052,15.422432 186.936224,15.8387506 187.76,16 Z" id="Shape" fill="#FFFFFF" fill-rule="nonzero"></path>
                <path d="M192.94,20.85 C193.16,19.36 193.11,17.19 192.07,15.96 C191.588916,15.7237879 191.077366,15.5555148 190.55,15.46 C189.785001,16.1122695 188.772951,16.3972512 187.78,16.24 C186.840704,15.985715 185.983005,15.4931412 185.29,14.81 C182.66,15.36 180.15,16.17 179.93,18.45 C179.75,20.29 180.33,34.39 180.33,34.39 L192.02,34.29 C192.02,34.29 191.44,28.94 191.39,25.77 C191.34,23.31 192.72,22.35 192.94,20.85 Z" id="Shape" fill="#757472" fill-rule="nonzero"></path>
                <path d="M813,60.71 C806.08,60.96 794.33,60.25 787.42,57.19 C779.95,53.88 773.62,46.1 771.29,42.58" id="Shape" stroke="#767573" stroke-linecap="round" stroke-linejoin="round"></path>
                <path d="M778.86,62.76 C780.516293,65.2143592 783.110786,66.8777248 786.032458,67.3583627 C788.954131,67.8390005 791.944749,67.0944291 794.3,65.3" id="Shape" stroke="#FFFFFF" stroke-linecap="round" stroke-linejoin="round"></path>
                <path d="M826.37,57.16 L824.08,56.88 C823.661976,56.7780615 823.325764,56.4682935 823.19,56.06 C822.500638,54.4086269 820.917895,53.305385 819.13,53.23 C817.851901,53.0834696 816.567152,53.4423381 815.55,54.23 C814.572187,55.1850037 813.820485,56.3467248 813.35,57.63 C812.641251,59.3188419 811.447598,60.7595768 809.92,61.77 C808.806088,62.4875909 807.504893,62.859858 806.18,62.84 C803.37,62.84 796.37,62.19 793.59,64.62 C790.81,67.05 791.28,71.36 791.28,71.36 L792.5,83.49 C792.535426,83.8120875 792.805985,84.0568794 793.13,84.06 L798.13,84.06 C798.82,84.06 795.81,81.31 795.97,80.81 L797.75,71.61 C797.796644,71.4646426 797.902633,71.3458193 798.041738,71.2829363 C798.180843,71.2200533 798.340065,71.2189865 798.48,71.28 C800.48,72.09 802.99,75.52 805.17,75.52 C807.319717,75.3331124 809.436808,74.8727291 811.47,74.15 C811.626447,74.1008359 811.796758,74.1254281 811.932906,74.2168418 C812.069054,74.3082554 812.156285,74.4565845 812.17,74.62 L812.95,83.49 C812.980681,83.8160424 813.252538,84.0663234 813.58,84.07 L818.29,84.07 C819.06,84.07 816.29,81.26 816.37,80.63 L819.58,64.41 C819.857882,63.4442358 820.539694,62.6457495 821.45,62.22 C822.63,61.52 824.86,62.16 824.86,62.16 C826.9,61.32 828.17,57.4 826.37,57.16 Z" id="Shape" fill="#FFFFFF" fill-rule="nonzero"></path>
                <path d="M818.09,53.25 C819.82,53.08 818.87,57.03 817.72,59.53 C816.57,62.03 813.58,62.95 812.42,62.42 C811.26,61.89 812.42,61.06 813.17,58.42 C813.92,55.78 813.9,53.67 818.09,53.25 Z" id="Shape" fill="#757472" fill-rule="nonzero"></path>
                <circle id="Oval" fill="#757472" fill-rule="nonzero" cx="821.92" cy="56.75" r="1"></circle>
                <path d="M193.42,58.76 L191.55,34 L180.13,32.58 C180.13,32.66 178.45,39.09 178.46,41.87 C178.672158,46.6133355 179.223567,51.3354015 180.11,56 C180.163716,56.293746 180.14309,56.5962635 180.05,56.88 L175.37,71.4 C175.37,71.4 176.76,72.17 177.78,72.81 L184.89,57.19 C185.048988,56.8427179 185.117778,56.4609336 185.09,56.08 L185.69,46.76 C185.70947,46.6791283 185.781818,46.6221307 185.865,46.6221307 C185.948182,46.6221307 186.02053,46.6791283 186.04,46.76 L188.19,58.63 C188.35,59.5 186.52,73.16 186.52,73.16 C187.428141,73.1288634 188.337339,73.1656325 189.24,73.27 L193.38,59.54 C193.469895,59.2896203 193.483811,59.018262 193.42,58.76 L193.42,58.76 Z" id="Shape" fill="#757472" fill-rule="nonzero"></path>
                <path d="M183.29,19.46 C183.07,20.58 181.56,27.27 181.14,29.11 C181.072543,29.407809 181.134306,29.7202559 181.31,29.97 C182.44,31.57 186.43,37.45 187.08,38.45 C187.42,38.98 186.31,40.45 185.77,39.91 C184.49,38.54 179.13,32.01 177.88,30.37 C177.689369,30.1192474 177.613141,29.7998127 177.67,29.49 C178.05,27.39 179.41,19.8 179.54,19.19 C180.62,14.3 184.07,15.52 183.29,19.46 Z" id="Shape" fill="#FFFFFF" fill-rule="nonzero"></path>
                <path d="M763.88,80.84 L764.45,65.84 C764.45058,65.6057542 764.433868,65.3717852 764.4,65.14 L761.09,45.14 L751.17,42.97 C749.882176,44.9525296 748.897965,47.1164443 748.25,49.39 C747.6,52.7 747.75,62.29 747.71,64.49 C747.705031,64.8038934 747.626239,65.1122089 747.48,65.39 L740.37,78.8 C740.37,78.8 741.11,79.25 742.25,80.05 L752.16,67.31 C752.362905,67.0043531 752.51174,66.6660909 752.6,66.31 C753.1,64.21 754.74,55.48 755.29,52.59 C755.29,52.4684974 755.388497,52.37 755.51,52.37 C755.631503,52.37 755.73,52.4684974 755.73,52.59 L759.39,65.81 L759.5,66.33 L761.5,80.79 C762.293373,80.7418992 763.089348,80.7586214 763.88,80.84 L763.88,80.84 Z" id="Shape" fill="#757472" fill-rule="nonzero"></path>
                <path d="M756.88,20.75 L760.13,21.67 C760.45,21.36 760.03,19.26 763.01,19.5 C763.67,19.55 763.94,17.75 764.01,17.34 C764.06,16.78 764.78,16.55 764.74,15.94 C764.66,14.82 763.83,12.64 763.66,11.23 C762.452775,11.743857 761.200832,12.1455501 759.92,12.43 C759.2,12.65 758.82,12.13 758.13,12.43 C757.44,12.73 757.07,12.72 756.46,13.01 C755.85,13.3 755.65,15.53 756.04,16.55 C756.26,17.11 756.04,16.72 756.54,18.82 L756.88,20.75 Z" id="Shape" fill="#FFFFFF" fill-rule="nonzero"></path>
                <path d="M774.25,43.13 C771.83,41.3 768.63,38.13 767.63,37.42 C767.411909,37.2757259 767.222107,37.0927023 767.07,36.88 C766.62,36.22 765.99,34.37 764.81,32.6 C763.784709,31.0636751 763.16859,29.2910421 763.02,27.45 C762.86,25.45 762.51,23.84 761.65,23 C761.385738,22.781609 761.088778,22.6061324 760.77,22.48 C759.495459,21.9738757 758.185216,21.5627533 756.85,21.25 C755.715727,21.5800185 754.665437,22.1494941 753.77,22.92 L747.09,26.81 C746.911041,26.916064 746.760149,27.0635264 746.65,27.24 L739.77,39.64 C739.36,40.29 740.52,40.89 740.52,40.89 C741.09,41.17 741.77,40.16 742.15,39.64 L748.35,30.64 C748.560776,30.341513 748.887441,30.1455142 749.25,30.1 L750.6,29.42 C750.761419,29.4022991 750.921839,29.4610218 751.033682,29.5787517 C751.145526,29.6964816 751.19595,29.8597007 751.17,30.02 C750.37,35.28 750.17,43.55 750.17,43.55 L761.63,45.84 L760.63,33.95 C760.642335,33.858027 760.708732,33.7824763 760.798359,33.75843 C760.887986,33.7343838 760.983284,33.7665531 761.04,33.84 C761.82,34.92 764.16,38.84 764.5,39.22 C764.739092,39.5160681 765.026466,39.7696333 765.35,39.97 C766.81,40.88 771.86,43.97 772.95,44.81 C774.04,45.65 774.54,43.34 774.25,43.13 Z" id="Shape" fill="#E8E8E8" fill-rule="nonzero"></path>
                <path d="M756.5,18.86 C756.653781,18.1781382 756.626198,17.4678821 756.42,16.8 C756.03,15.8 756.28,14.14 757.09,13.72 C757.9,13.3 758.52,15.72 759.3,15.39 C760.08,15.06 759.17,12.67 759.88,12.44 C761.160832,12.1555501 762.412775,11.753857 763.62,11.24 C763.693736,11.1991964 763.763975,11.1523705 763.83,11.1 C764.401682,10.6110792 764.669834,9.85477882 764.533819,9.1149386 C764.397804,8.37509838 763.878194,7.76362322 763.17,7.51 C760.34,6.08 757.95,8 756.77,9.41 C755.59,10.82 753.69,10.62 754.08,13.1" id="Shape" fill="#757472" fill-rule="nonzero"></path>
                <path d="M740.77,79.23 L742.59,80.44 C742.66304,80.489564 742.724454,80.5543893 742.77,80.63 L744.2,82.93 C744.293005,83.0795977 744.446139,83.181687 744.62,83.21 L746.16,83.48 L746.16,84 L742.68,84 C742.563668,84.0020859 742.449166,83.970858 742.35,83.91 L740.06,82.47 L739.84,82.53 C739.261127,82.2410267 738.706057,81.9066474 738.18,81.53 C738.25,81.53 739.36,80.07 739.94,79.33 C740.146742,79.0825186 740.510393,79.0387053 740.77,79.23 L740.77,79.23 Z" id="Shape" fill="#FFFFFF" fill-rule="nonzero"></path>
                <path d="M761.5,81.48 L761.67,83.7 C761.684977,83.9071689 761.852512,84.0704085 762.06,84.08 L763.82,84.13 C763.91,84.13 764.32,83.76 764.32,83.76 L767.9,84.04 L769.9,84.04 L769.9,83.38 L767.57,82.98 C767.520676,82.9720036 767.47323,82.9550585 767.43,82.93 L764.67,81.23 C764.612564,81.194681 764.547303,81.1740725 764.48,81.17 L761.92,81.04 C761.804132,81.0368591 761.692348,81.0829096 761.612314,81.1667544 C761.53228,81.2505992 761.491476,81.3644029 761.5,81.48 L761.5,81.48 Z" id="Shape" fill="#FFFFFF" fill-rule="nonzero"></path>
                <path d="M175.73,71.9 L177.29,72.9 C177.354431,72.9409423 177.409058,72.9955687 177.45,73.06 L178.68,75.06 C178.759441,75.1884951 178.890835,75.2760911 179.04,75.3 L180.36,75.53 L180.36,76 L177.36,76 C177.260952,76.0005447 177.163809,75.9727895 177.08,75.92 L175.08,74.69 L174.89,74.74 C174.394731,74.4912232 173.919917,74.2036597 173.47,73.88 C173.53,73.88 174.47,72.63 174.98,71.99 C175.065148,71.8752552 175.193761,71.8006036 175.33563,71.7835794 C175.477498,71.7665551 175.620121,71.8086584 175.73,71.9 L175.73,71.9 Z" id="Shape" fill="#FFFFFF" fill-rule="nonzero"></path>
                <path d="M186.27,73.8 L186.41,75.68 C186.420311,75.856132 186.563634,75.9951123 186.74,76 L188.23,76 C188.31,76 188.65,75.68 188.65,75.68 L191.65,75.92 L193.35,75.92 L193.35,75.37 L191.35,75.03 L191.23,75.03 L189,73.58 C188.951504,73.550619 188.896596,73.5334602 188.84,73.53 L186.68,73.42 C186.571849,73.4005972 186.460865,73.4331085 186.380277,73.5077992 C186.29969,73.5824899 186.258855,73.6906894 186.27,73.8 L186.27,73.8 Z" id="Shape" fill="#FFFFFF" fill-rule="nonzero"></path>
                <path d="M192.5,3.53 C191.750843,2.85361037 190.788497,2.46088822 189.78,2.42 C187.78,2.42 186.78,4.07 186.3,3.79 C185.82,3.51 186.42,2.04 185.37,1.3 C184.33233,0.582940968 182.917915,0.783135151 182.12,1.76 C181.748621,2.23256711 181.584724,2.83552165 181.665763,3.43106706 C181.746802,4.02661247 182.065853,4.56384936 182.55,4.92 C183.43,5.47 184.55,4.74 184.85,5.07 C185.15,5.4 184.19,7.07 184.53,8.47 C184.74,9.39 185.36,11.35 186.07,11.47 C186.61,11.58 188.71,10.32 188.62,9.27 C188.53,8.22 187.91,7.45 188.62,7.18 C189.33,6.91 189.82,8.18 190.43,8.18 C190.81,8.18 191.29,6.49 191.61,5.58 C191.86,4.85 192.48,5.06 192.85,5.08 C192.924923,5.10312085 193.005077,5.10312085 193.08,5.08 C193.34,4.84 193.22,4.27 192.5,3.53 Z" id="Shape" fill="#757472" fill-rule="nonzero"></path>
                <path d="M19.35,145.87 C19.15,142.73 18.14,136.13 18.14,136.13 L8.38,135.33 C6.69,139.95 5.73,142.94 6.52,148.67 C6.87,151.23 7.6,162.67 7.64,164.45 L7.21,183.45 C8.04208102,183.445741 8.87364063,183.492495 9.7,183.59 L12.31,164.65 L13.31,150.08 C13.3281268,150.009203 13.3919196,149.959686 13.465,149.959686 C13.5380804,149.959686 13.6018732,150.009203 13.62,150.08 L15.14,164.66 L15.39,183.35 C15.39,183.35 16.73,183.44 17.81,183.58 C17.93,181.58 18.16,179.69 18.27,177.69 C18.51,173.29 19.59,164.46 19.59,164.46 C19.59,164.46 19.76,152.12 19.35,145.87 Z" id="Shape" fill="#757472" fill-rule="nonzero"></path>
                <path d="M14.71,121.61 C15.6189494,121.601455 16.5015742,121.303744 17.23,120.76 C17.4483905,120.077205 17.6286685,119.382801 17.77,118.68 C18.023197,117.327902 18.3571279,115.992179 18.77,114.68 C19.0331718,113.584269 19.1905602,112.465807 19.24,111.34 C19.24,110.97 18.93,110.55 18.62,110.74 C17.8679899,111.276289 16.9957774,111.61968 16.08,111.74 C15.3020168,111.710999 14.5430874,111.491219 13.87,111.1 C13.5110338,111.018982 13.1487469,111.22169 13.03,111.57 C12.7484405,112.63564 12.6503726,113.741441 12.74,114.84 C12.9110502,115.956822 12.9110502,117.093178 12.74,118.21 C12.601604,118.995372 12.5446355,119.792931 12.57,120.59 C13.0470127,121.291252 13.8648702,121.681072 14.71,121.61 L14.71,121.61 Z" id="Shape" fill="#FFFFFF" fill-rule="nonzero"></path>
                <path d="M20.82,121 C20.44,120.38 17.98,120.33 17.98,120.33 C17.9127799,120.473757 17.8324394,120.611005 17.74,120.74 C16.9687178,121.772884 15.677082,122.277126 14.41,122.04 C13.3970049,121.854188 12.5023835,121.266191 11.93,120.41 C11.6995144,120.116558 11.4922216,119.805618 11.31,119.48 C11.31,119.48 8.44,118.48 7.75,119.11 C6.24,120.39 1.59,128.39 0.64,130.46 C0.55,130.67 0.5,130.76 0.64,130.91 C1.81,132.4 7.24,140.48 8.86,142 C9.3,142.41 10.21,141.16 10,140.8 C9.09,139.24 5.63,132.39 4.77,130.7 C4.71,130.59 4.71,130.57 4.77,130.48 L7.38,126.36 C7.43064186,126.288803 7.52007577,126.256399 7.60456986,126.278635 C7.68906396,126.30087 7.75096329,126.373098 7.76,126.46 L7.84,135.33 L18.68,136.22 L18.53,128.53 C18.53,128.53 18.53,127.68 18.84,127.71 C19.15,127.74 19.09,133.83 19.08,133.97 C19.01,135.27 19.25,143.55 19,146.29 C18.94,146.93 20.51,147.1 20.61,146.71 C21.33,144.05 22.02,133.6 22.02,133.6 C22.08,132.75 22,122.94 20.82,121 Z" id="Shape" fill="#E8E8E8" fill-rule="nonzero"></path>
                <path d="M21.06,115.33 C20.72,113.38 21.55,106.82 15.64,106.82 C10.74,106.82 10.84,112.35 9.31,114.53 C8.22711707,116.276197 7.64268079,118.285413 7.62,120.34 C7.73,121.44 8.37,122.59 8.86,122.69 C9.62,122.85 10.48,122.19 10.96,121.92 C11.96,121.39 12.5,119.51 12.78,118.19 C12.9510502,117.073178 12.9510502,115.936822 12.78,114.82 C12.6952455,113.684793 12.873181,112.545322 13.3,111.49 C13.42,111.16 13.64,111.16 13.92,111.3 C14.6141192,111.598143 15.3648645,111.741467 16.12,111.72 C17.0377801,111.664624 17.9275787,111.382912 18.71,110.9 C19.02,110.7 19.1,110.9 19.1,111.26 C19.1112505,112.396647 19.0141448,113.531779 18.81,114.65 C18.5,115.89 16.5,120.79 18.29,122.19 C18.43,122.3 19.6,123.31 19.97,123.31 C20.67,123.31 21.25,122.4 21.66,121.59 C22.51,119.94 21.28,116.56 21.06,115.33 Z" id="Shape" fill="#757472" fill-rule="nonzero"></path>
                <path d="M7.21,183.91 L7.32,185.32 C7.33009769,185.451972 7.43772625,185.555295 7.57,185.56 L8.69,185.56 C8.75,185.56 9.01,185.32 9.01,185.32 L11.28,185.5 L12.56,185.5 L12.56,185.08 L11.08,184.82 L10.99,184.82 L9.24,183.74 C9.20054721,183.730643 9.15945279,183.730643 9.12,183.74 L7.5,183.66 C7.42772293,183.651567 7.35521956,183.673809 7.30010483,183.721322 C7.24499011,183.768834 7.21230846,183.837269 7.21,183.91 L7.21,183.91 Z" id="Shape" fill="#FFFFFF" fill-rule="nonzero"></path>
                <path d="M15.48,183.91 L15.59,185.32 C15.6000977,185.451972 15.7077263,185.555295 15.84,185.56 L16.96,185.56 C17.02,185.56 17.28,185.32 17.28,185.32 L19.55,185.5 L20.83,185.5 L20.83,185.08 L19.35,184.82 L19.26,184.82 L17.51,183.74 C17.4705472,183.730643 17.4294528,183.730643 17.39,183.74 L15.77,183.66 C15.6977229,183.651567 15.6252196,183.673809 15.5701048,183.721322 C15.5149901,183.768834 15.4823085,183.837269 15.48,183.91 Z" id="Shape" fill="#FFFFFF" fill-rule="nonzero"></path>
                <path d="M218.83,73.35 L220.89,72.23 C221.801715,71.7368999 222.422475,70.8373555 222.56,69.81 L223.25,64.65 C223.318213,64.1350441 223.510379,63.6443347 223.81,63.22 L223.81,63.22 C224.32463,62.4962522 225.173066,62.085232 226.06,62.13 L227.42,62.2" id="Shape" stroke="#757472" stroke-linecap="round" stroke-linejoin="round"></path>
                <path d="M219.37,63.21 C218.59,62.86 217.03,62.63 216.6,62.34 C216.41,62.21 216.4,62.23 216.6,62.06 C217.618732,61.3138862 218.249816,60.1507831 218.32,58.89 C218.264904,58.135607 218.120563,57.3904063 217.89,56.67 C217.882432,55.7681159 217.959435,54.8675084 218.12,53.98 C218.17,53.52 217.96,53.55 217.7,53.76 C217.19,54.17 216,55.55 215.38,55.76 C215.06,55.84 214.91,55.76 214.25,55.76 C213.81,55.76 213.43,55.92 213.16,55.76 C212.398077,55.2828367 211.678743,54.7408269 211.01,54.14 C210.72,53.86 210.57,53.94 210.59,54.3 C210.59,55.13 210.93,56.38 210.95,57.07 C210.74878,57.8213196 210.605032,58.5868635 210.52,59.36 C210.627606,60.4834841 211.25728,61.4909625 212.22,62.08 C212.38,62.22 212.43,62.26 212.22,62.43 C212.01,62.6 210.51,62.99 209.74,63.3 C209.469623,63.4172264 209.264719,63.6477437 209.18,63.93 C208.902248,64.8776062 208.734477,65.8540304 208.68,66.84 C208.62,67.71 208.62,69.38 208.63,70.2 C208.630648,70.5142691 208.650686,70.8281989 208.69,71.14 L209.36,76.35 L219.51,76.35 L220.3,71.07 C220.379749,70.5339322 220.406545,69.9913169 220.38,69.45 C220.32,68.11 220.19,65.45 220.1,64.45 C220,63.56 219.78,63.39 219.37,63.21 Z" id="Shape" fill="#757472" fill-rule="nonzero"></path>
                <circle id="Oval" fill="#FFFFFF" fill-rule="nonzero" cx="213.21" cy="58.66" r="1"></circle>
                <circle id="Oval" fill="#FFFFFF" fill-rule="nonzero" cx="215.57" cy="58.66" r="1"></circle>
                <path d="M42.3,117.95 C43.3932239,117.866507 44.3931187,117.302464 45.03,116.41 C45.03,116.41 45.27,113.73 45.26,113.73 C45.0421347,112.580279 44.9749029,111.407083 45.06,110.24 C45.2,109.72 45.39,108.57 44.59,108.41 C44.08,108.31 43.85,109.48 43.36,109.41 C43.13,109.41 43.04,108.96 43,108.79 C42.9583804,108.448932 42.8348675,108.122995 42.64,107.84 C42.2781508,107.568923 41.8418652,107.41535 41.39,107.4 C40.9678588,107.355071 40.5421412,107.355071 40.12,107.4 C39.73,107.4 39.03,107.58 38.43,107.6 C38.0980553,108.575673 37.8570294,109.579947 37.71,110.6 C37.71,111.19 38.36,111.41 38.42,111.96 C38.48,112.51 38.31,113.96 38.82,114.3 C39.33,114.64 40.49,114.71 40.62,115.08 C40.7115821,115.536507 40.6295685,116.01076 40.39,116.41 C40.6321143,117.278777 41.3996391,117.897619 42.3,117.95 Z" id="Shape" fill="#FFFFFF" fill-rule="nonzero"></path>
                <path d="M46,106.42 C45.22,105.22 43.26,104.59 41,104.59 C38.15,104.59 36.38,105.82 37.33,107.3 C37.49,107.55 37.9,107.6 38.33,107.58 C38.76,107.56 39.62,107.42 40.02,107.38 C40.4421412,107.335071 40.8678588,107.335071 41.29,107.38 C41.7418652,107.39535 42.1781508,107.548923 42.54,107.82 C42.7348675,108.102995 42.8583804,108.428932 42.9,108.77 C42.9,108.94 42.99,109.6 43.21,109.65 C43.6,109.73 43.98,108.32 44.49,108.42 C45.29,108.58 45.1,109.73 44.96,110.25 C44.869238,111.417032 44.9365127,112.590976 45.16,113.74 C45.68,113.69 47.31,108.4 46,106.42 Z" id="Shape" fill="#757472" fill-rule="nonzero"></path>
                <path d="M49,139.86 L36.1,139.48 C36.1,139.48 35.52,150.02 35.58,152.96 C35.64,155.9 35.88,165.42 35.88,165.42 C35.88,165.42 37.3,181.21 37.43,182.86 C38.83,182.71 40.5,182.7 40.5,182.7 L42.41,150.64 C42.41,150.532304 42.4973045,150.445 42.605,150.445 C42.7126955,150.445 42.8,150.532304 42.8,150.64 L43.54,165.28 L45.87,183 C47.31,182.84 48.87,182.82 48.87,182.82 L48.76,165.5 C48.76,165.5 49.53,154.42 49.54,151.14 C49.55,147.86 49,139.86 49,139.86 Z" id="Shape" fill="#E8E8E8" fill-rule="nonzero"></path>
                <path d="M49.23,183.32 L49.09,185.24 C49.0796692,185.421653 48.9318802,185.565095 48.75,185.57 L47.23,185.57 C47.15,185.57 46.8,185.25 46.8,185.25 L43.71,185.49 L42,185.49 L42,185 L44,184.65 L44.12,184.65 L46.5,183.19 C46.5514396,183.159027 46.6099826,183.141808 46.67,183.14 L48.88,183.03 C49.0521033,183.027455 49.2005122,183.150423 49.23,183.32 L49.23,183.32 Z" id="Shape" fill="#FFFFFF" fill-rule="nonzero"></path>
                <path d="M40.61,183.32 L40.47,185.24 C40.4596692,185.421653 40.3118802,185.565095 40.13,185.57 L38.61,185.57 C38.53,185.57 38.18,185.25 38.18,185.25 L35.09,185.49 L33.35,185.49 L33.35,185 L35.35,184.65 L35.47,184.65 L37.85,183.19 C37.9014396,183.159027 37.9599826,183.141808 38.02,183.14 L40.23,183.03 C40.4132336,183.011647 40.5793482,183.138418 40.61,183.32 L40.61,183.32 Z" id="Shape" fill="#FFFFFF" fill-rule="nonzero"></path>
                <path d="M51.86,119.92 C51.34,117.8 51.03,117.92 48.68,117.57 C47.548277,117.37154 46.4370091,117.070293 45.36,116.67 L45.36,116.67 C44.5884799,117.611336 43.4869297,118.222911 42.28,118.38 C40.79,118.38 40.13,116.62 40.13,116.62 L40.13,116.62 C40.13,116.62 37.13,117.57 36.07,117.81 C34.07,118.27 33.64,118.27 33.17,120.1 C32.85,121.36 31.31,131.62 31.11,133.55 C31.0827616,133.809072 30.9898265,134.056899 30.84,134.27 C30.03,135.45 26.52,140.67 25.47,142.06 C25.17,142.46 26,143.97 26.72,143.31 C28.14,142 32.64,137.25 33.72,136.12 C34.0420375,135.768596 34.2541001,135.330565 34.33,134.86 L35.33,128.72 C35.33,128.72 35.38,128.46 35.52,128.47 C35.66,128.48 35.63,128.83 35.63,128.83 L35.1,140.15 L49.39,140.47 L49,128.54 C49,128.54 49,128.19 49.23,128.18 C49.46,128.17 49.41,128.73 49.42,128.92 C49.62,132.92 50.42,146.92 50.42,146.92 C50.48,147.53 52.28,147.92 52.42,147.14 L52.73,133.67 C52.73,133.67 52.25,121.51 51.86,119.92 Z" id="Shape" fill="#757472" fill-rule="nonzero"></path>
            </g>
            <g id="TREE" transform="translate(1006.000000, 159.000000)" stroke="#757472" stroke-linecap="round" stroke-linejoin="round">
                <polygon id="Shape" stroke-width="2" points="109.25 337.04 108.05 259.86 102.35 259.8 97.5 337.04"></polygon>
                <path d="M102.07,260.89 C77.54,259.41 29.83,248.48 12.13,209.75 C-5.57,171.02 -1.5,97.25 12.13,69.36 C22.9,47.36 75.13,-10.72 144.8,3.03 C211.8,16.25 219.21,109.49 218.8,142.85 C218.39,176.21 205.3,226.65 177.55,243 C154.81,256.38 118.17,261.86 102.07,260.89 Z" id="Shape" fill="#FFFFFF" fill-rule="nonzero"></path>
                <path d="M111.25,39.57 C107.98,59.22 106.77,94.05 105.39,141.07 C103.85,193.54 105.33,260.28 105.33,260.28" id="Shape" stroke-width="2"></path>
                <path d="M31.9,82.27 C41.37,111.13 74.83,153.95 104.71,184.61" id="Shape" stroke-width="2"></path>
                <path d="M106.23,123.15 C117,117.68 144.33,88.9 150.75,71.82" id="Shape" stroke-width="2"></path>
                <path d="M104.71,211.31 C119.71,204.37 147.56,170 158.38,150.05 C169.2,130.1 187,71.82 187,71.82" id="Shape" stroke-width="2"></path>
                <path d="M202.32,111.76 C193,126.76 170.71,140.65 161.75,143.66" id="Shape" stroke-width="2"></path>
                <path d="M191.05,166.44 C174.36,181.3 143.94,194.32 125.24,195.05" id="Shape" stroke-width="2"></path>
                <path d="M27.39,159.71 C37.47,172.47 79.75,217.42 104.71,223.51" id="Shape" stroke-width="2"></path>
                <path d="M29.19,191 C55.34,203.4 72.38,204.33 72.38,204.33" id="Shape" stroke-width="2"></path>
                <path d="M61.86,134.4 C63.11,126.46 66.05,95.34 61.86,78.5" id="Shape" stroke-width="2"></path>
            </g>
        </g>
    </g>
</svg>