<?xml version="1.0" encoding="utf-8"?>
<!-- Generator: Adobe Illustrator 21.0.2, SVG Export Plug-In . SVG Version: 6.00 Build 0)  -->
<!DOCTYPE svg PUBLIC "-//W3C//DTD SVG 1.1//EN" "http://www.w3.org/Graphics/SVG/1.1/DTD/svg11.dtd">
<svg version="1.1" id="ON_WHITE__x2F__OFF" xmlns="http://www.w3.org/2000/svg" xmlns:xlink="http://www.w3.org/1999/xlink" x="0px"
	 y="0px" viewBox="0 0 178 178" style="enable-background:new 0 0 178 178;" xml:space="preserve">
<style type="text/css">
	.st0{fill:#E8E8E8;}
	.st1{fill:#FFFFFF;}
	.st2{fill:#757472;}
</style>
<g>
	<circle class="st0" cx="89" cy="89" r="89"/>
</g>
<g>
	<path class="st1" d="M115.4,52.9c-10.4,0-19.8,4.4-26.4,11.5c6,6.4,9.6,15,9.6,24.5S95,107,89,113.4c6.6,7.1,16,11.5,26.4,11.5
		c19.9,0,36-16.1,36-36S135.3,52.9,115.4,52.9z"/>
	<path class="st2" d="M115.4,125.9c-10.3,0-20.1-4.3-27.1-11.9c-0.4-0.4-0.4-1,0-1.4c6-6.5,9.3-14.9,9.3-23.8
		c0-8.8-3.3-17.3-9.3-23.8c-0.4-0.4-0.4-1,0-1.4c7-7.5,16.9-11.9,27.1-11.9c20.4,0,37,16.6,37,37S135.8,125.9,115.4,125.9z
		 M90.4,113.4c6.6,6.7,15.6,10.6,25,10.6c19.3,0,35-15.7,35-35s-15.7-35-35-35c-9.4,0-18.5,3.8-25,10.6c6,6.8,9.2,15.4,9.2,24.4
		C99.6,98,96.3,106.6,90.4,113.4z"/>
</g>
<g>
	<path class="st2" d="M62.6,125.9c-20.4,0-37-16.6-37-37s16.6-37,37-37c10.3,0,20.1,4.3,27.1,11.9c0.4,0.4,0.4,1,0,1.4
		c-6,6.5-9.3,14.9-9.3,23.8c0,8.8,3.3,17.3,9.3,23.8c0.4,0.4,0.4,1,0,1.4C82.7,121.6,72.9,125.9,62.6,125.9z M62.6,53.9
		c-19.3,0-35,15.7-35,35s15.7,35,35,35c9.4,0,18.5-3.8,25-10.6c-6-6.8-9.2-15.4-9.2-24.4c0-9,3.3-17.7,9.2-24.4
		C81.1,57.8,72,53.9,62.6,53.9z"/>
</g>
<g>
	<path class="st1" d="M89,64.5c-6,6.4-9.6,15-9.6,24.5s3.6,18,9.6,24.5c6-6.4,9.6-15,9.6-24.5S95,70.9,89,64.5z"/>
	<path class="st2" d="M89,114.4L89,114.4c-0.3,0-0.5-0.1-0.7-0.3c-6.4-6.9-9.9-15.8-9.9-25.1c0-9.4,3.5-18.3,9.9-25.1
		c0.4-0.4,1.1-0.4,1.5,0c6.4,6.9,9.9,15.8,9.9,25.1c0,9.4-3.5,18.3-9.9,25.1C89.5,114.3,89.3,114.4,89,114.4z M89,66
		c-5.6,6.4-8.6,14.5-8.6,23c0,8.5,3,16.6,8.6,23c5.6-6.4,8.6-14.5,8.6-23C97.6,80.5,94.6,72.3,89,66z"/>
</g>
<g>
	<path class="st2" d="M98.6,90H79.4c-0.6,0-1-0.4-1-1s0.4-1,1-1h19.2c0.6,0,1,0.4,1,1S99.2,90,98.6,90z"/>
</g>
<g>
	<path class="st2" d="M95.6,75.6H82.4c-0.6,0-1-0.4-1-1s0.4-1,1-1h13.3c0.6,0,1,0.4,1,1S96.2,75.6,95.6,75.6z"/>
</g>
<g>
	<path class="st2" d="M98.1,85.2H79.9c-0.6,0-1-0.4-1-1s0.4-1,1-1h18.2c0.6,0,1,0.4,1,1S98.6,85.2,98.1,85.2z"/>
</g>
<g>
	<path class="st2" d="M97.3,80.4H80.7c-0.6,0-1-0.4-1-1s0.4-1,1-1h16.6c0.6,0,1,0.4,1,1S97.9,80.4,97.3,80.4z"/>
</g>
<g>
	<path class="st2" d="M93.1,70.8h-8.2c-0.6,0-1-0.4-1-1s0.4-1,1-1h8.2c0.6,0,1,0.4,1,1S93.6,70.8,93.1,70.8z"/>
</g>
<g>
	<path class="st2" d="M98.6,90H79.4c-0.6,0-1-0.4-1-1s0.4-1,1-1h19.2c0.6,0,1,0.4,1,1S99.2,90,98.6,90z"/>
</g>
<g>
	<path class="st2" d="M95.6,104.4H82.4c-0.6,0-1-0.4-1-1s0.4-1,1-1h13.1c0.6,0,1,0.4,1,1S96.1,104.4,95.6,104.4z"/>
</g>
<g>
	<path class="st2" d="M98.1,94.8H79.9c-0.6,0-1-0.4-1-1s0.4-1,1-1h18.2c0.6,0,1,0.4,1,1S98.6,94.8,98.1,94.8z"/>
</g>
<g>
	<path class="st2" d="M97.3,99.6H80.7c-0.6,0-1-0.4-1-1s0.4-1,1-1h16.6c0.6,0,1,0.4,1,1S97.8,99.6,97.3,99.6z"/>
</g>
<g>
	<path class="st2" d="M93,109.2h-8c-0.6,0-1-0.4-1-1s0.4-1,1-1h8c0.6,0,1,0.4,1,1S93.6,109.2,93,109.2z"/>
</g>
</svg>
