<?xml version="1.0" encoding="utf-8"?>
<!-- Generator: Adobe Illustrator 21.0.2, SVG Export Plug-In . SVG Version: 6.00 Build 0)  -->
<!DOCTYPE svg PUBLIC "-//W3C//DTD SVG 1.1//EN" "http://www.w3.org/Graphics/SVG/1.1/DTD/svg11.dtd">
<svg version="1.1" id="ON_WHITE__x2F__OFF" xmlns="http://www.w3.org/2000/svg" xmlns:xlink="http://www.w3.org/1999/xlink" x="0px"
	 y="0px" viewBox="0 0 178 178" style="enable-background:new 0 0 178 178;" xml:space="preserve">
<style type="text/css">
	.st0{fill:#E8E8E8;}
	.st1{fill:#FFFFFF;}
	.st2{fill:#757472;}
	.st3{fill:#767573;}
</style>
<g>
	<circle class="st0" cx="89" cy="89" r="89"/>
</g>
<g>
	<rect x="47.5" y="34.7" class="st1" width="83" height="108.6"/>
	<path class="st2" d="M130.5,144.3h-83c-0.6,0-1-0.4-1-1V34.7c0-0.6,0.4-1,1-1h83c0.6,0,1,0.4,1,1v108.6
		C131.5,143.8,131.1,144.3,130.5,144.3z M48.5,142.3h81V35.7h-81V142.3z"/>
</g>
<g>
	<circle class="st0" cx="89" cy="53.8" r="6.8"/>
	<path class="st2" d="M89,61.6c-4.3,0-7.8-3.5-7.8-7.8c0-4.3,3.5-7.8,7.8-7.8c4.3,0,7.8,3.5,7.8,7.8C96.8,58.1,93.3,61.6,89,61.6z
		 M89,48c-3.2,0-5.8,2.6-5.8,5.8c0,3.2,2.6,5.8,5.8,5.8c3.2,0,5.8-2.6,5.8-5.8C94.8,50.6,92.2,48,89,48z"/>
</g>
<g>
	<path class="st0" d="M76.1,72.7c1.1-4.1,6.5-7.2,12.9-7.2s11.7,3.1,12.9,7.2H76.1z"/>
	<path class="st3" d="M101.9,73.7H76.1c-0.3,0-0.6-0.1-0.8-0.4c-0.2-0.2-0.3-0.6-0.2-0.9c1.3-4.6,7.1-7.9,13.9-7.9
		c6.7,0,12.6,3.3,13.9,7.9c0.1,0.3,0,0.6-0.2,0.9C102.5,73.5,102.2,73.7,101.9,73.7z M77.6,71.7h22.8c-1.7-3.1-6.2-5.2-11.4-5.2
		C83.8,66.5,79.3,68.6,77.6,71.7z"/>
</g>
<g>
	<polyline class="st1" points="72.2,86 57.9,86 57.9,104 75.9,104 75.9,99.4 	"/>
	<path class="st3" d="M75.9,105h-18c-0.6,0-1-0.4-1-1V86c0-0.6,0.4-1,1-1h14.3c0.6,0,1,0.4,1,1s-0.4,1-1,1H58.9v16h16v-3.6
		c0-0.6,0.4-1,1-1s1,0.4,1,1v4.6C76.9,104.6,76.5,105,75.9,105z"/>
</g>
<g>
	<rect x="57.9" y="114.5" class="st1" width="18" height="18"/>
	<path class="st3" d="M75.9,133.5h-18c-0.6,0-1-0.4-1-1v-18c0-0.6,0.4-1,1-1h18c0.6,0,1,0.4,1,1v18
		C76.9,133.1,76.5,133.5,75.9,133.5z M58.9,131.5h16v-16h-16V131.5z"/>
</g>
<g>
	<path class="st3" d="M117.1,91.4H93.8c-0.6,0-1-0.4-1-1s0.4-1,1-1h23.3c0.6,0,1,0.4,1,1S117.7,91.4,117.1,91.4z"/>
</g>
<g>
	<path class="st3" d="M117.1,100.4H93.8c-0.6,0-1-0.4-1-1s0.4-1,1-1h23.3c0.6,0,1,0.4,1,1S117.7,100.4,117.1,100.4z"/>
</g>
<g>
	<path class="st3" d="M117.1,119.9H93.8c-0.6,0-1-0.4-1-1s0.4-1,1-1h23.3c0.6,0,1,0.4,1,1S117.7,119.9,117.1,119.9z"/>
</g>
<g>
	<path class="st3" d="M117.1,128.9H93.8c-0.6,0-1-0.4-1-1s0.4-1,1-1h23.3c0.6,0,1,0.4,1,1S117.7,128.9,117.1,128.9z"/>
</g>
<g>
	<path class="st3" d="M67.7,100.4c-0.3,0-0.5-0.1-0.7-0.3l-4.5-4.5c-0.4-0.4-0.4-1,0-1.4s1-0.4,1.4,0l3.8,3.8l12.7-11.8
		c0.4-0.4,1-0.4,1.4,0.1c0.4,0.4,0.4,1-0.1,1.4l-13.4,12.4C68.2,100.3,68,100.4,67.7,100.4z"/>
</g>
</svg>
