<?xml version="1.0" encoding="utf-8"?>
<!-- Generator: Adobe Illustrator 21.0.2, SVG Export Plug-In . SVG Version: 6.00 Build 0)  -->
<!DOCTYPE svg PUBLIC "-//W3C//DTD SVG 1.1//EN" "http://www.w3.org/Graphics/SVG/1.1/DTD/svg11.dtd">
<svg version="1.1" id="ON_WHITE__x2F__OFF" xmlns="http://www.w3.org/2000/svg" xmlns:xlink="http://www.w3.org/1999/xlink" x="0px"
	 y="0px" viewBox="0 0 178 178" style="enable-background:new 0 0 178 178;" xml:space="preserve">
<style type="text/css">
	.st0{fill:#E8E8E8;}
	.st1{fill:#767573;}
	.st2{fill:#FFFFFF;}
	.st3{clip-path:url(#SVGID_2_);}
	.st4{clip-path:url(#SVGID_6_);}
</style>
<g>
	<circle class="st0" cx="89" cy="89" r="89"/>
</g>
<g>
	<path class="st1" d="M135.5,90H42.5c-0.6,0-1-0.4-1-1s0.4-1,1-1h93.1c0.6,0,1,0.4,1,1S136.1,90,135.5,90z"/>
</g>
<g>
	<path class="st2" d="M89,43.3H42.3v40.6c0,1.7,0.1,3.4,0.2,5.1H89V43.3z"/>
	<path class="st1" d="M89,90H42.5c-0.5,0-1-0.4-1-0.9c-0.1-1.8-0.2-3.5-0.2-5.2V43.3c0-0.6,0.4-1,1-1H89c0.6,0,1,0.4,1,1V89
		C90,89.6,89.6,90,89,90z M43.4,88H88V44.3H43.3v39.6C43.3,85.2,43.3,86.6,43.4,88z"/>
</g>
<g>
	<defs>
		<path id="SVGID_1_" d="M135.5,89c0.1-1.7,0.2-3.4,0.2-5.1V43.3H89V89H135.5z"/>
	</defs>
	<clipPath id="SVGID_2_">
		<use xlink:href="#SVGID_1_"  style="overflow:visible;"/>
	</clipPath>
	<g class="st3">
		<g>
			<path class="st1" d="M57.7,66.9c-0.3,0-0.5-0.1-0.7-0.3c-0.4-0.4-0.4-1,0-1.4l74.6-74.6c0.4-0.4,1-0.4,1.4,0s0.4,1,0,1.4
				L58.4,66.6C58.2,66.8,57.9,66.9,57.7,66.9z"/>
		</g>
		<g>
			<path class="st1" d="M61.3,70.5c-0.3,0-0.5-0.1-0.7-0.3c-0.4-0.4-0.4-1,0-1.4l74.6-74.6c0.4-0.4,1-0.4,1.4,0s0.4,1,0,1.4L62,70.2
				C61.8,70.4,61.6,70.5,61.3,70.5z"/>
		</g>
		<g>
			<path class="st1" d="M65,74.2c-0.3,0-0.5-0.1-0.7-0.3c-0.4-0.4-0.4-1,0-1.4l74.6-74.6c0.4-0.4,1-0.4,1.4,0s0.4,1,0,1.4L65.7,73.9
				C65.5,74.1,65.2,74.2,65,74.2z"/>
		</g>
		<g>
			<path class="st1" d="M68.6,77.9c-0.3,0-0.5-0.1-0.7-0.3c-0.4-0.4-0.4-1,0-1.4l74.6-74.6c0.4-0.4,1-0.4,1.4,0s0.4,1,0,1.4
				L69.4,77.6C69.2,77.8,68.9,77.9,68.6,77.9z"/>
		</g>
		<g>
			<path class="st1" d="M76,85.2c-0.3,0-0.5-0.1-0.7-0.3c-0.4-0.4-0.4-1,0-1.4l74.6-74.6c0.4-0.4,1-0.4,1.4,0s0.4,1,0,1.4L76.7,84.9
				C76.5,85.1,76.2,85.2,76,85.2z"/>
		</g>
		<g>
			<path class="st1" d="M72.3,81.5c-0.3,0-0.5-0.1-0.7-0.3c-0.4-0.4-0.4-1,0-1.4l74.6-74.6c0.4-0.4,1-0.4,1.4,0s0.4,1,0,1.4L73,81.2
				C72.8,81.4,72.6,81.5,72.3,81.5z"/>
		</g>
		<g>
			<path class="st1" d="M79.6,88.8c-0.3,0-0.5-0.1-0.7-0.3c-0.4-0.4-0.4-1,0-1.4l74.6-74.6c0.4-0.4,1-0.4,1.4,0s0.4,1,0,1.4
				L80.3,88.6C80.2,88.7,79.9,88.8,79.6,88.8z"/>
		</g>
		<g>
			<path class="st1" d="M83.3,92.5c-0.3,0-0.5-0.1-0.7-0.3c-0.4-0.4-0.4-1,0-1.4l74.6-74.6c0.4-0.4,1-0.4,1.4,0c0.4,0.4,0.4,1,0,1.4
				L84,92.2C83.8,92.4,83.6,92.5,83.3,92.5z"/>
		</g>
		<g>
			<path class="st1" d="M87,96.2c-0.3,0-0.5-0.1-0.7-0.3c-0.4-0.4-0.4-1,0-1.4l74.6-74.6c0.4-0.4,1-0.4,1.4,0s0.4,1,0,1.4L87.7,95.9
				C87.5,96.1,87.2,96.2,87,96.2z"/>
		</g>
		<g>
			<path class="st1" d="M90.6,99.8c-0.3,0-0.5-0.1-0.7-0.3c-0.4-0.4-0.4-1,0-1.4l74.6-74.6c0.4-0.4,1-0.4,1.4,0s0.4,1,0,1.4
				L91.3,99.5C91.1,99.7,90.9,99.8,90.6,99.8z"/>
		</g>
		<g>
			<path class="st1" d="M94.3,103.5c-0.3,0-0.5-0.1-0.7-0.3c-0.4-0.4-0.4-1,0-1.4l74.6-74.6c0.4-0.4,1-0.4,1.4,0s0.4,1,0,1.4
				L95,103.2C94.8,103.4,94.6,103.5,94.3,103.5z"/>
		</g>
		<g>
			<path class="st1" d="M98,107.2c-0.3,0-0.5-0.1-0.7-0.3c-0.4-0.4-0.4-1,0-1.4l74.6-74.6c0.4-0.4,1-0.4,1.4,0s0.4,1,0,1.4
				l-74.6,74.6C98.5,107.1,98.2,107.2,98,107.2z"/>
		</g>
		<g>
			<path class="st1" d="M101.6,110.8c-0.3,0-0.5-0.1-0.7-0.3c-0.4-0.4-0.4-1,0-1.4l74.6-74.6c0.4-0.4,1-0.4,1.4,0s0.4,1,0,1.4
				l-74.6,74.6C102.1,110.7,101.9,110.8,101.6,110.8z"/>
		</g>
		<g>
			<path class="st1" d="M105.3,114.5c-0.3,0-0.5-0.1-0.7-0.3c-0.4-0.4-0.4-1,0-1.4l74.6-74.6c0.4-0.4,1-0.4,1.4,0s0.4,1,0,1.4
				L106,114.2C105.8,114.4,105.6,114.5,105.3,114.5z"/>
		</g>
		<g>
			<path class="st1" d="M109,118.2c-0.3,0-0.5-0.1-0.7-0.3c-0.4-0.4-0.4-1,0-1.4l74.6-74.6c0.4-0.4,1-0.4,1.4,0s0.4,1,0,1.4
				l-74.6,74.6C109.5,118.1,109.2,118.2,109,118.2z"/>
		</g>
		<g>
			<path class="st1" d="M112.6,121.8c-0.3,0-0.5-0.1-0.7-0.3c-0.4-0.4-0.4-1,0-1.4l74.6-74.6c0.4-0.4,1-0.4,1.4,0s0.4,1,0,1.4
				l-74.6,74.6C113.1,121.7,112.9,121.8,112.6,121.8z"/>
		</g>
	</g>
</g>
<g>
	<path class="st2" d="M89,89v62.6h0c26.5-10.1,44.6-34.6,46.5-62.6H89z"/>
	<path class="st1" d="M89,152.6c-0.2,0-0.4-0.1-0.6-0.2c-0.3-0.2-0.4-0.5-0.4-0.8V89c0-0.6,0.4-1,1-1h46.5c0.3,0,0.5,0.1,0.7,0.3
		c0.2,0.2,0.3,0.5,0.3,0.8c-2,28.4-20.5,53.4-47.2,63.5C89.2,152.6,89.1,152.6,89,152.6z M90,90v60.2c24.9-10,42.2-33.4,44.5-60.2
		H90z"/>
</g>
<g>
	<defs>
		<path id="SVGID_3_" d="M42.5,89c2,28,20,52.5,46.5,62.6V89H42.5z"/>
	</defs>
	<clipPath id="SVGID_4_">
		<use xlink:href="#SVGID_3_"  style="overflow:visible;"/>
	</clipPath>
</g>
<g>
	<path class="st1" d="M135.5,90H89c-0.6,0-1-0.4-1-1V43.3c0-0.6,0.4-1,1-1h46.7c0.6,0,1,0.4,1,1v40.6c0,1.7-0.1,3.4-0.2,5.2
		C136.5,89.6,136.1,90,135.5,90z M90,88h44.6c0.1-1.4,0.1-2.8,0.1-4.1V44.3H90V88z"/>
</g>
<g>
	<path class="st1" d="M89,152.6c-0.1,0-0.2,0-0.4-0.1C62,142.4,43.5,117.5,41.5,89.1c0-0.3,0.1-0.5,0.3-0.8c0.2-0.2,0.5-0.3,0.7-0.3
		H89c0.6,0,1,0.4,1,1v62.6c0,0.3-0.2,0.6-0.4,0.8C89.4,152.6,89.2,152.6,89,152.6z M43.5,90c2.3,26.7,19.6,50.1,44.5,60.2V90H43.5z"
		/>
</g>
<g>
	<defs>
		<path id="SVGID_5_" d="M42.5,89c2,28,20,52.5,46.5,62.6V89H42.5z"/>
	</defs>
	<clipPath id="SVGID_6_">
		<use xlink:href="#SVGID_5_"  style="overflow:visible;"/>
	</clipPath>
	<g class="st4">
		<g>
			<path class="st1" d="M7.4,124.5c-0.3,0-0.5-0.1-0.7-0.3c-0.4-0.4-0.4-1,0-1.4l74.6-74.6c0.4-0.4,1-0.4,1.4,0s0.4,1,0,1.4
				L8.1,124.2C7.9,124.4,7.7,124.5,7.4,124.5z"/>
		</g>
		<g>
			<path class="st1" d="M11.1,128.1c-0.3,0-0.5-0.1-0.7-0.3c-0.4-0.4-0.4-1,0-1.4l74.6-74.6c0.4-0.4,1-0.4,1.4,0s0.4,1,0,1.4
				l-74.6,74.6C11.6,128,11.3,128.1,11.1,128.1z"/>
		</g>
		<g>
			<path class="st1" d="M14.7,131.8c-0.3,0-0.5-0.1-0.7-0.3c-0.4-0.4-0.4-1,0-1.4l74.6-74.6c0.4-0.4,1-0.4,1.4,0s0.4,1,0,1.4
				l-74.6,74.6C15.2,131.7,15,131.8,14.7,131.8z"/>
		</g>
		<g>
			<path class="st1" d="M18.4,135.5c-0.3,0-0.5-0.1-0.7-0.3c-0.4-0.4-0.4-1,0-1.4l74.6-74.6c0.4-0.4,1-0.4,1.4,0s0.4,1,0,1.4
				l-74.6,74.6C18.9,135.4,18.7,135.5,18.4,135.5z"/>
		</g>
		<g>
			<path class="st1" d="M25.7,142.8c-0.3,0-0.5-0.1-0.7-0.3c-0.4-0.4-0.4-1,0-1.4l74.6-74.6c0.4-0.4,1-0.4,1.4,0s0.4,1,0,1.4
				l-74.6,74.6C26.2,142.7,26,142.8,25.7,142.8z"/>
		</g>
		<g>
			<path class="st1" d="M22.1,139.1c-0.3,0-0.5-0.1-0.7-0.3c-0.4-0.4-0.4-1,0-1.4l74.6-74.6c0.4-0.4,1-0.4,1.4,0s0.4,1,0,1.4
				l-74.6,74.6C22.6,139,22.3,139.1,22.1,139.1z"/>
		</g>
		<g>
			<path class="st1" d="M29.4,146.5c-0.3,0-0.5-0.1-0.7-0.3c-0.4-0.4-0.4-1,0-1.4l74.6-74.6c0.4-0.4,1-0.4,1.4,0s0.4,1,0,1.4
				l-74.6,74.6C29.9,146.4,29.6,146.5,29.4,146.5z"/>
		</g>
		<g>
			<path class="st1" d="M33.1,150.1c-0.3,0-0.5-0.1-0.7-0.3c-0.4-0.4-0.4-1,0-1.4l74.6-74.6c0.4-0.4,1-0.4,1.4,0s0.4,1,0,1.4
				l-74.6,74.6C33.6,150,33.3,150.1,33.1,150.1z"/>
		</g>
		<g>
			<path class="st1" d="M36.7,153.8c-0.3,0-0.5-0.1-0.7-0.3c-0.4-0.4-0.4-1,0-1.4l74.6-74.6c0.4-0.4,1-0.4,1.4,0s0.4,1,0,1.4
				l-74.6,74.6C37.2,153.7,37,153.8,36.7,153.8z"/>
		</g>
		<g>
			<path class="st1" d="M40.4,157.5c-0.3,0-0.5-0.1-0.7-0.3c-0.4-0.4-0.4-1,0-1.4l74.6-74.6c0.4-0.4,1-0.4,1.4,0s0.4,1,0,1.4
				l-74.6,74.6C40.9,157.4,40.6,157.5,40.4,157.5z"/>
		</g>
		<g>
			<path class="st1" d="M44.1,161.1c-0.3,0-0.5-0.1-0.7-0.3c-0.4-0.4-0.4-1,0-1.4l74.6-74.6c0.4-0.4,1-0.4,1.4,0s0.4,1,0,1.4
				l-74.6,74.6C44.6,161,44.3,161.1,44.1,161.1z"/>
		</g>
		<g>
			<path class="st1" d="M47.7,164.8c-0.3,0-0.5-0.1-0.7-0.3c-0.4-0.4-0.4-1,0-1.4l74.6-74.6c0.4-0.4,1-0.4,1.4,0s0.4,1,0,1.4
				l-74.6,74.6C48.2,164.7,48,164.8,47.7,164.8z"/>
		</g>
		<g>
			<path class="st1" d="M51.4,168.5c-0.3,0-0.5-0.1-0.7-0.3c-0.4-0.4-0.4-1,0-1.4l74.6-74.6c0.4-0.4,1-0.4,1.4,0s0.4,1,0,1.4
				l-74.6,74.6C51.9,168.4,51.6,168.5,51.4,168.5z"/>
		</g>
		<g>
			<path class="st1" d="M55,172.1c-0.3,0-0.5-0.1-0.7-0.3c-0.4-0.4-0.4-1,0-1.4l74.6-74.6c0.4-0.4,1-0.4,1.4,0s0.4,1,0,1.4
				l-74.6,74.6C55.6,172,55.3,172.1,55,172.1z"/>
		</g>
		<g>
			<path class="st1" d="M58.7,175.8c-0.3,0-0.5-0.1-0.7-0.3c-0.4-0.4-0.4-1,0-1.4l74.6-74.6c0.4-0.4,1-0.4,1.4,0s0.4,1,0,1.4
				l-74.6,74.6C59.2,175.7,59,175.8,58.7,175.8z"/>
		</g>
		<g>
			<path class="st1" d="M62.4,179.4c-0.3,0-0.5-0.1-0.7-0.3c-0.4-0.4-0.4-1,0-1.4l74.6-74.6c0.4-0.4,1-0.4,1.4,0s0.4,1,0,1.4
				l-74.6,74.6C62.9,179.3,62.6,179.4,62.4,179.4z"/>
		</g>
	</g>
</g>
</svg>
