<?xml version="1.0" encoding="utf-8"?>
<!-- Generator: Adobe Illustrator 21.0.2, SVG Export Plug-In . SVG Version: 6.00 Build 0)  -->
<!DOCTYPE svg PUBLIC "-//W3C//DTD SVG 1.1//EN" "http://www.w3.org/Graphics/SVG/1.1/DTD/svg11.dtd">
<svg version="1.1" id="ON_WHITE__x2F__OFF" xmlns="http://www.w3.org/2000/svg" xmlns:xlink="http://www.w3.org/1999/xlink" x="0px"
	 y="0px" viewBox="0 0 178 178" style="enable-background:new 0 0 178 178;" xml:space="preserve">
<style type="text/css">
	.st0{fill:#E8E8E8;}
	.st1{fill:#FFFFFF;}
	.st2{fill:#767573;}
	.st3{fill:#757472;}
</style>
<g>
	<circle class="st0" cx="89" cy="89" r="89"/>
</g>
<g>
	<circle class="st1" cx="89" cy="90.8" r="57.9"/>
	<path class="st2" d="M89,149.7c-32.5,0-58.9-26.4-58.9-58.9c0-32.5,26.4-58.9,58.9-58.9c32.5,0,58.9,26.4,58.9,58.9
		C147.9,123.3,121.5,149.7,89,149.7z M89,33.9c-31.4,0-56.9,25.5-56.9,56.9s25.5,56.9,56.9,56.9s56.9-25.5,56.9-56.9
		S120.4,33.9,89,33.9z"/>
</g>
<g>
	<circle class="st0" cx="89" cy="75.2" r="15.6"/>
	<path class="st3" d="M89,91.8c-9.1,0-16.6-7.4-16.6-16.6S79.9,58.7,89,58.7s16.6,7.4,16.6,16.6S98.1,91.8,89,91.8z M89,60.7
		c-8,0-14.6,6.5-14.6,14.6S81,89.8,89,89.8s14.6-6.5,14.6-14.6S97,60.7,89,60.7z"/>
</g>
<g>
	<path class="st0" d="M59.5,118.3c2.6-9.3,14.8-16.4,29.5-16.4s26.8,7.1,29.5,16.4H59.5z"/>
	<path class="st2" d="M118.5,119.3H59.5c-0.3,0-0.6-0.1-0.8-0.4c-0.2-0.2-0.3-0.6-0.2-0.9c2.8-9.9,15.6-17.1,30.4-17.1
		s27.6,7.2,30.4,17.1c0.1,0.3,0,0.6-0.2,0.9C119.1,119.2,118.8,119.3,118.5,119.3z M60.9,117.3h56.1c-3.3-8.4-14.8-14.4-28.1-14.4
		S64.2,108.9,60.9,117.3z"/>
</g>
</svg>
