<?xml version="1.0" encoding="utf-8"?>
<!-- Generator: Adobe Illustrator 21.1.0, SVG Export Plug-In . SVG Version: 6.00 Build 0)  -->
<svg version="1.1" id="Layer_1" xmlns="http://www.w3.org/2000/svg" xmlns:xlink="http://www.w3.org/1999/xlink" x="0px" y="0px"
	 viewBox="0 0 908.1 817.1" style="enable-background:new 0 0 908.1 817.1;" xml:space="preserve">
<style type="text/css">
	.st0{fill:#FFFFFF;}
	.st1{fill:#6A6967;}
	.st2{fill:none;stroke:#FFFFFF;stroke-width:2.5;stroke-linecap:round;stroke-miterlimit:10;}
	.st3{fill:#A2A19F;}
</style>
<path class="st0" d="M201.9,660.5h-7.3c-4.1,0-7.5-3.4-7.5-7.5V7.7c0-4.1,3.4-7.5,7.5-7.5h7.3c4.1,0,7.5,3.4,7.5,7.5v645.2
	C209.5,657.1,206.1,660.5,201.9,660.5z M194.7,2.7c-2.8,0-5,2.3-5,5v645.2c0,2.8,2.3,5,5,5h7.3c2.8,0,5-2.3,5-5V7.7c0-2.8-2.3-5-5-5
	H194.7z"/>
<path class="st0" d="M133.9,541.9c-1.2,0-2.2,0-3.2,0c-88-0.2-129.3-8.7-129.7-8.8c-0.6-0.1-1-0.6-1-1.2V140.7c0-0.6,0.4-1.1,1-1.2
	c0.4-0.1,41.7-8.6,129.7-8.8h0c14.3,0,57.3,0.2,57.8,0.2c0.7,0,1.2,0.6,1.2,1.2v408.4c0,0.7-0.6,1.2-1.2,1.2
	C188,541.7,150.5,541.9,133.9,541.9z M2.5,530.9c6.7,1.3,48,8.4,128.2,8.5c12.9,0,49.3-0.1,56.5-0.2V133.3c-7.2,0-43.6-0.2-56.5-0.2
	h0c-80.2,0.1-121.4,7.3-128.2,8.5V530.9z"/>
<path class="st0" d="M129.5,541.4c-0.4,0-0.8-0.3-0.8-0.8V131.9c0-0.4,0.3-0.8,0.8-0.8s0.8,0.3,0.8,0.8v408.7
	C130.2,541.1,129.9,541.4,129.5,541.4z"/>
<g>
	<rect x="0.5" y="693.6" class="st1" width="1.5" height="14.7"/>
	<rect x="207.5" y="693.6" class="st1" width="1.5" height="14.7"/>
	<g>
		<rect x="1.2" y="700.2" class="st1" width="1.7" height="1.5"/>
		<path class="st1" d="M203.1,701.7h-3.5v-1.5h3.5V701.7z M196.2,701.7h-3.4v-1.5h3.4V701.7z M189.3,701.7h-3.4v-1.5h3.4V701.7z
			 M182.4,701.7h-3.4v-1.5h3.4V701.7z M175.5,701.7H172v-1.5h3.4V701.7z M168.6,701.7h-3.5v-1.5h3.5V701.7z M161.7,701.7h-3.4v-1.5
			h3.4V701.7z M154.8,701.7h-3.4v-1.5h3.4V701.7z M147.9,701.7h-3.5v-1.5h3.5V701.7z M141,701.7h-3.4v-1.5h3.4V701.7z M134.1,701.7
			h-3.4v-1.5h3.4V701.7z M127.2,701.7h-3.4v-1.5h3.4V701.7z M120.3,701.7h-3.4v-1.5h3.4V701.7z M113.4,701.7h-3.4v-1.5h3.4V701.7z
			 M106.5,701.7H103v-1.5h3.4V701.7z M99.6,701.7h-3.4v-1.5h3.4V701.7z M92.7,701.7h-3.5v-1.5h3.5V701.7z M85.8,701.7h-3.4v-1.5h3.4
			V701.7z M78.9,701.7h-3.4v-1.5h3.4V701.7z M72,701.7h-3.4v-1.5H72V701.7z M65.1,701.7h-3.4v-1.5h3.4V701.7z M58.2,701.7h-3.4v-1.5
			h3.4V701.7z M51.3,701.7h-3.4v-1.5h3.4V701.7z M44.4,701.7h-3.4v-1.5h3.4V701.7z M37.5,701.7H34v-1.5h3.5V701.7z M30.6,701.7h-3.4
			v-1.5h3.4V701.7z M23.7,701.7h-3.4v-1.5h3.4V701.7z M16.8,701.7h-3.5v-1.5h3.5V701.7z M9.9,701.7H6.4v-1.5h3.4V701.7z"/>
		<rect x="206.5" y="700.2" class="st1" width="1.7" height="1.5"/>
	</g>
</g>
<path class="st0" d="M639,541.2H472.1c-10.8,0-19.6-8.8-19.6-19.6V150.8c0-10.8,8.8-19.6,19.6-19.6H639c10.8,0,19.6,8.8,19.6,19.6
	v370.9C658.6,532.4,649.8,541.2,639,541.2z M472.1,132.7c-10,0-18.1,8.1-18.1,18.1v370.9c0,10,8.1,18.1,18.1,18.1H639
	c10,0,18.1-8.1,18.1-18.1V150.8c0-10-8.1-18.1-18.1-18.1H472.1z"/>
<g>
	<g>
		<path class="st0" d="M590.8,258.2h-1.7c0-8.9-3.5-17.3-9.8-23.6c-6.3-6.3-14.8-9.8-23.8-9.8c-9,0-17.4,3.5-23.8,9.8
			c-6.3,6.3-9.8,14.7-9.8,23.6h-1.7c0-9.4,3.7-18.2,10.3-24.8c6.7-6.6,15.5-10.3,24.9-10.3c9.4,0,18.3,3.6,24.9,10.3
			C587.2,240,590.8,248.8,590.8,258.2z"/>
	</g>
	<path class="st0" d="M544.6,235.1c0-2.7,2.2-4.8,4.8-4.8c2.7,0,4.8,2.2,4.8,4.8s-2.2,4.8-4.8,4.8
		C546.7,239.9,544.6,237.7,544.6,235.1z M549.4,238.2c1.7,0,3.1-1.4,3.1-3.1c0-1.7-1.4-3.1-3.1-3.1s-3.1,1.4-3.1,3.1
		C546.3,236.8,547.7,238.2,549.4,238.2z"/>
	<path class="st0" d="M561.8,239.9c-2.7,0-4.8-2.2-4.8-4.8s2.2-4.8,4.8-4.8c2.7,0,4.8,2.2,4.8,4.8S564.4,239.9,561.8,239.9z
		 M564.8,235.1c0-1.7-1.4-3.1-3.1-3.1c-1.7,0-3.1,1.4-3.1,3.1c0,1.7,1.4,3.1,3.1,3.1C563.5,238.2,564.8,236.8,564.8,235.1z"/>
	<polygon class="st0" points="541,245.9 537.1,241.9 544.7,242.3 545.2,241.8 538.9,235.2 537.7,236.4 541.5,240.4 533.9,240 
		533.4,240.5 539.7,247.1 	"/>
	<polygon class="st0" points="567.1,242.8 571,238.9 570.8,246.5 571.3,247 577.7,240.6 576.5,239.4 572.6,243.3 572.9,235.7 
		572.3,235.2 565.9,241.6 	"/>
</g>
<path class="st0" d="M555.6,34.1c-5.1,0-9.2-4.1-9.2-9.2c0-5.1,4.1-9.2,9.2-9.2s9.2,4.1,9.2,9.2C564.8,29.9,560.7,34.1,555.6,34.1z
	 M555.6,17.1c-4.3,0-7.7,3.5-7.7,7.7c0,4.3,3.5,7.7,7.7,7.7s7.7-3.5,7.7-7.7C563.3,20.6,559.8,17.1,555.6,17.1z"/>
<path class="st0" d="M575.5,79.3h-39.8c-6.5,0-11.8-5.3-11.8-11.8c0-6.5,5.3-11.8,11.8-11.8h39.8c6.5,0,11.8,5.3,11.8,11.8
	C587.3,74,582,79.3,575.5,79.3z M535.7,57.2c-5.7,0-10.3,4.6-10.3,10.3s4.6,10.3,10.3,10.3h39.8c5.7,0,10.3-4.6,10.3-10.3
	s-4.6-10.3-10.3-10.3H535.7z"/>
<path class="st0" d="M494.1,79.3h-31.9c-3,0-5.5-2.4-5.5-5.5v-35c0-4.7,3.9-8.6,8.6-8.6H491c4.7,0,8.6,3.9,8.6,8.6v35
	C499.6,76.9,497.1,79.3,494.1,79.3z M465.3,31.8c-3.9,0-7.1,3.2-7.1,7.1v35c0,2.2,1.8,4,4,4h31.9c2.2,0,4-1.8,4-4v-35
	c0-3.9-3.2-7.1-7.1-7.1H465.3z"/>
<rect x="457.5" y="46.5" class="st0" width="41.3" height="1.5"/>
<path class="st0" d="M648.9,79.3H617c-3,0-5.5-2.4-5.5-5.5v-35c0-4.7,3.9-8.6,8.6-8.6h25.7c4.7,0,8.6,3.9,8.6,8.6v35
	C654.4,76.9,652,79.3,648.9,79.3z M620.1,31.8c-3.9,0-7.1,3.2-7.1,7.1v35c0,2.2,1.8,4,4,4h31.9c2.2,0,4-1.8,4-4v-35
	c0-3.9-3.2-7.1-7.1-7.1H620.1z"/>
<rect x="612.3" y="46.5" class="st0" width="41.3" height="1.5"/>
<path class="st0" d="M555.6,644.1c-5.1,0-9.2-4.1-9.2-9.2s4.1-9.2,9.2-9.2s9.2,4.1,9.2,9.2S560.7,644.1,555.6,644.1z M555.6,627.1
	c-4.3,0-7.7,3.5-7.7,7.7s3.5,7.7,7.7,7.7s7.7-3.5,7.7-7.7S559.8,627.1,555.6,627.1z"/>
<path class="st0" d="M575.5,604h-39.8c-6.5,0-11.8-5.3-11.8-11.8s5.3-11.8,11.8-11.8h39.8c6.5,0,11.8,5.3,11.8,11.8
	S582,604,575.5,604z M535.7,581.9c-5.7,0-10.3,4.6-10.3,10.3s4.6,10.3,10.3,10.3h39.8c5.7,0,10.3-4.6,10.3-10.3s-4.6-10.3-10.3-10.3
	H535.7z"/>
<path class="st0" d="M494.1,629.4h-31.9c-3,0-5.5-2.4-5.5-5.5v-35c0-4.7,3.9-8.6,8.6-8.6H491c4.7,0,8.6,3.9,8.6,8.6v35
	C499.6,627,497.1,629.4,494.1,629.4z M465.3,581.9c-3.9,0-7.1,3.2-7.1,7.1v35c0,2.2,1.8,4,4,4h31.9c2.2,0,4-1.8,4-4v-35
	c0-3.9-3.2-7.1-7.1-7.1H465.3z"/>
<rect x="457.5" y="596.6" class="st0" width="41.3" height="1.5"/>
<path class="st0" d="M648.9,629.4H617c-3,0-5.5-2.4-5.5-5.5v-35c0-4.7,3.9-8.6,8.6-8.6h25.7c4.7,0,8.6,3.9,8.6,8.6v35
	C654.4,627,652,629.4,648.9,629.4z M620.1,581.9c-3.9,0-7.1,3.2-7.1,7.1v35c0,2.2,1.8,4,4,4h31.9c2.2,0,4-1.8,4-4v-35
	c0-3.9-3.2-7.1-7.1-7.1H620.1z"/>
<rect x="612.3" y="596.6" class="st0" width="41.3" height="1.5"/>
<path class="st0" d="M570.1,368.2h-29c-0.4,0-0.8-0.3-0.8-0.8s0.3-0.8,0.8-0.8h29c0.4,0,0.8,0.3,0.8,0.8S570.5,368.2,570.1,368.2z"
	/>
<path class="st0" d="M575.3,463.6h-39.4c-7.3,0-13.3-6-13.3-13.3v-40.7c0-7.3,6-13.3,13.3-13.3h39.4c7.3,0,13.3,6,13.3,13.3v40.7
	C588.6,457.6,582.6,463.6,575.3,463.6z M535.9,397.8c-6.5,0-11.8,5.3-11.8,11.8v40.7c0,6.5,5.3,11.8,11.8,11.8h39.4
	c6.5,0,11.8-5.3,11.8-11.8v-40.7c0-6.5-5.3-11.8-11.8-11.8H535.9z"/>
<path class="st0" d="M414.6,494.9C414.6,494.9,414.6,494.9,414.6,494.9c-58.7-0.1-77.2-37.1-93.5-69.8
	c-6.3-12.6-12.2-24.4-19.9-32.8c-0.2-0.2-0.3-0.6-0.3-0.9c0-0.3,0.2-0.7,0.4-0.9l7.5-6.6c0.5-0.4,1.3-0.4,1.7,0.1
	c8.9,9.8,15.4,22.8,21.7,35.4c15.4,30.8,31.3,62.7,82.3,62.9c0.7,0,1.2,0.6,1.2,1.2v10c0,0.3-0.1,0.7-0.4,0.9
	C415.2,494.7,414.9,494.9,414.6,494.9z M303.9,391.6c7.5,8.5,13.3,20.1,19.4,32.4c15.8,31.8,33.8,67.7,90,68.4v-7.5
	c-51.6-0.6-67.7-33-83.3-64.2c-6-12.1-12.2-24.5-20.5-34L303.9,391.6z"/>
<path class="st0" d="M302.1,392.5l-0.5-0.5c-7.9-8.5-16.8-12.5-27.9-12.5H273l0-5.5h0.8c12.5,0,23,4.7,32,14.4l0.5,0.6L302.1,392.5z
	 M274.5,377.9c11,0.2,19.8,4.2,27.7,12.5l1.9-1.7c-8.5-8.9-17.9-13.1-29.6-13.3L274.5,377.9z"/>
<path class="st0" d="M345.8,314.8l-0.6-0.5c-10.5-8.9-22.6-13.2-37.2-13.2h-0.8v-5.5h0.8c15.9,0,29.3,4.7,40.8,14.5l0.6,0.5
	L345.8,314.8z M308.8,299.7c14.3,0.1,26.4,4.4,36.9,13l1.6-1.9c-10.9-9-23.5-13.5-38.5-13.6V299.7z"/>
<path class="st0" d="M415.8,410.6l-1.3,0c-18.4-0.2-27.2-20.4-37.3-43.7c-8-18.4-17.1-39.2-32.3-52.1l-0.9-0.8l8-9.6l1,0.8
	c3.3,2.8,6.5,6,9.5,9.6c11.8,13.9,19.5,31.6,26.3,47.1c9.8,22.4,16.4,36,25.9,36.2l1.2,0V410.6z M347.5,313.6
	c15.1,13.3,24.1,34,32.1,52.2c9.6,22,17.9,41.1,33.8,42.2v-7.5c-10.3-1.2-17.2-15.2-26.9-37.6c-6.7-15.4-14.3-32.9-25.9-46.5
	c-2.6-3.1-5.4-5.9-8.3-8.5L347.5,313.6z"/>
<path class="st0" d="M665.1,660.3H445.9c-18,0-32.6-14.6-32.6-32.6v-595c0-18,14.6-32.6,32.6-32.6h219.1c18,0,32.6,14.6,32.6,32.6
	v595C697.7,645.6,683.1,660.3,665.1,660.3z M445.9,2.5c-16.6,0-30.1,13.5-30.1,30.1v595c0,16.6,13.5,30.1,30.1,30.1h219.1
	c16.6,0,30.1-13.5,30.1-30.1v-595c0-16.6-13.5-30.1-30.1-30.1H445.9z"/>
<g>
	<rect x="730.7" y="0.5" class="st1" width="14.7" height="1.5"/>
	<rect x="730.7" y="658.3" class="st1" width="14.7" height="1.5"/>
	<g>
		<rect x="737.3" y="1.2" class="st1" width="1.5" height="1.7"/>
		<path class="st1" d="M738.8,653.9h-1.5v-3.4h1.5V653.9z M738.8,647h-1.5v-3.4h1.5V647z M738.8,640.2h-1.5v-3.4h1.5V640.2z
			 M738.8,633.3h-1.5v-3.4h1.5V633.3z M738.8,626.5h-1.5V623h1.5V626.5z M738.8,619.6h-1.5v-3.4h1.5V619.6z M738.8,612.8h-1.5v-3.4
			h1.5V612.8z M738.8,605.9h-1.5v-3.4h1.5V605.9z M738.8,599.1h-1.5v-3.4h1.5V599.1z M738.8,592.2h-1.5v-3.4h1.5V592.2z
			 M738.8,585.4h-1.5v-3.4h1.5V585.4z M738.8,578.5h-1.5v-3.4h1.5V578.5z M738.8,571.7h-1.5v-3.4h1.5V571.7z M738.8,564.8h-1.5v-3.4
			h1.5V564.8z M738.8,558h-1.5v-3.4h1.5V558z M738.8,551.1h-1.5v-3.4h1.5V551.1z M738.8,544.2h-1.5v-3.4h1.5V544.2z M738.8,537.4
			h-1.5V534h1.5V537.4z M738.8,530.5h-1.5v-3.4h1.5V530.5z M738.8,523.7h-1.5v-3.4h1.5V523.7z M738.8,516.8h-1.5v-3.4h1.5V516.8z
			 M738.8,510h-1.5v-3.4h1.5V510z M738.8,503.1h-1.5v-3.4h1.5V503.1z M738.8,496.3h-1.5v-3.4h1.5V496.3z M738.8,489.4h-1.5V486h1.5
			V489.4z M738.8,482.6h-1.5v-3.4h1.5V482.6z M738.8,475.7h-1.5v-3.4h1.5V475.7z M738.8,468.9h-1.5v-3.4h1.5V468.9z M738.8,462h-1.5
			v-3.4h1.5V462z M738.8,455.2h-1.5v-3.4h1.5V455.2z M738.8,448.3h-1.5v-3.4h1.5V448.3z M738.8,441.5h-1.5V438h1.5V441.5z
			 M738.8,434.6h-1.5v-3.4h1.5V434.6z M738.8,427.8h-1.5v-3.4h1.5V427.8z M738.8,420.9h-1.5v-3.4h1.5V420.9z M738.8,414.1h-1.5v-3.4
			h1.5V414.1z M738.8,407.2h-1.5v-3.4h1.5V407.2z M738.8,400.4h-1.5v-3.4h1.5V400.4z M738.8,393.5h-1.5v-3.4h1.5V393.5z
			 M738.8,386.7h-1.5v-3.4h1.5V386.7z M738.8,379.8h-1.5v-3.4h1.5V379.8z M738.8,373h-1.5v-3.4h1.5V373z M738.8,366.1h-1.5v-3.4h1.5
			V366.1z M738.8,359.3h-1.5v-3.4h1.5V359.3z M738.8,352.4h-1.5V349h1.5V352.4z M738.8,345.5h-1.5v-3.4h1.5V345.5z M738.8,338.7
			h-1.5v-3.4h1.5V338.7z M738.8,331.8h-1.5v-3.4h1.5V331.8z M738.8,325h-1.5v-3.4h1.5V325z M738.8,318.1h-1.5v-3.4h1.5V318.1z
			 M738.8,311.3h-1.5v-3.4h1.5V311.3z M738.8,304.4h-1.5V301h1.5V304.4z M738.8,297.6h-1.5v-3.4h1.5V297.6z M738.8,290.7h-1.5v-3.4
			h1.5V290.7z M738.8,283.9h-1.5v-3.4h1.5V283.9z M738.8,277h-1.5v-3.4h1.5V277z M738.8,270.2h-1.5v-3.4h1.5V270.2z M738.8,263.3
			h-1.5v-3.4h1.5V263.3z M738.8,256.5h-1.5v-3.4h1.5V256.5z M738.8,249.6h-1.5v-3.4h1.5V249.6z M738.8,242.8h-1.5v-3.4h1.5V242.8z
			 M738.8,235.9h-1.5v-3.4h1.5V235.9z M738.8,229.1h-1.5v-3.4h1.5V229.1z M738.8,222.2h-1.5v-3.4h1.5V222.2z M738.8,215.4h-1.5v-3.4
			h1.5V215.4z M738.8,208.5h-1.5v-3.4h1.5V208.5z M738.8,201.7h-1.5v-3.4h1.5V201.7z M738.8,194.8h-1.5v-3.4h1.5V194.8z M738.8,188
			h-1.5v-3.4h1.5V188z M738.8,181.1h-1.5v-3.4h1.5V181.1z M738.8,174.3h-1.5v-3.4h1.5V174.3z M738.8,167.4h-1.5V164h1.5V167.4z
			 M738.8,160.6h-1.5v-3.4h1.5V160.6z M738.8,153.7h-1.5v-3.4h1.5V153.7z M738.8,146.9h-1.5v-3.4h1.5V146.9z M738.8,140h-1.5v-3.4
			h1.5V140z M738.8,133.1h-1.5v-3.4h1.5V133.1z M738.8,126.3h-1.5v-3.4h1.5V126.3z M738.8,119.4h-1.5V116h1.5V119.4z M738.8,112.6
			h-1.5v-3.4h1.5V112.6z M738.8,105.7h-1.5v-3.4h1.5V105.7z M738.8,98.9h-1.5v-3.4h1.5V98.9z M738.8,92h-1.5v-3.4h1.5V92z
			 M738.8,85.2h-1.5v-3.4h1.5V85.2z M738.8,78.3h-1.5v-3.4h1.5V78.3z M738.8,71.5h-1.5v-3.4h1.5V71.5z M738.8,64.6h-1.5v-3.4h1.5
			V64.6z M738.8,57.8h-1.5v-3.4h1.5V57.8z M738.8,50.9h-1.5v-3.4h1.5V50.9z M738.8,44.1h-1.5v-3.4h1.5V44.1z M738.8,37.2h-1.5v-3.4
			h1.5V37.2z M738.8,30.4h-1.5v-3.4h1.5V30.4z M738.8,23.5h-1.5v-3.4h1.5V23.5z M738.8,16.7h-1.5v-3.4h1.5V16.7z M738.8,9.8h-1.5
			V6.4h1.5V9.8z"/>
		<rect x="737.3" y="657.3" class="st1" width="1.5" height="1.7"/>
	</g>
</g>
<g>
	<rect x="414.1" y="693.4" class="st1" width="1.5" height="14.7"/>
	<rect x="695.7" y="693.4" class="st1" width="1.5" height="14.7"/>
	<g>
		<rect x="414.6" y="700" class="st1" width="1.7" height="1.5"/>
		<path class="st1" d="M691.3,701.5h-3.4V700h3.4V701.5z M684.4,701.5H681V700h3.4V701.5z M677.6,701.5h-3.4V700h3.4V701.5z
			 M670.7,701.5h-3.4V700h3.4V701.5z M663.8,701.5h-3.4V700h3.4V701.5z M656.9,701.5h-3.4V700h3.4V701.5z M650.1,701.5h-3.4V700h3.4
			V701.5z M643.2,701.5h-3.4V700h3.4V701.5z M636.3,701.5h-3.4V700h3.4V701.5z M629.4,701.5H626V700h3.4V701.5z M622.6,701.5h-3.4
			V700h3.4V701.5z M615.7,701.5h-3.4V700h3.4V701.5z M608.8,701.5h-3.4V700h3.4V701.5z M601.9,701.5h-3.4V700h3.4V701.5z
			 M595.1,701.5h-3.4V700h3.4V701.5z M588.2,701.5h-3.4V700h3.4V701.5z M581.3,701.5h-3.4V700h3.4V701.5z M574.4,701.5H571V700h3.4
			V701.5z M567.6,701.5h-3.4V700h3.4V701.5z M560.7,701.5h-3.4V700h3.4V701.5z M553.8,701.5h-3.4V700h3.4V701.5z M546.9,701.5h-3.4
			V700h3.4V701.5z M540.1,701.5h-3.4V700h3.4V701.5z M533.2,701.5h-3.4V700h3.4V701.5z M526.3,701.5h-3.4V700h3.4V701.5z
			 M519.4,701.5H516V700h3.4V701.5z M512.5,701.5h-3.4V700h3.4V701.5z M505.7,701.5h-3.4V700h3.4V701.5z M498.8,701.5h-3.4V700h3.4
			V701.5z M491.9,701.5h-3.4V700h3.4V701.5z M485,701.5h-3.4V700h3.4V701.5z M478.2,701.5h-3.4V700h3.4V701.5z M471.3,701.5h-3.4
			V700h3.4V701.5z M464.4,701.5H461V700h3.4V701.5z M457.5,701.5h-3.4V700h3.4V701.5z M450.7,701.5h-3.4V700h3.4V701.5z
			 M443.8,701.5h-3.4V700h3.4V701.5z M436.9,701.5h-3.4V700h3.4V701.5z M430,701.5h-3.4V700h3.4V701.5z M423.2,701.5h-3.4V700h3.4
			V701.5z"/>
		<rect x="694.8" y="700" class="st1" width="1.7" height="1.5"/>
	</g>
</g>
<path class="st0" d="M324.7,354.2l-0.5-0.5c-8.8-9.3-19.3-13.9-32.1-13.9h-0.8l0-5.5h0.8c14.4,0,26.2,5.1,36.1,15.6l0.5,0.5
	L324.7,354.2z M292.9,338.3c12.7,0.2,23.1,4.7,31.9,13.8l1.8-1.7c-9.3-9.6-20.4-14.4-33.7-14.6L292.9,338.3z"/>
<path class="st2" d="M324.8,353.2"/>
<path class="st0" d="M414.6,455.2C414.6,455.2,414.6,455.2,414.6,455.2c-40.2-0.1-54.3-31.4-67.9-61.5
	c-6.8-15.2-13.3-29.5-22.8-39.7c-0.5-0.5-0.5-1.3,0-1.8l7.1-7c0.2-0.2,0.6-0.4,0.9-0.4c0.3,0,0.7,0.1,0.9,0.4
	c11.1,11.7,18.2,27.3,25,42.4l0.4,0.8c13,29,24.3,54,56.5,54.2c0.7,0,1.2,0.6,1.2,1.2l0,10c0,0.3-0.1,0.7-0.4,0.9
	C415.2,455.1,414.9,455.2,414.6,455.2z M326.5,353.2c9.4,10.4,15.7,24.5,22.5,39.5c13.1,29.1,26.7,59.3,64.3,60.1l0-7.5
	c-32.8-0.8-44.3-26.2-57.5-55.6l-0.4-0.8c-6.5-14.5-13.3-29.5-23.6-40.8L326.5,353.2z"/>
<g>
	<path class="st3" d="M62.4,757.7c0-8.1,3.3-13,9-13c5.8,0,9,4.8,9,13c0,8.1-3.3,13-9,13C65.7,770.6,62.4,765.8,62.4,757.7z
		 M77.7,757.7c0-6.7-2.1-10.4-6.2-10.4c-4.1,0-6.2,3.7-6.2,10.4c0,6.8,2.1,10.4,6.2,10.4C75.5,768.1,77.7,764.4,77.7,757.7z"/>
	<path class="st3" d="M87.4,765.9c1.3,0,2.4,1,2.4,2.3s-1,2.4-2.4,2.4c-1.3,0-2.3-1.1-2.3-2.4S86.1,765.9,87.4,765.9z"/>
	<path class="st3" d="M94.3,757.7c0-8.1,3.3-13,9-13c5.8,0,9,4.8,9,13c0,8.1-3.3,13-9,13C97.6,770.6,94.3,765.8,94.3,757.7z
		 M109.5,757.7c0-6.7-2.1-10.4-6.2-10.4c-4.1,0-6.2,3.7-6.2,10.4c0,6.8,2.1,10.4,6.2,10.4C107.4,768.1,109.5,764.4,109.5,757.7z"/>
	<path class="st3" d="M125.7,747.4c0-1.2,0.9-2,1.9-2c1.1,0,2,0.9,2,2c0,1-0.9,1.9-2,1.9C126.5,749.3,125.7,748.4,125.7,747.4z
		 M126.3,754.4c0-0.4,0.4-0.8,0.8-0.8h1.1c0.4,0,0.8,0.4,0.8,0.8v15c0,0.4-0.4,0.8-0.8,0.8h-1.1c-0.4,0-0.8-0.4-0.8-0.8V754.4z"/>
	<path class="st3" d="M134.6,754.4c0-0.4,0.4-0.8,0.8-0.8h0.6c0.4,0,0.6,0.1,0.6,0.5l0.4,1.3c0,0,2.1-2.1,5.6-2.1c4.8,0,6,3.1,6,7.4
		v8.8c0,0.4-0.4,0.8-0.8,0.8h-1.1c-0.4,0-0.8-0.4-0.8-0.8v-9.1c0-3.2-1.1-4.6-3.5-4.6c-3.1,0-5.1,2.3-5.1,2.3v11.5
		c0,0.4-0.4,0.8-0.8,0.8h-1.1c-0.4,0-0.8-0.4-0.8-0.8V754.4z"/>
	<path class="st3" d="M38.8,802.9c0-10.6,4.4-13.9,8.5-14.1c0.4,0,0.6,0.1,0.6,0.4l0.1,1c0.1,0.3-0.1,0.6-0.4,0.6
		c-4.5,0.9-6.3,5.1-6.3,12.2c0,7.1,1.8,11.3,6.3,12.2c0.3,0,0.4,0.3,0.4,0.6l-0.1,1c0,0.3-0.3,0.4-0.6,0.4
		C43.2,816.8,38.8,813.5,38.8,802.9z"/>
	<path class="st3" d="M50.7,801.7c0-8.1,3.3-13,9-13c5.8,0,9,4.8,9,13c0,8.1-3.3,13-9,13C54,814.6,50.7,809.8,50.7,801.7z
		 M65.9,801.7c0-6.7-2.1-10.4-6.2-10.4c-4.1,0-6.2,3.7-6.2,10.4c0,6.8,2.1,10.4,6.2,10.4C63.8,812.1,65.9,808.4,65.9,801.7z"/>
	<path class="st3" d="M73.8,801.7c0-8.1,3.3-13,9-13c5.8,0,9,4.8,9,13c0,8.1-3.3,13-9,13C77.1,814.6,73.8,809.8,73.8,801.7z
		 M89.1,801.7c0-6.7-2.1-10.4-6.2-10.4c-4.1,0-6.2,3.7-6.2,10.4c0,6.8,2.1,10.4,6.2,10.4C86.9,812.1,89.1,808.4,89.1,801.7z"/>
	<path class="st3" d="M105.9,798.4c0-0.4,0.4-0.8,0.8-0.8h0.6c0.4,0,0.6,0.1,0.6,0.5l0.4,1.3c0,0,1.7-2.1,5.1-2.1
		c2.5,0,3.8,0.9,4.9,2.6c0.2-0.1,2.6-2.6,5.9-2.6c4.8,0,6,3.1,6,7.4v8.8c0,0.4-0.4,0.8-0.8,0.8h-1.1c-0.4,0-0.8-0.4-0.8-0.8v-8.8
		c0-3.1-1-5-3.5-5c-2.7,0-4.2,1.8-4.8,2.3c0.1,0.7,0.2,1.9,0.2,2.7v8.8c0,0.4-0.4,0.8-0.8,0.8h-1.1c-0.4,0-0.8-0.4-0.8-0.8v-8.8
		c0-3.2-1-5-3.7-5c-3,0-4.5,2.3-4.5,2.3v11.5c0,0.4-0.4,0.8-0.8,0.8h-1.1c-0.4,0-0.8-0.4-0.8-0.8V798.4z"/>
	<path class="st3" d="M135.6,798.4c0-0.4,0.4-0.8,0.8-0.8h0.6c0.4,0,0.6,0.1,0.6,0.5l0.4,1.3c0,0,1.7-2.1,5.1-2.1
		c2.5,0,3.8,0.9,4.9,2.6c0.2-0.1,2.6-2.6,5.9-2.6c4.8,0,6,3.1,6,7.4v8.8c0,0.4-0.4,0.8-0.8,0.8h-1.1c-0.4,0-0.8-0.4-0.8-0.8v-8.8
		c0-3.1-1-5-3.5-5c-2.7,0-4.2,1.8-4.8,2.3c0.1,0.7,0.2,1.9,0.2,2.7v8.8c0,0.4-0.4,0.8-0.8,0.8h-1.1c-0.4,0-0.8-0.4-0.8-0.8v-8.8
		c0-3.2-1-5-3.7-5c-3,0-4.5,2.3-4.5,2.3v11.5c0,0.4-0.4,0.8-0.8,0.8h-1.1c-0.4,0-0.8-0.4-0.8-0.8V798.4z"/>
	<path class="st3" d="M169.8,802.9c0-7.1-1.8-11.3-6.3-12.2c-0.3,0-0.4-0.3-0.4-0.6l0.1-1c0-0.3,0.3-0.4,0.6-0.4
		c4.1,0.2,8.5,3.6,8.5,14.1c0,10.6-4.4,13.9-8.5,14.1c-0.4,0-0.6-0.1-0.6-0.4l-0.1-1c-0.1-0.3,0.1-0.6,0.4-0.6
		C168,814.2,169.8,810,169.8,802.9z"/>
</g>
<g>
	<path class="st3" d="M779.1,317.2l1-0.9c0.4-0.3,0.7-0.2,1,0.2c0.3,0.4,2.3,2.6,5.5,2.6c2.8,0,5.3-1.7,5.3-4.7c0-2.8-2-4.8-6.6-4.8
		h-2.1c-0.4,0-0.7-0.2-0.7-0.8v-0.9c0-0.6,0.2-0.8,0.8-0.8h2.1c4,0,5.9-2.1,5.9-4.5c0-2.9-2.2-4.7-4.9-4.7c-2.5,0-4,1.5-4.9,2.4
		c-0.2,0.3-0.6,0.4-0.9,0.1l-0.9-0.7c-0.3-0.3-0.3-0.7,0-1c0,0,2.7-3.3,6.7-3.3c4.5,0,7.7,2.6,7.7,6.8c0,2.8-2.2,5.1-3.9,5.9v0.1
		c1.8,0.7,4.5,2.6,4.5,5.9c0,4.2-3.1,7.3-8.2,7.3c-4.5,0-6.6-2.4-7.5-3.3C778.8,317.8,778.8,317.4,779.1,317.2z"/>
	<path class="st3" d="M801.6,316.7c1.3,0,2.4,1,2.4,2.3s-1,2.4-2.4,2.4c-1.3,0-2.3-1.1-2.3-2.4S800.3,316.7,801.6,316.7z"/>
	<path class="st3" d="M811.8,318.6h10.8c0.4,0,0.7,0.3,0.7,0.7v1c0,0.4-0.3,0.7-0.7,0.7h-14.1c-0.4,0-0.7-0.3-0.7-0.7v-0.5
		c0-0.4,0-0.6,0.5-1.1c2.9-3.1,5.7-6.3,8.6-9.3c2.5-2.8,3.7-5,3.7-6.7c0-2.1-1.4-4.7-5.2-4.7c-2.3,0-4.1,1.6-5.3,2.8
		c-0.3,0.3-0.7,0.3-1,0l-0.7-0.7c-0.2-0.3-0.3-0.7,0-1c0,0,2.6-3.6,7-3.6c5.3,0,8,3.3,8,7.1c0,3.3-2.1,5.7-4.6,8.4L811.8,318.6
		L811.8,318.6z"/>
	<path class="st3" d="M836.6,298.2c0-1.2,0.9-2,1.9-2c1.1,0,2,0.9,2,2c0,1-0.9,1.9-2,1.9C837.5,300.1,836.6,299.2,836.6,298.2z
		 M837.3,305.2c0-0.4,0.4-0.8,0.8-0.8h1.1c0.4,0,0.8,0.4,0.8,0.8v15c0,0.4-0.4,0.8-0.8,0.8h-1.1c-0.4,0-0.8-0.4-0.8-0.8V305.2z"/>
	<path class="st3" d="M845.6,305.2c0-0.4,0.4-0.8,0.8-0.8h0.6c0.4,0,0.6,0.1,0.6,0.5l0.4,1.3c0,0,2.1-2.1,5.6-2.1c4.8,0,6,3.1,6,7.4
		v8.8c0,0.4-0.4,0.8-0.8,0.8h-1.1c-0.4,0-0.8-0.4-0.8-0.8v-9.1c0-3.2-1.1-4.6-3.5-4.6c-3.1,0-5.1,2.3-5.1,2.3v11.5
		c0,0.4-0.4,0.8-0.8,0.8h-1.1c-0.4,0-0.8-0.4-0.8-0.8V305.2z"/>
	<path class="st3" d="M778.8,353.7c0-10.6,4.4-13.9,8.5-14.1c0.4,0,0.6,0.1,0.6,0.4l0.1,1c0.1,0.3-0.1,0.6-0.4,0.6
		c-4.5,0.9-6.3,5.1-6.3,12.2c0,7.1,1.8,11.3,6.3,12.2c0.3,0,0.4,0.3,0.4,0.6l-0.1,1c0,0.3-0.3,0.4-0.6,0.4
		C783.2,367.6,778.8,364.3,778.8,353.7z"/>
	<path class="st3" d="M795.6,352.1v-0.1c-1.7-0.8-3.8-2.9-3.8-5.7c0-4.1,3.2-6.7,7.7-6.7c4.5,0,7.7,2.6,7.7,6.7c0,2.8-2.2,5-3.8,5.7
		v0.1c1.7,0.7,4.5,3,4.5,6.2c0,4-3,7.2-8.4,7.2c-5.3,0-8.3-3.1-8.3-7.2C791.2,355,793.9,352.8,795.6,352.1z M799.4,363.2
		c3.3,0,5.6-1.8,5.6-4.7c0-2.3-2.1-4.6-5.5-5c-3.6,0.4-5.6,2.7-5.6,5C793.9,361.3,796.1,363.2,799.4,363.2z M804.4,346.3
		c0-2.8-2.2-4.6-4.9-4.6c-2.8,0-4.9,1.8-4.9,4.6c0,2.3,1.5,4.1,4.9,4.4C802.9,350.4,804.4,348.6,804.4,346.3z"/>
	<path class="st3" d="M816.1,362.6h10.8c0.4,0,0.7,0.3,0.7,0.7v1c0,0.4-0.3,0.7-0.7,0.7h-14.1c-0.4,0-0.7-0.3-0.7-0.7v-0.5
		c0-0.4,0-0.6,0.5-1.1c2.9-3.1,5.7-6.3,8.6-9.3c2.5-2.8,3.7-5,3.7-6.7c0-2.1-1.4-4.7-5.2-4.7c-2.3,0-4.1,1.6-5.3,2.8
		c-0.3,0.3-0.7,0.3-1,0l-0.7-0.7c-0.2-0.3-0.3-0.7,0-1c0,0,2.6-3.6,7-3.6c5.3,0,8,3.3,8,7.1c0,3.3-2.1,5.7-4.6,8.4L816.1,362.6
		L816.1,362.6z"/>
	<path class="st3" d="M841.6,349.2c0-0.4,0.4-0.8,0.8-0.8h0.6c0.4,0,0.6,0.1,0.6,0.5l0.4,1.3c0,0,1.7-2.1,5.1-2.1
		c2.5,0,3.8,0.9,4.9,2.6c0.2-0.1,2.6-2.6,5.9-2.6c4.8,0,6,3.1,6,7.4v8.8c0,0.4-0.4,0.8-0.8,0.8h-1.1c-0.4,0-0.8-0.4-0.8-0.8v-8.8
		c0-3.1-1-5-3.5-5c-2.7,0-4.2,1.8-4.8,2.3c0.1,0.7,0.2,1.9,0.2,2.7v8.8c0,0.4-0.4,0.8-0.8,0.8h-1.1c-0.4,0-0.8-0.4-0.8-0.8v-8.8
		c0-3.2-1-5-3.7-5c-3,0-4.5,2.3-4.5,2.3v11.5c0,0.4-0.4,0.8-0.8,0.8h-1.1c-0.4,0-0.8-0.4-0.8-0.8V349.2z"/>
	<path class="st3" d="M871.4,349.2c0-0.4,0.4-0.8,0.8-0.8h0.6c0.4,0,0.6,0.1,0.6,0.5l0.4,1.3c0,0,1.7-2.1,5.1-2.1
		c2.5,0,3.8,0.9,4.9,2.6c0.2-0.1,2.6-2.6,5.9-2.6c4.8,0,6,3.1,6,7.4v8.8c0,0.4-0.4,0.8-0.8,0.8h-1.1c-0.4,0-0.8-0.4-0.8-0.8v-8.8
		c0-3.1-1-5-3.5-5c-2.7,0-4.2,1.8-4.8,2.3c0.1,0.7,0.2,1.9,0.2,2.7v8.8c0,0.4-0.4,0.8-0.8,0.8h-1.1c-0.4,0-0.8-0.4-0.8-0.8v-8.8
		c0-3.2-1-5-3.7-5c-3,0-4.5,2.3-4.5,2.3v11.5c0,0.4-0.4,0.8-0.8,0.8h-1.1c-0.4,0-0.8-0.4-0.8-0.8V349.2z"/>
	<path class="st3" d="M905.6,353.7c0-7.1-1.8-11.3-6.3-12.2c-0.3,0-0.4-0.3-0.4-0.6l0.1-1c0-0.3,0.3-0.4,0.6-0.4
		c4.1,0.2,8.5,3.6,8.5,14.1c0,10.6-4.4,13.9-8.5,14.1c-0.4,0-0.6-0.1-0.6-0.4l-0.1-1c-0.1-0.3,0.1-0.6,0.4-0.6
		C903.8,365,905.6,360.7,905.6,353.7z"/>
</g>
<g>
	<path class="st3" d="M521.1,749.7l-2.6,2.1c-0.3,0.2-0.6,0.3-0.8,0l-0.7-0.8c-0.3-0.3-0.1-0.6,0.1-0.8l4.9-4.8
		c0.2-0.2,0.4-0.3,0.6-0.3h0.6c0.4,0,0.7,0.3,0.7,0.7v23.8c0,0.4-0.3,0.7-0.7,0.7h-1.3c-0.4,0-0.7-0.3-0.7-0.7L521.1,749.7
		L521.1,749.7z"/>
	<path class="st3" d="M532.1,765.9c1.3,0,2.4,1,2.4,2.3s-1,2.4-2.4,2.4c-1.3,0-2.3-1.1-2.3-2.4S530.8,765.9,532.1,765.9z"/>
	<path class="st3" d="M543.4,757.3v-0.1c-1.7-0.8-3.8-2.9-3.8-5.7c0-4.1,3.2-6.7,7.7-6.7c4.5,0,7.7,2.6,7.7,6.7c0,2.8-2.2,5-3.8,5.7
		v0.1c1.7,0.7,4.5,3,4.5,6.2c0,4-3,7.2-8.4,7.2c-5.3,0-8.3-3.1-8.3-7.2C538.9,760.2,541.6,758,543.4,757.3z M547.2,768.4
		c3.3,0,5.6-1.8,5.6-4.7c0-2.3-2.1-4.6-5.5-5c-3.6,0.4-5.6,2.7-5.6,5C541.7,766.5,543.8,768.4,547.2,768.4z M552.2,751.5
		c0-2.8-2.2-4.6-4.9-4.6c-2.8,0-4.9,1.8-4.9,4.6c0,2.3,1.5,4.1,4.9,4.4C550.6,755.6,552.2,753.8,552.2,751.5z"/>
	<path class="st3" d="M568.8,747.4c0-1.2,0.9-2,1.9-2c1.1,0,2,0.9,2,2c0,1-0.9,1.9-2,1.9C569.6,749.3,568.8,748.4,568.8,747.4z
		 M569.5,754.4c0-0.4,0.4-0.8,0.8-0.8h1.1c0.4,0,0.8,0.4,0.8,0.8v15c0,0.4-0.4,0.8-0.8,0.8h-1.1c-0.4,0-0.8-0.4-0.8-0.8V754.4z"/>
	<path class="st3" d="M577.7,754.4c0-0.4,0.4-0.8,0.8-0.8h0.6c0.4,0,0.6,0.1,0.6,0.5l0.4,1.3c0,0,2.1-2.1,5.6-2.1c4.8,0,6,3.1,6,7.4
		v8.8c0,0.4-0.4,0.8-0.8,0.8h-1.1c-0.4,0-0.8-0.4-0.8-0.8v-9.1c0-3.2-1.1-4.6-3.5-4.6c-3.1,0-5.1,2.3-5.1,2.3v11.5
		c0,0.4-0.4,0.8-0.8,0.8h-1.1c-0.4,0-0.8-0.4-0.8-0.8V754.4z"/>
	<path class="st3" d="M474.6,802.9c0-10.6,4.4-13.9,8.5-14.1c0.4,0,0.6,0.1,0.6,0.4l0.1,1c0.1,0.3-0.1,0.6-0.4,0.6
		c-4.5,0.9-6.3,5.1-6.3,12.2c0,7.1,1.8,11.3,6.3,12.2c0.3,0,0.4,0.3,0.4,0.6l-0.1,1c0,0.3-0.3,0.4-0.6,0.4
		C479,816.8,474.6,813.5,474.6,802.9z"/>
	<path class="st3" d="M484.3,807.8v-1c0-0.3,0.1-0.4,0.2-0.6l13.7-17.1c0.3-0.3,0.4-0.4,0.9-0.4h0.6c0.4,0,0.7,0.3,0.7,0.7v16.8h3
		c0.4,0,0.7,0.3,0.7,0.6v0.9c0,0.4-0.3,0.7-0.7,0.7h-3v5c0,0.4-0.3,0.7-0.7,0.7h-1.2c-0.4,0-0.7-0.3-0.7-0.7v-5H485
		C484.6,808.5,484.3,808.2,484.3,807.8z M497.7,793.3l-10.3,12.7v0.2h10.4L497.7,793.3L497.7,793.3z"/>
	<path class="st3" d="M506.8,807.8v-1c0-0.3,0.1-0.4,0.2-0.6l13.7-17.1c0.3-0.3,0.4-0.4,0.9-0.4h0.6c0.4,0,0.7,0.3,0.7,0.7v16.8h3
		c0.4,0,0.7,0.3,0.7,0.6v0.9c0,0.4-0.3,0.7-0.7,0.7h-3v5c0,0.4-0.3,0.7-0.7,0.7H521c-0.4,0-0.7-0.3-0.7-0.7v-5h-12.8
		C507.1,808.5,506.8,808.2,506.8,807.8z M520.2,793.3l-10.3,12.7v0.2h10.4L520.2,793.3L520.2,793.3z"/>
	<path class="st3" d="M532.6,809.9c1.3,0,2.4,1,2.4,2.3s-1,2.4-2.4,2.4c-1.3,0-2.3-1.1-2.3-2.4S531.3,809.9,532.6,809.9z"/>
	<path class="st3" d="M539.7,810.3c0.3-0.3,0.5-0.6,0.9-0.8c0.3-0.3,0.6-0.4,0.9,0c0.8,0.9,2.3,2.7,5.5,2.7c3.6,0,5.8-3.1,5.8-6.1
		c0-2.9-1.9-5.3-5.8-5.3h-5.7c-0.7,0-1.2-0.7-1.2-1.3v-9.8c0-0.4,0.3-0.7,0.7-0.7h11.2c0.4,0,0.7,0.3,0.7,0.7v1.1
		c0,0.4-0.3,0.7-0.7,0.7h-9.4v6.8h4.3c5.6,0,8.6,3,8.6,7.8c0,4.6-3.6,8.5-8.6,8.5c-4.1,0-6.2-1.9-7.2-3.1
		C539.3,811,539.3,810.7,539.7,810.3z"/>
	<path class="st3" d="M568.8,798.4c0-0.4,0.4-0.8,0.8-0.8h0.6c0.4,0,0.6,0.1,0.6,0.5l0.4,1.3c0,0,1.7-2.1,5.1-2.1
		c2.5,0,3.8,0.9,4.9,2.6c0.2-0.1,2.6-2.6,5.9-2.6c4.8,0,6,3.1,6,7.4v8.8c0,0.4-0.4,0.8-0.8,0.8h-1.1c-0.4,0-0.8-0.4-0.8-0.8v-8.8
		c0-3.1-1-5-3.5-5c-2.7,0-4.2,1.8-4.8,2.3c0.1,0.7,0.2,1.9,0.2,2.7v8.8c0,0.4-0.4,0.8-0.8,0.8h-1.1c-0.4,0-0.8-0.4-0.8-0.8v-8.8
		c0-3.2-1-5-3.7-5c-3,0-4.5,2.3-4.5,2.3v11.5c0,0.4-0.4,0.8-0.8,0.8h-1.1c-0.4,0-0.8-0.4-0.8-0.8V798.4z"/>
	<path class="st3" d="M598.6,798.4c0-0.4,0.4-0.8,0.8-0.8h0.6c0.4,0,0.6,0.1,0.6,0.5l0.4,1.3c0,0,1.7-2.1,5.1-2.1
		c2.5,0,3.8,0.9,4.9,2.6c0.2-0.1,2.6-2.6,5.9-2.6c4.8,0,6,3.1,6,7.4v8.8c0,0.4-0.4,0.8-0.8,0.8h-1.1c-0.4,0-0.8-0.4-0.8-0.8v-8.8
		c0-3.1-1-5-3.5-5c-2.7,0-4.2,1.8-4.8,2.3c0.1,0.7,0.2,1.9,0.2,2.7v8.8c0,0.4-0.4,0.8-0.8,0.8h-1.1c-0.4,0-0.8-0.4-0.8-0.8v-8.8
		c0-3.2-1-5-3.7-5c-3,0-4.5,2.3-4.5,2.3v11.5c0,0.4-0.4,0.8-0.8,0.8h-1.1c-0.4,0-0.8-0.4-0.8-0.8V798.4z"/>
	<path class="st3" d="M632.8,802.9c0-7.1-1.8-11.3-6.3-12.2c-0.3,0-0.4-0.3-0.4-0.6l0.1-1c0-0.3,0.3-0.4,0.6-0.4
		c4.1,0.2,8.5,3.6,8.5,14.1c0,10.6-4.4,13.9-8.5,14.1c-0.4,0-0.6-0.1-0.6-0.4l-0.1-1c-0.1-0.3,0.1-0.6,0.4-0.6
		C631,814.2,632.8,810,632.8,802.9z"/>
</g>
</svg>
