<?xml version="1.0" encoding="utf-8"?>
<!-- Generator: Adobe Illustrator 21.1.0, SVG Export Plug-In . SVG Version: 6.00 Build 0)  -->
<svg version="1.1" id="Layer_1" xmlns="http://www.w3.org/2000/svg" xmlns:xlink="http://www.w3.org/1999/xlink" x="0px" y="0px"
	 viewBox="0 0 901.7 930.4" style="enable-background:new 0 0 901.7 930.4;" xml:space="preserve">
<style type="text/css">
	.st0{fill:#FFFFFF;}
	.st1{fill:#6A6967;}
	.st2{fill:#A2A19F;}
</style>
<path class="st0" d="M666.1,773.2H228.3c-11.2,0-20.2-9.1-20.2-20.2V20.2c0-11.2,9.1-20.2,20.2-20.2h437.8
	c11.2,0,20.2,9.1,20.2,20.2V753C686.4,764.1,677.3,773.2,666.1,773.2z M228.3,2.5c-9.8,0-17.7,8-17.7,17.7V753
	c0,9.8,8,17.7,17.7,17.7h437.8c9.8,0,17.7-8,17.7-17.7V20.2c0-9.8-8-17.7-17.7-17.7H228.3z"/>
<path class="st0" d="M523.7,417.7H370.7c-3.8,0-7-3.1-7-7V257.7c0-3.8,3.1-7,7-7h153.1c3.8,0,7,3.1,7,7v153.1
	C530.7,414.6,527.6,417.7,523.7,417.7z M370.7,252.2c-3,0-5.5,2.5-5.5,5.5v153.1c0,3,2.5,5.5,5.5,5.5h153.1c3,0,5.5-2.5,5.5-5.5
	V257.7c0-3-2.5-5.5-5.5-5.5H370.7z"/>
<path class="st0" d="M437.1,215c-3.1,0-5.7-2.5-5.7-5.7s2.5-5.7,5.7-5.7s5.7,2.5,5.7,5.7S440.2,215,437.1,215z M437.1,205.2
	c-2.3,0-4.2,1.9-4.2,4.2s1.9,4.2,4.2,4.2s4.2-1.9,4.2-4.2S439.4,205.2,437.1,205.2z"/>
<path class="st0" d="M456.2,215c-3.1,0-5.7-2.5-5.7-5.7s2.5-5.7,5.7-5.7c3.1,0,5.7,2.5,5.7,5.7S459.3,215,456.2,215z M456.2,205.2
	c-2.3,0-4.2,1.9-4.2,4.2s1.9,4.2,4.2,4.2s4.2-1.9,4.2-4.2S458.5,205.2,456.2,205.2z"/>
<g>
	<g>
		<path class="st0" d="M476,632.9h-1.4c0-7.2-2.8-14-8-19.1c-5.1-5.1-12-7.9-19.2-7.9s-14.1,2.8-19.2,7.9c-5.1,5.1-8,11.9-8,19.1
			h-1.4c0-7.6,3-14.7,8.4-20.1c5.4-5.4,12.6-8.3,20.2-8.3c7.6,0,14.8,3,20.2,8.3C473,618.1,476,625.3,476,632.9z"/>
	</g>
	<path class="st0" d="M438.5,614.2c0-2.1,1.7-3.9,3.9-3.9s3.9,1.7,3.9,3.9s-1.7,3.9-3.9,3.9S438.5,616.3,438.5,614.2z M442.4,616.7
		c1.4,0,2.5-1.1,2.5-2.5s-1.1-2.5-2.5-2.5s-2.5,1.1-2.5,2.5S441,616.7,442.4,616.7z"/>
	<path class="st0" d="M452.4,618.1c-2.1,0-3.9-1.7-3.9-3.9s1.7-3.9,3.9-3.9c2.1,0,3.9,1.7,3.9,3.9S454.6,618.1,452.4,618.1z
		 M454.9,614.2c0-1.4-1.1-2.5-2.5-2.5s-2.5,1.1-2.5,2.5s1.1,2.5,2.5,2.5S454.9,615.6,454.9,614.2z"/>
	<polygon class="st0" points="435.6,622.9 432.5,619.7 438.6,620 439.1,619.6 433.9,614.3 432.9,615.3 436.1,618.5 429.9,618.2 
		429.5,618.6 434.6,623.9 	"/>
	<polygon class="st0" points="456.8,620.5 460,617.3 459.7,623.4 460.2,623.9 465.4,618.6 464.4,617.7 461.2,620.8 461.4,614.7 
		461,614.3 455.8,619.5 	"/>
</g>
<path class="st0" d="M535.5,646.8H358.9c-14.7,0-26.6-12-26.6-26.6V153c0-14.7,12-26.6,26.6-26.6h176.6c14.7,0,26.6,12,26.6,26.6
	v467.2C562.2,634.9,550.2,646.8,535.5,646.8z M358.9,128.9c-13.3,0-24.1,10.8-24.1,24.1v467.2c0,13.3,10.8,24.1,24.1,24.1h176.6
	c13.3,0,24.1-10.8,24.1-24.1V153c0-13.3-10.8-24.1-24.1-24.1H358.9z"/>
<g>
	<rect x="719.4" y="3" class="st1" width="14.7" height="1.5"/>
	<rect x="719.4" y="771.2" class="st1" width="14.7" height="1.5"/>
	<g>
		<rect x="726" y="3.8" class="st1" width="1.5" height="1.7"/>
		<path class="st1" d="M727.5,766.8H726v-3.4h1.5V766.8z M727.5,760H726v-3.4h1.5V760z M727.5,753.1H726v-3.4h1.5V753.1z
			 M727.5,746.2H726v-3.4h1.5V746.2z M727.5,739.4H726V736h1.5V739.4z M727.5,732.5H726v-3.4h1.5V732.5z M727.5,725.7H726v-3.4h1.5
			V725.7z M727.5,718.8H726v-3.4h1.5V718.8z M727.5,712H726v-3.4h1.5V712z M727.5,705.1H726v-3.4h1.5V705.1z M727.5,698.2H726v-3.4
			h1.5V698.2z M727.5,691.4H726v-3.4h1.5V691.4z M727.5,684.5H726v-3.4h1.5V684.5z M727.5,677.7H726v-3.4h1.5V677.7z M727.5,670.8
			H726v-3.4h1.5V670.8z M727.5,663.9H726v-3.4h1.5V663.9z M727.5,657.1H726v-3.4h1.5V657.1z M727.5,650.2H726v-3.4h1.5V650.2z
			 M727.5,643.4H726v-3.4h1.5V643.4z M727.5,636.5H726v-3.4h1.5V636.5z M727.5,629.6H726v-3.4h1.5V629.6z M727.5,622.8H726v-3.4h1.5
			V622.8z M727.5,615.9H726v-3.4h1.5V615.9z M727.5,609.1H726v-3.4h1.5V609.1z M727.5,602.2H726v-3.4h1.5V602.2z M727.5,595.4H726
			v-3.4h1.5V595.4z M727.5,588.5H726v-3.4h1.5V588.5z M727.5,581.6H726v-3.4h1.5V581.6z M727.5,574.8H726v-3.4h1.5V574.8z
			 M727.5,567.9H726v-3.4h1.5V567.9z M727.5,561.1H726v-3.4h1.5V561.1z M727.5,554.2H726v-3.4h1.5V554.2z M727.5,547.3H726v-3.4h1.5
			V547.3z M727.5,540.5H726v-3.4h1.5V540.5z M727.5,533.6H726v-3.4h1.5V533.6z M727.5,526.8H726v-3.4h1.5V526.8z M727.5,519.9H726
			v-3.4h1.5V519.9z M727.5,513H726v-3.4h1.5V513z M727.5,506.2H726v-3.4h1.5V506.2z M727.5,499.3H726v-3.4h1.5V499.3z M727.5,492.5
			H726V489h1.5V492.5z M727.5,485.6H726v-3.4h1.5V485.6z M727.5,478.8H726v-3.4h1.5V478.8z M727.5,471.9H726v-3.4h1.5V471.9z
			 M727.5,465H726v-3.4h1.5V465z M727.5,458.2H726v-3.4h1.5V458.2z M727.5,451.3H726v-3.4h1.5V451.3z M727.5,444.5H726V441h1.5
			V444.5z M727.5,437.6H726v-3.4h1.5V437.6z M727.5,430.7H726v-3.4h1.5V430.7z M727.5,423.9H726v-3.4h1.5V423.9z M727.5,417H726
			v-3.4h1.5V417z M727.5,410.2H726v-3.4h1.5V410.2z M727.5,403.3H726v-3.4h1.5V403.3z M727.5,396.4H726V393h1.5V396.4z M727.5,389.6
			H726v-3.4h1.5V389.6z M727.5,382.7H726v-3.4h1.5V382.7z M727.5,375.9H726v-3.4h1.5V375.9z M727.5,369H726v-3.4h1.5V369z
			 M727.5,362.1H726v-3.4h1.5V362.1z M727.5,355.3H726v-3.4h1.5V355.3z M727.5,348.4H726V345h1.5V348.4z M727.5,341.6H726v-3.4h1.5
			V341.6z M727.5,334.7H726v-3.4h1.5V334.7z M727.5,327.9H726v-3.4h1.5V327.9z M727.5,321H726v-3.4h1.5V321z M727.5,314.1H726v-3.4
			h1.5V314.1z M727.5,307.3H726v-3.4h1.5V307.3z M727.5,300.4H726V297h1.5V300.4z M727.5,293.6H726v-3.4h1.5V293.6z M727.5,286.7
			H726v-3.4h1.5V286.7z M727.5,279.8H726v-3.4h1.5V279.8z M727.5,273H726v-3.4h1.5V273z M727.5,266.1H726v-3.4h1.5V266.1z
			 M727.5,259.3H726v-3.4h1.5V259.3z M727.5,252.4H726V249h1.5V252.4z M727.5,245.5H726v-3.4h1.5V245.5z M727.5,238.7H726v-3.4h1.5
			V238.7z M727.5,231.8H726v-3.4h1.5V231.8z M727.5,225H726v-3.4h1.5V225z M727.5,218.1H726v-3.4h1.5V218.1z M727.5,211.3H726v-3.4
			h1.5V211.3z M727.5,204.4H726V201h1.5V204.4z M727.5,197.5H726v-3.4h1.5V197.5z M727.5,190.7H726v-3.4h1.5V190.7z M727.5,183.8
			H726v-3.4h1.5V183.8z M727.5,177H726v-3.4h1.5V177z M727.5,170.1H726v-3.4h1.5V170.1z M727.5,163.2H726v-3.4h1.5V163.2z
			 M727.5,156.4H726V153h1.5V156.4z M727.5,149.5H726v-3.4h1.5V149.5z M727.5,142.7H726v-3.4h1.5V142.7z M727.5,135.8H726v-3.4h1.5
			V135.8z M727.5,128.9H726v-3.4h1.5V128.9z M727.5,122.1H726v-3.4h1.5V122.1z M727.5,115.2H726v-3.4h1.5V115.2z M727.5,108.4H726
			v-3.4h1.5V108.4z M727.5,101.5H726v-3.4h1.5V101.5z M727.5,94.7H726v-3.4h1.5V94.7z M727.5,87.8H726v-3.4h1.5V87.8z M727.5,80.9
			H726v-3.4h1.5V80.9z M727.5,74.1H726v-3.4h1.5V74.1z M727.5,67.2H726v-3.4h1.5V67.2z M727.5,60.4H726v-3.4h1.5V60.4z M727.5,53.5
			H726v-3.4h1.5V53.5z M727.5,46.6H726v-3.4h1.5V46.6z M727.5,39.8H726v-3.4h1.5V39.8z M727.5,32.9H726v-3.4h1.5V32.9z M727.5,26.1
			H726v-3.4h1.5V26.1z M727.5,19.2H726v-3.4h1.5V19.2z M727.5,12.3H726V8.9h1.5V12.3z"/>
		<rect x="726" y="770.3" class="st1" width="1.5" height="1.7"/>
	</g>
</g>
<g>
	<rect x="208.8" y="808.4" class="st1" width="1.5" height="14.7"/>
	<rect x="684.4" y="808.4" class="st1" width="1.5" height="14.7"/>
	<g>
		<rect x="209.3" y="815" class="st1" width="1.7" height="1.5"/>
		<path class="st1" d="M680,816.5h-3.4V815h3.4V816.5z M673.1,816.5h-3.4V815h3.4V816.5z M666.2,816.5h-3.4V815h3.4V816.5z
			 M659.3,816.5h-3.4V815h3.4V816.5z M652.4,816.5h-3.4V815h3.4V816.5z M645.5,816.5H642V815h3.4V816.5z M638.6,816.5h-3.4V815h3.4
			V816.5z M631.7,816.5h-3.4V815h3.4V816.5z M624.8,816.5h-3.4V815h3.4V816.5z M617.9,816.5h-3.4V815h3.4V816.5z M611,816.5h-3.4
			V815h3.4V816.5z M604.1,816.5h-3.4V815h3.4V816.5z M597.2,816.5h-3.4V815h3.4V816.5z M590.3,816.5h-3.4V815h3.4V816.5z
			 M583.4,816.5H580V815h3.4V816.5z M576.5,816.5h-3.4V815h3.4V816.5z M569.6,816.5h-3.4V815h3.4V816.5z M562.7,816.5h-3.4V815h3.4
			V816.5z M555.8,816.5h-3.4V815h3.4V816.5z M548.9,816.5h-3.4V815h3.4V816.5z M542,816.5h-3.4V815h3.4V816.5z M535.1,816.5h-3.4
			V815h3.4V816.5z M528.2,816.5h-3.4V815h3.4V816.5z M521.4,816.5h-3.4V815h3.4V816.5z M514.5,816.5H511V815h3.4V816.5z
			 M507.6,816.5h-3.4V815h3.4V816.5z M500.7,816.5h-3.4V815h3.4V816.5z M493.8,816.5h-3.4V815h3.4V816.5z M486.9,816.5h-3.4V815h3.4
			V816.5z M480,816.5h-3.4V815h3.4V816.5z M473.1,816.5h-3.4V815h3.4V816.5z M466.2,816.5h-3.4V815h3.4V816.5z M459.3,816.5h-3.4
			V815h3.4V816.5z M452.4,816.5h-3.4V815h3.4V816.5z M445.5,816.5H442V815h3.4V816.5z M438.6,816.5h-3.4V815h3.4V816.5z
			 M431.7,816.5h-3.4V815h3.4V816.5z M424.8,816.5h-3.4V815h3.4V816.5z M417.9,816.5h-3.4V815h3.4V816.5z M411,816.5h-3.4V815h3.4
			V816.5z M404.1,816.5h-3.4V815h3.4V816.5z M397.2,816.5h-3.4V815h3.4V816.5z M390.3,816.5h-3.4V815h3.4V816.5z M383.4,816.5H380
			V815h3.4V816.5z M376.5,816.5h-3.4V815h3.4V816.5z M369.6,816.5h-3.4V815h3.4V816.5z M362.7,816.5h-3.4V815h3.4V816.5z
			 M355.8,816.5h-3.4V815h3.4V816.5z M348.9,816.5h-3.4V815h3.4V816.5z M342.1,816.5h-3.4V815h3.4V816.5z M335.2,816.5h-3.4V815h3.4
			V816.5z M328.3,816.5h-3.4V815h3.4V816.5z M321.4,816.5h-3.4V815h3.4V816.5z M314.5,816.5H311V815h3.4V816.5z M307.6,816.5h-3.4
			V815h3.4V816.5z M300.7,816.5h-3.4V815h3.4V816.5z M293.8,816.5h-3.4V815h3.4V816.5z M286.9,816.5h-3.4V815h3.4V816.5z M280,816.5
			h-3.4V815h3.4V816.5z M273.1,816.5h-3.4V815h3.4V816.5z M266.2,816.5h-3.4V815h3.4V816.5z M259.3,816.5h-3.4V815h3.4V816.5z
			 M252.4,816.5H249V815h3.4V816.5z M245.5,816.5h-3.4V815h3.4V816.5z M238.6,816.5h-3.4V815h3.4V816.5z M231.7,816.5h-3.4V815h3.4
			V816.5z M224.8,816.5h-3.4V815h3.4V816.5z M217.9,816.5h-3.4V815h3.4V816.5z"/>
		<rect x="683.4" y="815" class="st1" width="1.7" height="1.5"/>
	</g>
</g>
<g>
	<rect x="28.1" y="808.4" class="st1" width="1.5" height="14.7"/>
	<rect x="103.6" y="808.4" class="st1" width="1.5" height="14.7"/>
	<g>
		<rect x="28.6" y="815" class="st1" width="1.7" height="1.5"/>
		<path class="st1" d="M99.2,816.5h-3.4V815h3.4V816.5z M92.3,816.5h-3.4V815h3.4V816.5z M85.4,816.5H82V815h3.4V816.5z M78.5,816.5
			h-3.4V815h3.4V816.5z M71.6,816.5h-3.4V815h3.4V816.5z M64.8,816.5h-3.4V815h3.4V816.5z M57.9,816.5h-3.4V815h3.4V816.5z
			 M51,816.5h-3.4V815H51V816.5z M44.1,816.5h-3.4V815h3.4V816.5z M37.2,816.5h-3.4V815h3.4V816.5z"/>
		<rect x="102.6" y="815" class="st1" width="1.7" height="1.5"/>
	</g>
</g>
<path class="st0" d="M52.9,774.2H29.5c-1.1,0-2-0.9-2-2V3c0-1.1,0.9-2,2-2h23.4c1.1,0,2,0.9,2,2v769.2
	C54.9,773.3,54,774.2,52.9,774.2z M30,771.7h22.4V3.5H30V771.7z"/>
<g>
	<path class="st0" d="M103.1,647.6H89.8c-1,0-1.9-0.6-2.3-1.5l-5.3-12.7c-19.8-47.2-29.8-97-29.8-148.2V134.4c0-1.1,0.7-2.1,1.8-2.4
		l13.5-4.3c0.8-0.2,1.6-0.1,2.2,0.4c0.6,0.5,1,1.2,1,2v355c0,50.8,10,100.4,29.6,147.2l4.9,11.7c0.3,0.8,0.2,1.7-0.2,2.4
		C104.7,647.2,103.9,647.6,103.1,647.6z M68.4,130.2l-13.5,4.3l0,350.8c0,50.8,10,100.4,29.6,147.2l5.3,12.7l13.3,0c0,0,0,0,0,0
		l-4.9-11.7c-19.8-47.2-29.8-97.1-29.8-148.2V130.2z"/>
	<path class="st0" d="M70.4,598.4H53.6c-0.7,0-1.2-0.6-1.2-1.2s0.6-1.2,1.2-1.2h16.8c0.7,0,1.2,0.6,1.2,1.2S71.1,598.4,70.4,598.4z"
		/>
</g>
<g>
	<path class="st2" d="M23.6,871c0-8.1,3.3-13,9-13c5.8,0,9,4.8,9,13c0,8.1-3.3,13-9,13C26.9,883.9,23.6,879.1,23.6,871z M38.9,871
		c0-6.7-2.1-10.4-6.2-10.4c-4.1,0-6.2,3.7-6.2,10.4c0,6.8,2.1,10.4,6.2,10.4C36.7,881.4,38.9,877.7,38.9,871z"/>
	<path class="st2" d="M48.6,879.2c1.3,0,2.4,1,2.4,2.3s-1,2.4-2.4,2.4c-1.3,0-2.3-1.1-2.3-2.4S47.3,879.2,48.6,879.2z"/>
	<path class="st2" d="M55.5,871c0-8.1,3.3-13,9-13c5.8,0,9,4.8,9,13c0,8.1-3.3,13-9,13C58.8,883.9,55.5,879.1,55.5,871z M70.7,871
		c0-6.7-2.1-10.4-6.2-10.4c-4.1,0-6.2,3.7-6.2,10.4c0,6.8,2.1,10.4,6.2,10.4C68.6,881.4,70.7,877.7,70.7,871z"/>
	<path class="st2" d="M86.8,860.7c0-1.2,0.9-2,1.9-2c1.1,0,2,0.9,2,2c0,1-0.9,1.9-2,1.9C87.7,862.7,86.8,861.8,86.8,860.7z
		 M87.5,867.7c0-0.4,0.4-0.8,0.8-0.8h1.1c0.4,0,0.8,0.4,0.8,0.8v15c0,0.4-0.4,0.8-0.8,0.8h-1.1c-0.4,0-0.8-0.4-0.8-0.8V867.7z"/>
	<path class="st2" d="M95.8,867.7c0-0.4,0.4-0.8,0.8-0.8h0.6c0.4,0,0.6,0.1,0.6,0.5l0.4,1.3c0,0,2.1-2.1,5.6-2.1c4.8,0,6,3.1,6,7.4
		v8.8c0,0.4-0.4,0.8-0.8,0.8h-1.1c-0.4,0-0.8-0.4-0.8-0.8v-9.1c0-3.2-1.1-4.6-3.5-4.6c-3.1,0-5.1,2.3-5.1,2.3v11.5
		c0,0.4-0.4,0.8-0.8,0.8h-1.1c-0.4,0-0.8-0.4-0.8-0.8V867.7z"/>
	<path class="st2" d="M0,916.2c0-10.6,4.4-13.9,8.5-14.1c0.4,0,0.6,0.1,0.6,0.4l0.1,1c0.1,0.3-0.1,0.6-0.4,0.6
		c-4.5,0.9-6.3,5.1-6.3,12.2c0,7.1,1.8,11.3,6.3,12.2c0.3,0,0.4,0.3,0.4,0.6l-0.1,1c0,0.3-0.3,0.4-0.6,0.4
		C4.4,930.2,0,926.8,0,916.2z"/>
	<path class="st2" d="M11.9,915c0-8.1,3.3-13,9-13c5.8,0,9,4.8,9,13c0,8.1-3.3,13-9,13C15.2,927.9,11.9,923.1,11.9,915z M27.1,915
		c0-6.7-2.1-10.4-6.2-10.4c-4.1,0-6.2,3.7-6.2,10.4c0,6.8,2.1,10.4,6.2,10.4C25,925.4,27.1,921.7,27.1,915z"/>
	<path class="st2" d="M35,915c0-8.1,3.3-13,9-13c5.8,0,9,4.8,9,13c0,8.1-3.3,13-9,13C38.3,927.9,35,923.1,35,915z M50.3,915
		c0-6.7-2.1-10.4-6.2-10.4c-4.1,0-6.2,3.7-6.2,10.4c0,6.8,2.1,10.4,6.2,10.4C48.1,925.4,50.3,921.7,50.3,915z"/>
	<path class="st2" d="M67.1,911.7c0-0.4,0.4-0.8,0.8-0.8h0.6c0.4,0,0.6,0.1,0.6,0.5l0.4,1.3c0,0,1.7-2.1,5.1-2.1
		c2.5,0,3.8,0.9,4.9,2.6c0.2-0.1,2.6-2.6,5.9-2.6c4.8,0,6,3.1,6,7.4v8.8c0,0.4-0.4,0.8-0.8,0.8h-1.1c-0.4,0-0.8-0.4-0.8-0.8V918
		c0-3.1-1-5-3.5-5c-2.7,0-4.2,1.8-4.8,2.3c0.1,0.7,0.2,1.9,0.2,2.7v8.8c0,0.4-0.4,0.8-0.8,0.8h-1.1c-0.4,0-0.8-0.4-0.8-0.8V918
		c0-3.2-1-5-3.7-5c-3,0-4.5,2.3-4.5,2.3v11.5c0,0.4-0.4,0.8-0.8,0.8h-1.1c-0.4,0-0.8-0.4-0.8-0.8V911.7z"/>
	<path class="st2" d="M96.8,911.7c0-0.4,0.4-0.8,0.8-0.8h0.6c0.4,0,0.6,0.1,0.6,0.5l0.4,1.3c0,0,1.7-2.1,5.1-2.1
		c2.5,0,3.8,0.9,4.9,2.6c0.2-0.1,2.6-2.6,5.9-2.6c4.8,0,6,3.1,6,7.4v8.8c0,0.4-0.4,0.8-0.8,0.8h-1.1c-0.4,0-0.8-0.4-0.8-0.8V918
		c0-3.1-1-5-3.5-5c-2.7,0-4.2,1.8-4.8,2.3c0.1,0.7,0.2,1.9,0.2,2.7v8.8c0,0.4-0.4,0.8-0.8,0.8h-1.1c-0.4,0-0.8-0.4-0.8-0.8V918
		c0-3.2-1-5-3.7-5c-3,0-4.5,2.3-4.5,2.3v11.5c0,0.4-0.4,0.8-0.8,0.8h-1.1c-0.4,0-0.8-0.4-0.8-0.8V911.7z"/>
	<path class="st2" d="M131,916.2c0-7.1-1.8-11.3-6.3-12.2c-0.3,0-0.4-0.3-0.4-0.6l0.1-1c0-0.3,0.3-0.4,0.6-0.4
		c4.1,0.2,8.5,3.6,8.5,14.1c0,10.6-4.4,13.9-8.5,14.1c-0.4,0-0.6-0.1-0.6-0.4l-0.1-1c-0.1-0.3,0.1-0.6,0.4-0.6
		C129.2,927.5,131,923.3,131,916.2z"/>
</g>
<g>
	<path class="st2" d="M404.3,871c0-8.1,3.3-13,9-13c5.8,0,9,4.8,9,13c0,8.1-3.3,13-9,13C407.6,883.9,404.3,879.1,404.3,871z
		 M419.5,871c0-6.7-2.1-10.4-6.2-10.4c-4.1,0-6.2,3.7-6.2,10.4c0,6.8,2.1,10.4,6.2,10.4C417.4,881.4,419.5,877.7,419.5,871z"/>
	<path class="st2" d="M429.2,879.2c1.3,0,2.4,1,2.4,2.3s-1,2.4-2.4,2.4c-1.3,0-2.3-1.1-2.3-2.4S428,879.2,429.2,879.2z"/>
	<path class="st2" d="M436.2,871c0-8.1,3.3-13,9-13c5.8,0,9,4.8,9,13c0,8.1-3.3,13-9,13C439.4,883.9,436.2,879.1,436.2,871z
		 M451.4,871c0-6.7-2.1-10.4-6.2-10.4c-4.1,0-6.2,3.7-6.2,10.4c0,6.8,2.1,10.4,6.2,10.4C449.3,881.4,451.4,877.7,451.4,871z"/>
	<path class="st2" d="M467.5,860.7c0-1.2,0.9-2,1.9-2c1.1,0,2,0.9,2,2c0,1-0.9,1.9-2,1.9C468.4,862.7,467.5,861.8,467.5,860.7z
		 M468.2,867.7c0-0.4,0.4-0.8,0.8-0.8h1.1c0.4,0,0.8,0.4,0.8,0.8v15c0,0.4-0.4,0.8-0.8,0.8H469c-0.4,0-0.8-0.4-0.8-0.8V867.7z"/>
	<path class="st2" d="M476.5,867.7c0-0.4,0.4-0.8,0.8-0.8h0.6c0.4,0,0.6,0.1,0.6,0.5l0.4,1.3c0,0,2.1-2.1,5.6-2.1c4.8,0,6,3.1,6,7.4
		v8.8c0,0.4-0.4,0.8-0.8,0.8h-1.1c-0.4,0-0.8-0.4-0.8-0.8v-9.1c0-3.2-1.1-4.6-3.5-4.6c-3.1,0-5.1,2.3-5.1,2.3v11.5
		c0,0.4-0.4,0.8-0.8,0.8h-1.1c-0.4,0-0.8-0.4-0.8-0.8V867.7z"/>
	<path class="st2" d="M380.7,916.2c0-10.6,4.4-13.9,8.5-14.1c0.4,0,0.6,0.1,0.6,0.4l0.1,1c0.1,0.3-0.1,0.6-0.4,0.6
		c-4.5,0.9-6.3,5.1-6.3,12.2c0,7.1,1.8,11.3,6.3,12.2c0.3,0,0.4,0.3,0.4,0.6l-0.1,1c0,0.3-0.3,0.4-0.6,0.4
		C385.1,930.2,380.7,926.8,380.7,916.2z"/>
	<path class="st2" d="M392.6,915c0-8.1,3.3-13,9-13c5.8,0,9,4.8,9,13c0,8.1-3.3,13-9,13C395.9,927.9,392.6,923.1,392.6,915z
		 M407.8,915c0-6.7-2.1-10.4-6.2-10.4c-4.1,0-6.2,3.7-6.2,10.4c0,6.8,2.1,10.4,6.2,10.4C405.7,925.4,407.8,921.7,407.8,915z"/>
	<path class="st2" d="M415.7,915c0-8.1,3.3-13,9-13c5.8,0,9,4.8,9,13c0,8.1-3.3,13-9,13C419,927.9,415.7,923.1,415.7,915z
		 M430.9,915c0-6.7-2.1-10.4-6.2-10.4c-4.1,0-6.2,3.7-6.2,10.4c0,6.8,2.1,10.4,6.2,10.4C428.8,925.4,430.9,921.7,430.9,915z"/>
	<path class="st2" d="M447.7,911.7c0-0.4,0.4-0.8,0.8-0.8h0.6c0.4,0,0.6,0.1,0.6,0.5l0.4,1.3c0,0,1.7-2.1,5.1-2.1
		c2.5,0,3.8,0.9,4.9,2.6c0.2-0.1,2.6-2.6,5.9-2.6c4.8,0,6,3.1,6,7.4v8.8c0,0.4-0.4,0.8-0.8,0.8h-1.1c-0.4,0-0.8-0.4-0.8-0.8V918
		c0-3.1-1-5-3.5-5c-2.7,0-4.2,1.8-4.8,2.3c0.1,0.7,0.2,1.9,0.2,2.7v8.8c0,0.4-0.4,0.8-0.8,0.8h-1.1c-0.4,0-0.8-0.4-0.8-0.8V918
		c0-3.2-1-5-3.7-5c-3,0-4.5,2.3-4.5,2.3v11.5c0,0.4-0.4,0.8-0.8,0.8h-1.1c-0.4,0-0.8-0.4-0.8-0.8V911.7z"/>
	<path class="st2" d="M477.5,911.7c0-0.4,0.4-0.8,0.8-0.8h0.6c0.4,0,0.6,0.1,0.6,0.5l0.4,1.3c0,0,1.7-2.1,5.1-2.1
		c2.5,0,3.8,0.9,4.9,2.6c0.2-0.1,2.6-2.6,5.9-2.6c4.8,0,6,3.1,6,7.4v8.8c0,0.4-0.4,0.8-0.8,0.8H500c-0.4,0-0.8-0.4-0.8-0.8V918
		c0-3.1-1-5-3.5-5c-2.7,0-4.2,1.8-4.8,2.3c0.1,0.7,0.2,1.9,0.2,2.7v8.8c0,0.4-0.4,0.8-0.8,0.8h-1.1c-0.4,0-0.8-0.4-0.8-0.8V918
		c0-3.2-1-5-3.7-5c-3,0-4.5,2.3-4.5,2.3v11.5c0,0.4-0.4,0.8-0.8,0.8h-1.1c-0.4,0-0.8-0.4-0.8-0.8V911.7z"/>
	<path class="st2" d="M511.7,916.2c0-7.1-1.8-11.3-6.3-12.2c-0.3,0-0.4-0.3-0.4-0.6l0.1-1c0-0.3,0.3-0.4,0.6-0.4
		c4.1,0.2,8.5,3.6,8.5,14.1c0,10.6-4.4,13.9-8.5,14.1c-0.4,0-0.6-0.1-0.6-0.4l-0.1-1c-0.1-0.3,0.1-0.6,0.4-0.6
		C509.9,927.5,511.7,923.3,511.7,916.2z"/>
</g>
<g>
	<path class="st2" d="M768.8,362.4c0-8.1,3.3-13,9-13c5.8,0,9,4.8,9,13c0,8.1-3.3,13-9,13C772,375.4,768.8,370.5,768.8,362.4z
		 M784,362.4c0-6.7-2.1-10.4-6.2-10.4c-4.1,0-6.2,3.7-6.2,10.4c0,6.8,2.1,10.4,6.2,10.4C781.9,372.8,784,369.2,784,362.4z"/>
	<path class="st2" d="M793.7,370.6c1.3,0,2.4,1,2.4,2.3s-1,2.4-2.4,2.4c-1.3,0-2.3-1.1-2.3-2.4S792.4,370.6,793.7,370.6z"/>
	<path class="st2" d="M800.6,362.4c0-8.1,3.3-13,9-13c5.8,0,9,4.8,9,13c0,8.1-3.3,13-9,13C803.9,375.4,800.6,370.5,800.6,362.4z
		 M815.8,362.4c0-6.7-2.1-10.4-6.2-10.4c-4.1,0-6.2,3.7-6.2,10.4c0,6.8,2.1,10.4,6.2,10.4C813.7,372.8,815.8,369.2,815.8,362.4z"/>
	<path class="st2" d="M832,352.1c0-1.2,0.9-2,1.9-2c1.1,0,2,0.9,2,2c0,1-0.9,1.9-2,1.9C832.8,354.1,832,353.2,832,352.1z
		 M832.7,359.2c0-0.4,0.4-0.8,0.8-0.8h1.1c0.4,0,0.8,0.4,0.8,0.8v15c0,0.4-0.4,0.8-0.8,0.8h-1.1c-0.4,0-0.8-0.4-0.8-0.8V359.2z"/>
	<path class="st2" d="M840.9,359.2c0-0.4,0.4-0.8,0.8-0.8h0.6c0.4,0,0.6,0.1,0.6,0.5l0.4,1.3c0,0,2.1-2.1,5.6-2.1c4.8,0,6,3.1,6,7.4
		v8.8c0,0.4-0.4,0.8-0.8,0.8H853c-0.4,0-0.8-0.4-0.8-0.8v-9.1c0-3.2-1.1-4.6-3.5-4.6c-3.1,0-5.1,2.3-5.1,2.3v11.5
		c0,0.4-0.4,0.8-0.8,0.8h-1.1c-0.4,0-0.8-0.4-0.8-0.8V359.2z"/>
	<path class="st2" d="M768.1,407.7c0-10.6,4.4-13.9,8.5-14.1c0.4,0,0.6,0.1,0.6,0.4l0.1,1c0.1,0.3-0.1,0.6-0.4,0.6
		c-4.5,0.9-6.3,5.1-6.3,12.2c0,7.1,1.8,11.3,6.3,12.2c0.3,0,0.4,0.3,0.4,0.6l-0.1,1c0,0.3-0.3,0.4-0.6,0.4
		C772.5,421.6,768.1,418.2,768.1,407.7z"/>
	<path class="st2" d="M780.1,406.4c0-8.1,3.3-13,9-13c5.8,0,9,4.8,9,13c0,8.1-3.3,13-9,13C783.3,419.4,780.1,414.5,780.1,406.4z
		 M795.3,406.4c0-6.7-2.1-10.4-6.2-10.4c-4.1,0-6.2,3.7-6.2,10.4c0,6.8,2.1,10.4,6.2,10.4C793.2,416.8,795.3,413.2,795.3,406.4z"/>
	<path class="st2" d="M803.2,406.4c0-8.1,3.3-13,9-13c5.8,0,9,4.8,9,13c0,8.1-3.3,13-9,13C806.4,419.4,803.2,414.5,803.2,406.4z
		 M818.4,406.4c0-6.7-2.1-10.4-6.2-10.4c-4.1,0-6.2,3.7-6.2,10.4c0,6.8,2.1,10.4,6.2,10.4C816.3,416.8,818.4,413.2,818.4,406.4z"/>
	<path class="st2" d="M835.2,403.2c0-0.4,0.4-0.8,0.8-0.8h0.6c0.4,0,0.6,0.1,0.6,0.5l0.4,1.3c0,0,1.7-2.1,5.1-2.1
		c2.5,0,3.8,0.9,4.9,2.6c0.2-0.1,2.6-2.6,5.9-2.6c4.8,0,6,3.1,6,7.4v8.8c0,0.4-0.4,0.8-0.8,0.8h-1.1c-0.4,0-0.8-0.4-0.8-0.8v-8.8
		c0-3.1-1-5-3.5-5c-2.7,0-4.2,1.8-4.8,2.3c0.1,0.7,0.2,1.9,0.2,2.7v8.8c0,0.4-0.4,0.8-0.8,0.8h-1.1c-0.4,0-0.8-0.4-0.8-0.8v-8.8
		c0-3.2-1-5-3.7-5c-3,0-4.5,2.3-4.5,2.3v11.5c0,0.4-0.4,0.8-0.8,0.8H836c-0.4,0-0.8-0.4-0.8-0.8V403.2z"/>
	<path class="st2" d="M865,403.2c0-0.4,0.4-0.8,0.8-0.8h0.6c0.4,0,0.6,0.1,0.6,0.5l0.4,1.3c0,0,1.7-2.1,5.1-2.1
		c2.5,0,3.8,0.9,4.9,2.6c0.2-0.1,2.6-2.6,5.9-2.6c4.8,0,6,3.1,6,7.4v8.8c0,0.4-0.4,0.8-0.8,0.8h-1.1c-0.4,0-0.8-0.4-0.8-0.8v-8.8
		c0-3.1-1-5-3.5-5c-2.7,0-4.2,1.8-4.8,2.3c0.1,0.7,0.2,1.9,0.2,2.7v8.8c0,0.4-0.4,0.8-0.8,0.8h-1.1c-0.4,0-0.8-0.4-0.8-0.8v-8.8
		c0-3.2-1-5-3.7-5c-3,0-4.5,2.3-4.5,2.3v11.5c0,0.4-0.4,0.8-0.8,0.8h-1.1c-0.4,0-0.8-0.4-0.8-0.8V403.2z"/>
	<path class="st2" d="M899.1,407.7c0-7.1-1.8-11.3-6.3-12.2c-0.3,0-0.4-0.3-0.4-0.6l0.1-1c0-0.3,0.3-0.4,0.6-0.4
		c4.1,0.2,8.5,3.6,8.5,14.1c0,10.6-4.4,13.9-8.5,14.1c-0.4,0-0.6-0.1-0.6-0.4l-0.1-1c-0.1-0.3,0.1-0.6,0.4-0.6
		C897.3,419,899.1,414.7,899.1,407.7z"/>
</g>
</svg>
