<?xml version="1.0" encoding="utf-8"?>
<!-- Generator: Adobe Illustrator 21.1.0, SVG Export Plug-In . SVG Version: 6.00 Build 0)  -->
<svg version="1.1" id="Layer_1" xmlns="http://www.w3.org/2000/svg" xmlns:xlink="http://www.w3.org/1999/xlink" x="0px" y="0px"
	 viewBox="0 0 706.5 676.1" style="enable-background:new 0 0 706.5 676.1;" xml:space="preserve">
<style type="text/css">
	.st0{fill:#FFFFFF;}
	.st1{fill:#6A6967;}
	.st2{fill:#A2A19F;}
</style>
<path class="st0" d="M458.3,291.3H305.2c-3.8,0-7-3.1-7-7V131.3c0-3.8,3.1-7,7-7h153.1c3.8,0,7,3.1,7,7v153.1
	C465.2,288.2,462.1,291.3,458.3,291.3z M305.2,125.8c-3,0-5.5,2.5-5.5,5.5v153.1c0,3,2.5,5.5,5.5,5.5h153.1c3,0,5.5-2.5,5.5-5.5
	V131.3c0-3-2.5-5.5-5.5-5.5H305.2z"/>
<path class="st0" d="M371.6,88.6c-3.1,0-5.7-2.5-5.7-5.7s2.5-5.7,5.7-5.7s5.7,2.5,5.7,5.7S374.7,88.6,371.6,88.6z M371.6,78.8
	c-2.3,0-4.2,1.9-4.2,4.2s1.9,4.2,4.2,4.2s4.2-1.9,4.2-4.2S373.9,78.8,371.6,78.8z"/>
<path class="st0" d="M390.7,88.6c-3.1,0-5.7-2.5-5.7-5.7s2.5-5.7,5.7-5.7c3.1,0,5.7,2.5,5.7,5.7S393.8,88.6,390.7,88.6z M390.7,78.8
	c-2.3,0-4.2,1.9-4.2,4.2s1.9,4.2,4.2,4.2c2.3,0,4.2-1.9,4.2-4.2S393,78.8,390.7,78.8z"/>
<g>
	<g>
		<path class="st0" d="M410.5,506.5h-1.4c0-7.2-2.8-14-8-19.1c-5.1-5.1-12-7.9-19.2-7.9c-7.3,0-14.1,2.8-19.2,7.9
			c-5.1,5.1-8,11.9-8,19.1h-1.4c0-7.6,3-14.7,8.4-20.1c5.4-5.4,12.6-8.3,20.2-8.3c7.6,0,14.8,3,20.2,8.3
			C407.5,491.8,410.5,498.9,410.5,506.5z"/>
	</g>
	<path class="st0" d="M373.1,487.8c0-2.1,1.7-3.9,3.9-3.9c2.1,0,3.9,1.7,3.9,3.9c0,2.1-1.7,3.9-3.9,3.9
		C374.8,491.7,373.1,489.9,373.1,487.8z M376.9,490.3c1.4,0,2.5-1.1,2.5-2.5s-1.1-2.5-2.5-2.5s-2.5,1.1-2.5,2.5
		S375.6,490.3,376.9,490.3z"/>
	<path class="st0" d="M386.9,491.7c-2.1,0-3.9-1.7-3.9-3.9c0-2.1,1.7-3.9,3.9-3.9s3.9,1.7,3.9,3.9
		C390.8,489.9,389.1,491.7,386.9,491.7z M389.4,487.8c0-1.4-1.1-2.5-2.5-2.5s-2.5,1.1-2.5,2.5s1.1,2.5,2.5,2.5
		S389.4,489.2,389.4,487.8z"/>
	<polygon class="st0" points="370.1,496.5 367,493.3 373.1,493.6 373.6,493.2 368.4,487.9 367.4,488.9 370.6,492.1 364.4,491.8 
		364,492.2 369.1,497.5 	"/>
	<polygon class="st0" points="391.3,494.1 394.5,490.9 394.2,497 394.7,497.5 399.9,492.2 398.9,491.3 395.7,494.4 396,488.3 
		395.5,487.9 390.3,493.1 	"/>
</g>
<path class="st0" d="M470,520.4H293.4c-14.7,0-26.6-12-26.6-26.6V26.6c0-14.7,12-26.6,26.6-26.6H470c14.7,0,26.6,12,26.6,26.6v467.2
	C496.7,508.5,484.7,520.4,470,520.4z M293.4,2.5c-13.3,0-24.1,10.8-24.1,24.1v467.2c0,13.3,10.8,24.1,24.1,24.1H470
	c13.3,0,24.1-10.8,24.1-24.1V26.6c0-13.3-10.8-24.1-24.1-24.1H293.4z"/>
<path class="st0" d="M165.5,520.4h-13.3c-1,0-1.9-0.6-2.3-1.5l-5.3-12.7c-19.8-47.2-29.8-97-29.8-148.2V7.3c0-1.1,0.7-2.1,1.8-2.4
	L130,0.6c0.8-0.2,1.6-0.1,2.2,0.4c0.6,0.5,1,1.2,1,2v355c0,50.8,10,100.4,29.6,147.2l4.9,11.7c0.3,0.8,0.2,1.7-0.2,2.4
	S166.3,520.4,165.5,520.4z M130.8,3l-13.5,4.3l0,350.8c0,50.8,10,100.3,29.6,147.2l5.3,12.7l13.3,0c0,0,0,0,0,0l-4.9-11.7
	c-19.8-47.2-29.8-97.1-29.8-148.2V3z"/>
<path class="st0" d="M132.8,471.2H94c-1.4,0-2.5-1.1-2.5-2.5v-9.9h-9.6l-0.6,9.8c0,0.6-0.3,1.3-0.8,1.8c-0.5,0.5-1.2,0.7-1.9,0.7
	l-32.2-2.4c-0.7,0-1.3-0.3-1.7-0.9c-12.3-14.2-42.9-22.1-43.2-22.2c-0.6-0.1-0.9-0.6-0.9-1.2V86.6c0-0.6,0.4-1.1,0.9-1.2
	c0.3-0.1,31-8,43.2-22.2c0.4-0.5,1.1-0.8,1.7-0.9l47.5-2.5l22.1,0c0.7,0,1.2,0.6,1.2,1.2s-0.6,1.2-1.2,1.2H94l-47.4,2.5
	C34.9,78.3,8.4,86.1,3,87.6v355.7c5.4,1.5,31.9,9.2,43.6,22.7l32.2,2.4l0.7-11c0-0.7,0.6-1.2,1.2-1.2h12c0.7,0,1.2,0.6,1.2,1.2v11.2
	l38.8,0c0.7,0,1.2,0.6,1.2,1.2S133.5,471.2,132.8,471.2z"/>
<rect x="92.4" y="61.1" class="st0" width="1.5" height="396.4"/>
<g>
	<rect x="529.7" y="0.5" class="st1" width="14.7" height="1.5"/>
	<rect x="529.7" y="518.4" class="st1" width="14.7" height="1.5"/>
	<g>
		<rect x="536.3" y="1.3" class="st1" width="1.5" height="1.7"/>
		<path class="st1" d="M537.8,514h-1.5v-3.5h1.5V514z M537.8,507.1h-1.5v-3.5h1.5V507.1z M537.8,500.2h-1.5v-3.5h1.5V500.2z
			 M537.8,493.3h-1.5v-3.5h1.5V493.3z M537.8,486.4h-1.5v-3.5h1.5V486.4z M537.8,479.5h-1.5V476h1.5V479.5z M537.8,472.6h-1.5v-3.5
			h1.5V472.6z M537.8,465.7h-1.5v-3.5h1.5V465.7z M537.8,458.8h-1.5v-3.5h1.5V458.8z M537.8,451.9h-1.5v-3.5h1.5V451.9z M537.8,445
			h-1.5v-3.5h1.5V445z M537.8,438.1h-1.5v-3.5h1.5V438.1z M537.8,431.1h-1.5v-3.5h1.5V431.1z M537.8,424.2h-1.5v-3.5h1.5V424.2z
			 M537.8,417.3h-1.5v-3.5h1.5V417.3z M537.8,410.4h-1.5V407h1.5V410.4z M537.8,403.5h-1.5v-3.5h1.5V403.5z M537.8,396.6h-1.5v-3.5
			h1.5V396.6z M537.8,389.7h-1.5v-3.5h1.5V389.7z M537.8,382.8h-1.5v-3.5h1.5V382.8z M537.8,375.9h-1.5v-3.5h1.5V375.9z M537.8,369
			h-1.5v-3.5h1.5V369z M537.8,362.1h-1.5v-3.5h1.5V362.1z M537.8,355.2h-1.5v-3.5h1.5V355.2z M537.8,348.3h-1.5v-3.5h1.5V348.3z
			 M537.8,341.4h-1.5v-3.5h1.5V341.4z M537.8,334.5h-1.5V331h1.5V334.5z M537.8,327.6h-1.5v-3.5h1.5V327.6z M537.8,320.6h-1.5v-3.5
			h1.5V320.6z M537.8,313.7h-1.5v-3.5h1.5V313.7z M537.8,306.8h-1.5v-3.5h1.5V306.8z M537.8,299.9h-1.5v-3.5h1.5V299.9z M537.8,293
			h-1.5v-3.5h1.5V293z M537.8,286.1h-1.5v-3.5h1.5V286.1z M537.8,279.2h-1.5v-3.5h1.5V279.2z M537.8,272.3h-1.5v-3.5h1.5V272.3z
			 M537.8,265.4h-1.5v-3.5h1.5V265.4z M537.8,258.5h-1.5V255h1.5V258.5z M537.8,251.6h-1.5v-3.5h1.5V251.6z M537.8,244.7h-1.5v-3.5
			h1.5V244.7z M537.8,237.8h-1.5v-3.5h1.5V237.8z M537.8,230.9h-1.5v-3.5h1.5V230.9z M537.8,224h-1.5v-3.5h1.5V224z M537.8,217.1
			h-1.5v-3.5h1.5V217.1z M537.8,210.2h-1.5v-3.5h1.5V210.2z M537.8,203.2h-1.5v-3.5h1.5V203.2z M537.8,196.3h-1.5v-3.5h1.5V196.3z
			 M537.8,189.4h-1.5V186h1.5V189.4z M537.8,182.5h-1.5v-3.5h1.5V182.5z M537.8,175.6h-1.5v-3.5h1.5V175.6z M537.8,168.7h-1.5v-3.5
			h1.5V168.7z M537.8,161.8h-1.5v-3.5h1.5V161.8z M537.8,154.9h-1.5v-3.5h1.5V154.9z M537.8,148h-1.5v-3.5h1.5V148z M537.8,141.1
			h-1.5v-3.5h1.5V141.1z M537.8,134.2h-1.5v-3.5h1.5V134.2z M537.8,127.3h-1.5v-3.5h1.5V127.3z M537.8,120.4h-1.5v-3.5h1.5V120.4z
			 M537.8,113.5h-1.5V110h1.5V113.5z M537.8,106.6h-1.5v-3.5h1.5V106.6z M537.8,99.7h-1.5v-3.5h1.5V99.7z M537.8,92.7h-1.5v-3.5h1.5
			V92.7z M537.8,85.8h-1.5v-3.5h1.5V85.8z M537.8,78.9h-1.5v-3.5h1.5V78.9z M537.8,72h-1.5v-3.5h1.5V72z M537.8,65.1h-1.5v-3.5h1.5
			V65.1z M537.8,58.2h-1.5v-3.5h1.5V58.2z M537.8,51.3h-1.5v-3.5h1.5V51.3z M537.8,44.4h-1.5V41h1.5V44.4z M537.8,37.5h-1.5V34h1.5
			V37.5z M537.8,30.6h-1.5v-3.5h1.5V30.6z M537.8,23.7h-1.5v-3.5h1.5V23.7z M537.8,16.8h-1.5v-3.5h1.5V16.8z M537.8,9.9h-1.5V6.4
			h1.5V9.9z"/>
		<rect x="536.3" y="517.5" class="st1" width="1.5" height="1.7"/>
	</g>
</g>
<g>
	<rect x="267.3" y="553.4" class="st1" width="1.5" height="14.7"/>
	<rect x="494.7" y="553.4" class="st1" width="1.5" height="14.7"/>
	<g>
		<rect x="268" y="560" class="st1" width="1.7" height="1.5"/>
		<path class="st1" d="M490.3,561.5h-3.4V560h3.4V561.5z M483.4,561.5h-3.4V560h3.4V561.5z M476.5,561.5H473V560h3.4V561.5z
			 M469.6,561.5h-3.4V560h3.4V561.5z M462.7,561.5h-3.4V560h3.4V561.5z M455.8,561.5h-3.4V560h3.4V561.5z M448.9,561.5h-3.4V560h3.4
			V561.5z M442,561.5h-3.4V560h3.4V561.5z M435.1,561.5h-3.4V560h3.4V561.5z M428.2,561.5h-3.4V560h3.4V561.5z M421.4,561.5h-3.4
			V560h3.4V561.5z M414.5,561.5H411V560h3.4V561.5z M407.6,561.5h-3.4V560h3.4V561.5z M400.7,561.5h-3.4V560h3.4V561.5z
			 M393.8,561.5h-3.4V560h3.4V561.5z M386.9,561.5h-3.4V560h3.4V561.5z M380,561.5h-3.4V560h3.4V561.5z M373.1,561.5h-3.4V560h3.4
			V561.5z M366.2,561.5h-3.4V560h3.4V561.5z M359.3,561.5h-3.4V560h3.4V561.5z M352.4,561.5H349V560h3.4V561.5z M345.6,561.5h-3.4
			V560h3.4V561.5z M338.7,561.5h-3.4V560h3.4V561.5z M331.8,561.5h-3.4V560h3.4V561.5z M324.9,561.5h-3.4V560h3.4V561.5z M318,561.5
			h-3.4V560h3.4V561.5z M311.1,561.5h-3.4V560h3.4V561.5z M304.2,561.5h-3.4V560h3.4V561.5z M297.3,561.5h-3.4V560h3.4V561.5z
			 M290.4,561.5H287V560h3.4V561.5z M283.5,561.5h-3.4V560h3.4V561.5z M276.6,561.5h-3.4V560h3.4V561.5z"/>
		<rect x="493.7" y="560" class="st1" width="1.7" height="1.5"/>
	</g>
</g>
<g>
	<rect x="0" y="553.4" class="st1" width="1.5" height="14.7"/>
	<rect x="166" y="553.4" class="st1" width="1.5" height="14.7"/>
	<g>
		<rect x="0.7" y="560" class="st1" width="1.7" height="1.5"/>
		<path class="st1" d="M161.6,561.5h-3.5V560h3.5V561.5z M154.7,561.5h-3.5V560h3.5V561.5z M147.7,561.5h-3.5V560h3.5V561.5z
			 M140.8,561.5h-3.5V560h3.5V561.5z M133.9,561.5h-3.5V560h3.5V561.5z M127,561.5h-3.5V560h3.5V561.5z M120.1,561.5h-3.5V560h3.5
			V561.5z M113.1,561.5h-3.5V560h3.5V561.5z M106.2,561.5h-3.5V560h3.5V561.5z M99.3,561.5h-3.5V560h3.5V561.5z M92.4,561.5h-3.5
			V560h3.5V561.5z M85.5,561.5H82V560h3.5V561.5z M78.6,561.5h-3.5V560h3.5V561.5z M71.6,561.5h-3.5V560h3.5V561.5z M64.7,561.5
			h-3.5V560h3.5V561.5z M57.8,561.5h-3.5V560h3.5V561.5z M50.9,561.5h-3.5V560h3.5V561.5z M44,561.5h-3.5V560H44V561.5z M37.1,561.5
			h-3.5V560h3.5V561.5z M30.1,561.5h-3.5V560h3.5V561.5z M23.2,561.5h-3.5V560h3.5V561.5z M16.3,561.5h-3.5V560h3.5V561.5z
			 M9.4,561.5H5.9V560h3.5V561.5z"/>
		<rect x="165" y="560" class="st1" width="1.7" height="1.5"/>
	</g>
</g>
<g>
	<path class="st2" d="M42.3,616.6c0-8.1,3.3-13,9-13c5.8,0,9,4.8,9,13c0,8.1-3.3,13-9,13C45.6,629.6,42.3,624.7,42.3,616.6z
		 M57.5,616.6c0-6.7-2.1-10.4-6.2-10.4c-4.1,0-6.2,3.7-6.2,10.4c0,6.8,2.1,10.4,6.2,10.4C55.4,627.1,57.5,623.4,57.5,616.6z"/>
	<path class="st2" d="M67.3,624.9c1.3,0,2.4,1,2.4,2.3s-1,2.4-2.4,2.4c-1.3,0-2.3-1.1-2.3-2.4S66,624.9,67.3,624.9z"/>
	<path class="st2" d="M78.6,616.3v-0.1c-1.7-0.8-3.8-2.9-3.8-5.7c0-4.1,3.2-6.7,7.7-6.7c4.5,0,7.7,2.6,7.7,6.7c0,2.8-2.2,5-3.8,5.7
		v0.1c1.7,0.7,4.5,3,4.5,6.2c0,4-3,7.2-8.4,7.2c-5.3,0-8.3-3.1-8.3-7.2C74.1,619.2,76.8,617,78.6,616.3z M82.4,627.4
		c3.3,0,5.6-1.8,5.6-4.7c0-2.3-2.1-4.6-5.5-5c-3.6,0.4-5.6,2.7-5.6,5C76.9,625.5,79,627.4,82.4,627.4z M87.4,610.5
		c0-2.8-2.2-4.6-4.9-4.6c-2.8,0-4.9,1.8-4.9,4.6c0,2.3,1.5,4.1,4.9,4.4C85.8,614.6,87.4,612.8,87.4,610.5z"/>
	<path class="st2" d="M104,606.4c0-1.2,0.9-2,1.9-2c1.1,0,2,0.9,2,2c0,1-0.9,1.9-2,1.9C104.8,608.3,104,607.4,104,606.4z
		 M104.7,613.4c0-0.4,0.4-0.8,0.8-0.8h1.1c0.4,0,0.8,0.4,0.8,0.8v15c0,0.4-0.4,0.8-0.8,0.8h-1.1c-0.4,0-0.8-0.4-0.8-0.8V613.4z"/>
	<path class="st2" d="M112.9,613.4c0-0.4,0.4-0.8,0.8-0.8h0.6c0.4,0,0.6,0.1,0.6,0.5l0.4,1.3c0,0,2.1-2.1,5.6-2.1c4.8,0,6,3.1,6,7.4
		v8.8c0,0.4-0.4,0.8-0.8,0.8H125c-0.4,0-0.8-0.4-0.8-0.8v-9.1c0-3.2-1.1-4.6-3.5-4.6c-3.1,0-5.1,2.3-5.1,2.3v11.5
		c0,0.4-0.4,0.8-0.8,0.8h-1.1c-0.4,0-0.8-0.4-0.8-0.8V613.4z"/>
	<path class="st2" d="M24.1,661.9c0-10.6,4.4-13.9,8.5-14.1c0.4,0,0.6,0.1,0.6,0.4l0.1,1c0.1,0.3-0.1,0.6-0.4,0.6
		c-4.5,0.9-6.3,5.1-6.3,12.2c0,7.1,1.8,11.3,6.3,12.2c0.3,0,0.4,0.3,0.4,0.6l-0.1,1c0,0.3-0.3,0.4-0.6,0.4
		C28.5,675.8,24.1,672.5,24.1,661.9z"/>
	<path class="st2" d="M39.9,652.7l-2.6,2.1c-0.3,0.2-0.6,0.3-0.8,0l-0.7-0.8c-0.3-0.3-0.1-0.6,0.1-0.8l4.9-4.8
		c0.2-0.2,0.4-0.3,0.6-0.3H42c0.4,0,0.7,0.3,0.7,0.7v23.8c0,0.4-0.3,0.7-0.7,0.7h-1.3c-0.4,0-0.7-0.3-0.7-0.7L39.9,652.7L39.9,652.7
		z"/>
	<path class="st2" d="M52.2,671.5c1.7-0.6,8.3-3.9,9.6-8.9c0,0-2.4,1.7-5.6,1.7c-4.2,0-8-3.1-8-8.1c0-4.7,3.7-8.5,8.2-8.5
		c6,0,8.6,4.7,8.6,10.6c0,9.9-8.5,14.1-12.2,15.6c-0.4,0.1-0.7-0.1-0.8-0.4l-0.4-1C51.4,672.1,51.5,671.7,52.2,671.5z M62.3,659.4
		c0.1-0.5,0.1-1.1,0.1-1.7c0-3.5-1.7-7.6-6-7.6c-3.1,0-5.6,2.7-5.6,5.9c0,3.2,2.5,5.8,5.6,5.8C59.9,661.8,62.3,659.4,62.3,659.4z"/>
	<path class="st2" d="M78.8,657.4c0-0.4,0.4-0.8,0.8-0.8h0.6c0.4,0,0.6,0.1,0.6,0.5l0.4,1.3c0,0,1.7-2.1,5.1-2.1
		c2.5,0,3.8,0.9,4.9,2.6c0.2-0.1,2.6-2.6,5.9-2.6c4.8,0,6,3.1,6,7.4v8.8c0,0.4-0.4,0.8-0.8,0.8h-1.1c-0.4,0-0.8-0.4-0.8-0.8v-8.8
		c0-3.1-1-5-3.5-5c-2.7,0-4.2,1.8-4.8,2.3c0.1,0.7,0.2,1.9,0.2,2.7v8.8c0,0.4-0.4,0.8-0.8,0.8h-1.1c-0.4,0-0.8-0.4-0.8-0.8v-8.8
		c0-3.2-1-5-3.7-5c-3,0-4.5,2.3-4.5,2.3v11.5c0,0.4-0.4,0.8-0.8,0.8h-1.1c-0.4,0-0.8-0.4-0.8-0.8V657.4z"/>
	<path class="st2" d="M108.6,657.4c0-0.4,0.4-0.8,0.8-0.8h0.6c0.4,0,0.6,0.1,0.6,0.5l0.4,1.3c0,0,1.7-2.1,5.1-2.1
		c2.5,0,3.8,0.9,4.9,2.6c0.2-0.1,2.6-2.6,5.9-2.6c4.8,0,6,3.1,6,7.4v8.8c0,0.4-0.4,0.8-0.8,0.8H131c-0.4,0-0.8-0.4-0.8-0.8v-8.8
		c0-3.1-1-5-3.5-5c-2.7,0-4.2,1.8-4.8,2.3c0.1,0.7,0.2,1.9,0.2,2.7v8.8c0,0.4-0.4,0.8-0.8,0.8h-1.1c-0.4,0-0.8-0.4-0.8-0.8v-8.8
		c0-3.2-1-5-3.7-5c-3,0-4.5,2.3-4.5,2.3v11.5c0,0.4-0.4,0.8-0.8,0.8h-1.1c-0.4,0-0.8-0.4-0.8-0.8V657.4z"/>
	<path class="st2" d="M142.7,661.9c0-7.1-1.8-11.3-6.3-12.2c-0.3,0-0.4-0.3-0.4-0.6l0.1-1c0-0.3,0.3-0.4,0.6-0.4
		c4.1,0.2,8.5,3.6,8.5,14.1c0,10.6-4.4,13.9-8.5,14.1c-0.4,0-0.6-0.1-0.6-0.4l-0.1-1c-0.1-0.3,0.1-0.6,0.4-0.6
		C140.9,673.2,142.7,669,142.7,661.9z"/>
</g>
<g>
	<path class="st2" d="M346.9,608.7l-2.6,2.1c-0.3,0.2-0.6,0.3-0.8,0l-0.7-0.8c-0.3-0.3-0.1-0.6,0.1-0.8l4.9-4.8
		c0.2-0.2,0.4-0.3,0.6-0.3h0.6c0.4,0,0.7,0.3,0.7,0.7v23.8c0,0.4-0.3,0.7-0.7,0.7h-1.3c-0.4,0-0.7-0.3-0.7-0.7L346.9,608.7
		L346.9,608.7z"/>
	<path class="st2" d="M357.8,624.9c1.3,0,2.4,1,2.4,2.3s-1,2.4-2.4,2.4c-1.3,0-2.3-1.1-2.3-2.4S356.5,624.9,357.8,624.9z"/>
	<path class="st2" d="M363.3,622.8v-1c0-0.3,0.1-0.4,0.2-0.6l13.7-17.1c0.3-0.3,0.4-0.4,0.9-0.4h0.6c0.4,0,0.7,0.3,0.7,0.7v16.8h3
		c0.4,0,0.7,0.3,0.7,0.6v0.9c0,0.4-0.3,0.7-0.7,0.7h-3v5c0,0.4-0.3,0.7-0.7,0.7h-1.2c-0.4,0-0.7-0.3-0.7-0.7v-5H364
		C363.6,623.5,363.3,623.2,363.3,622.8z M376.7,608.3l-10.3,12.7v0.2h10.4L376.7,608.3L376.7,608.3z"/>
	<path class="st2" d="M395.5,606.4c0-1.2,0.9-2,1.9-2c1.1,0,2,0.9,2,2c0,1-0.9,1.9-2,1.9C396.4,608.3,395.5,607.4,395.5,606.4z
		 M396.2,613.4c0-0.4,0.4-0.8,0.8-0.8h1.1c0.4,0,0.8,0.4,0.8,0.8v15c0,0.4-0.4,0.8-0.8,0.8H397c-0.4,0-0.8-0.4-0.8-0.8V613.4z"/>
	<path class="st2" d="M404.5,613.4c0-0.4,0.4-0.8,0.8-0.8h0.6c0.4,0,0.6,0.1,0.6,0.5l0.4,1.3c0,0,2.1-2.1,5.6-2.1c4.8,0,6,3.1,6,7.4
		v8.8c0,0.4-0.4,0.8-0.8,0.8h-1.1c-0.4,0-0.8-0.4-0.8-0.8v-9.1c0-3.2-1.1-4.6-3.5-4.6c-3.1,0-5.1,2.3-5.1,2.3v11.5
		c0,0.4-0.4,0.8-0.8,0.8h-1.1c-0.4,0-0.8-0.4-0.8-0.8V613.4z"/>
	<path class="st2" d="M316.6,661.9c0-10.6,4.4-13.9,8.5-14.1c0.4,0,0.6,0.1,0.6,0.4l0.1,1c0.1,0.3-0.1,0.6-0.4,0.6
		c-4.5,0.9-6.3,5.1-6.3,12.2c0,7.1,1.8,11.3,6.3,12.2c0.3,0,0.4,0.3,0.4,0.6l-0.1,1c0,0.3-0.3,0.4-0.6,0.4
		C321,675.8,316.6,672.5,316.6,661.9z"/>
	<path class="st2" d="M329,669.4l1-0.9c0.4-0.3,0.7-0.2,1,0.2c0.3,0.4,2.3,2.6,5.5,2.6c2.8,0,5.3-1.7,5.3-4.7c0-2.8-2-4.8-6.6-4.8
		h-2.1c-0.4,0-0.7-0.2-0.7-0.8v-0.9c0-0.6,0.2-0.8,0.8-0.8h2.1c4,0,5.9-2.1,5.9-4.5c0-2.9-2.2-4.7-4.9-4.7c-2.5,0-4,1.5-4.9,2.4
		c-0.2,0.3-0.6,0.4-0.9,0.1l-0.9-0.7c-0.3-0.3-0.3-0.7,0-1c0,0,2.7-3.3,6.7-3.3c4.5,0,7.7,2.6,7.7,6.8c0,2.8-2.2,5.1-3.9,5.9v0.1
		c1.8,0.7,4.5,2.6,4.5,5.9c0,4.2-3.1,7.3-8.2,7.3c-4.5,0-6.6-2.4-7.5-3.3C328.7,670,328.7,669.6,329,669.4z"/>
	<path class="st2" d="M361.6,647.4c0.4-0.1,0.7,0,0.8,0.4l0.4,0.9c0.2,0.4,0,0.8-0.6,1.1c-2.2,0.9-8.2,4-9.5,9c0,0,2.4-1.7,5.7-1.7
		c4.2,0,8,3.1,8,8c0,4.7-3.7,8.5-8.2,8.5c-6,0-8.6-4.6-8.6-10.5C349.4,653.2,357.9,648.9,361.6,647.4z M363.6,665.3
		c0-3.2-2.5-5.8-5.6-5.8c-3.5,0-5.9,2.4-5.9,2.4c-0.1,0.5-0.1,1.1-0.1,1.7c0,3.5,1.7,7.5,6,7.5C361.2,671.2,363.6,668.5,363.6,665.3
		z"/>
	<path class="st2" d="M379.4,657.4c0-0.4,0.4-0.8,0.8-0.8h0.6c0.4,0,0.6,0.1,0.6,0.5l0.4,1.3c0,0,1.7-2.1,5.1-2.1
		c2.5,0,3.8,0.9,4.9,2.6c0.2-0.1,2.6-2.6,5.9-2.6c4.8,0,6,3.1,6,7.4v8.8c0,0.4-0.4,0.8-0.8,0.8h-1.1c-0.4,0-0.8-0.4-0.8-0.8v-8.8
		c0-3.1-1-5-3.5-5c-2.7,0-4.2,1.8-4.8,2.3c0.1,0.7,0.2,1.9,0.2,2.7v8.8c0,0.4-0.4,0.8-0.8,0.8h-1.1c-0.4,0-0.8-0.4-0.8-0.8v-8.8
		c0-3.2-1-5-3.7-5c-3,0-4.5,2.3-4.5,2.3v11.5c0,0.4-0.4,0.8-0.8,0.8h-1.1c-0.4,0-0.8-0.4-0.8-0.8V657.4z"/>
	<path class="st2" d="M409.2,657.4c0-0.4,0.4-0.8,0.8-0.8h0.6c0.4,0,0.6,0.1,0.6,0.5l0.4,1.3c0,0,1.7-2.1,5.1-2.1
		c2.5,0,3.8,0.9,4.9,2.6c0.2-0.1,2.6-2.6,5.9-2.6c4.8,0,6,3.1,6,7.4v8.8c0,0.4-0.4,0.8-0.8,0.8h-1.1c-0.4,0-0.8-0.4-0.8-0.8v-8.8
		c0-3.1-1-5-3.5-5c-2.7,0-4.2,1.8-4.8,2.3c0.1,0.7,0.2,1.9,0.2,2.7v8.8c0,0.4-0.4,0.8-0.8,0.8h-1.1c-0.4,0-0.8-0.4-0.8-0.8v-8.8
		c0-3.2-1-5-3.7-5c-3,0-4.5,2.3-4.5,2.3v11.5c0,0.4-0.4,0.8-0.8,0.8H410c-0.4,0-0.8-0.4-0.8-0.8V657.4z"/>
	<path class="st2" d="M443.3,661.9c0-7.1-1.8-11.3-6.3-12.2c-0.3,0-0.4-0.3-0.4-0.6l0.1-1c0-0.3,0.3-0.4,0.6-0.4
		c4.1,0.2,8.5,3.6,8.5,14.1c0,10.6-4.4,13.9-8.5,14.1c-0.4,0-0.6-0.1-0.6-0.4l-0.1-1c-0.1-0.3,0.1-0.6,0.4-0.6
		C441.5,673.2,443.3,669,443.3,661.9z"/>
</g>
<g>
	<path class="st2" d="M577.5,246.7l1-0.9c0.4-0.3,0.7-0.2,1,0.2c0.3,0.4,2.3,2.6,5.5,2.6c2.8,0,5.3-1.7,5.3-4.7c0-2.8-2-4.8-6.6-4.8
		h-2.1c-0.4,0-0.7-0.2-0.7-0.8v-0.9c0-0.6,0.2-0.8,0.8-0.8h2.1c4,0,5.9-2.1,5.9-4.5c0-2.9-2.2-4.7-4.9-4.7c-2.5,0-4,1.5-4.9,2.4
		c-0.2,0.3-0.6,0.4-0.9,0.1l-0.9-0.7c-0.3-0.3-0.3-0.7,0-1c0,0,2.7-3.3,6.7-3.3c4.5,0,7.7,2.6,7.7,6.8c0,2.8-2.2,5.1-3.9,5.9v0.1
		c1.8,0.7,4.5,2.6,4.5,5.9c0,4.2-3.1,7.3-8.2,7.3c-4.5,0-6.6-2.4-7.5-3.3C577.2,247.4,577.2,247,577.5,246.7z"/>
	<path class="st2" d="M600,246.2c1.3,0,2.4,1,2.4,2.3s-1,2.4-2.4,2.4c-1.3,0-2.3-1.1-2.3-2.4S598.7,246.2,600,246.2z"/>
	<path class="st2" d="M610.2,248.1H621c0.4,0,0.7,0.3,0.7,0.7v1c0,0.4-0.3,0.7-0.7,0.7h-14.1c-0.4,0-0.7-0.3-0.7-0.7v-0.5
		c0-0.4,0-0.6,0.5-1.1c2.9-3.1,5.7-6.3,8.6-9.3c2.5-2.8,3.7-5,3.7-6.7c0-2.1-1.4-4.7-5.2-4.7c-2.3,0-4.1,1.6-5.3,2.8
		c-0.3,0.3-0.7,0.3-1,0l-0.7-0.7c-0.2-0.3-0.3-0.7,0-1c0,0,2.6-3.6,7-3.6c5.3,0,8,3.3,8,7.1c0,3.3-2.1,5.7-4.6,8.4L610.2,248.1
		L610.2,248.1z"/>
	<path class="st2" d="M635,227.7c0-1.2,0.9-2,1.9-2c1.1,0,2,0.9,2,2c0,1-0.9,1.9-2,1.9C635.9,229.6,635,228.7,635,227.7z
		 M635.7,234.7c0-0.4,0.4-0.8,0.8-0.8h1.1c0.4,0,0.8,0.4,0.8,0.8v15c0,0.4-0.4,0.8-0.8,0.8h-1.1c-0.4,0-0.8-0.4-0.8-0.8V234.7z"/>
	<path class="st2" d="M644,234.7c0-0.4,0.4-0.8,0.8-0.8h0.6c0.4,0,0.6,0.1,0.6,0.5l0.4,1.3c0,0,2.1-2.1,5.6-2.1c4.8,0,6,3.1,6,7.4
		v8.8c0,0.4-0.4,0.8-0.8,0.8h-1.1c-0.4,0-0.8-0.4-0.8-0.8v-9.1c0-3.2-1.1-4.6-3.5-4.6c-3.1,0-5.1,2.3-5.1,2.3v11.5
		c0,0.4-0.4,0.8-0.8,0.8h-1.1c-0.4,0-0.8-0.4-0.8-0.8V234.7z"/>
	<path class="st2" d="M577.2,283.2c0-10.6,4.4-13.9,8.5-14.1c0.4,0,0.6,0.1,0.6,0.4l0.1,1c0.1,0.3-0.1,0.6-0.4,0.6
		c-4.5,0.9-6.3,5.1-6.3,12.2c0,7.1,1.8,11.3,6.3,12.2c0.3,0,0.4,0.3,0.4,0.6l-0.1,1c0,0.3-0.3,0.4-0.6,0.4
		C581.6,297.2,577.2,293.8,577.2,283.2z"/>
	<path class="st2" d="M594,281.6v-0.1c-1.7-0.8-3.8-2.9-3.8-5.7c0-4.1,3.2-6.7,7.7-6.7c4.5,0,7.7,2.6,7.7,6.7c0,2.8-2.2,5-3.8,5.7
		v0.1c1.7,0.7,4.5,3,4.5,6.2c0,4-3,7.2-8.4,7.2c-5.3,0-8.3-3.1-8.3-7.2C589.6,284.6,592.3,282.3,594,281.6z M597.8,292.7
		c3.3,0,5.6-1.8,5.6-4.7c0-2.3-2.1-4.6-5.5-5c-3.6,0.4-5.6,2.7-5.6,5C592.3,290.9,594.5,292.7,597.8,292.7z M602.8,275.8
		c0-2.8-2.2-4.6-4.9-4.6c-2.8,0-4.9,1.8-4.9,4.6c0,2.3,1.5,4.1,4.9,4.4C601.3,279.9,602.8,278.1,602.8,275.8z"/>
	<path class="st2" d="M614.5,292.1h10.8c0.4,0,0.7,0.3,0.7,0.7v1c0,0.4-0.3,0.7-0.7,0.7h-14.1c-0.4,0-0.7-0.3-0.7-0.7v-0.5
		c0-0.4,0-0.6,0.5-1.1c2.9-3.1,5.7-6.3,8.6-9.3c2.5-2.8,3.7-5,3.7-6.7c0-2.1-1.4-4.7-5.2-4.7c-2.3,0-4.1,1.6-5.3,2.8
		c-0.3,0.3-0.7,0.3-1,0l-0.7-0.7c-0.2-0.3-0.3-0.7,0-1c0,0,2.6-3.6,7-3.6c5.3,0,8,3.3,8,7.1c0,3.3-2.1,5.7-4.6,8.4L614.5,292.1
		L614.5,292.1z"/>
	<path class="st2" d="M640,278.7c0-0.4,0.4-0.8,0.8-0.8h0.6c0.4,0,0.6,0.1,0.6,0.5l0.4,1.3c0,0,1.7-2.1,5.1-2.1
		c2.5,0,3.8,0.9,4.9,2.6c0.2-0.1,2.6-2.6,5.9-2.6c4.8,0,6,3.1,6,7.4v8.8c0,0.4-0.4,0.8-0.8,0.8h-1.1c-0.4,0-0.8-0.4-0.8-0.8V285
		c0-3.1-1-5-3.5-5c-2.7,0-4.2,1.8-4.8,2.3c0.1,0.7,0.2,1.9,0.2,2.7v8.8c0,0.4-0.4,0.8-0.8,0.8h-1.1c-0.4,0-0.8-0.4-0.8-0.8V285
		c0-3.2-1-5-3.7-5c-3,0-4.5,2.3-4.5,2.3v11.5c0,0.4-0.4,0.8-0.8,0.8h-1.1c-0.4,0-0.8-0.4-0.8-0.8V278.7z"/>
	<path class="st2" d="M669.8,278.7c0-0.4,0.4-0.8,0.8-0.8h0.6c0.4,0,0.6,0.1,0.6,0.5l0.4,1.3c0,0,1.7-2.1,5.1-2.1
		c2.5,0,3.8,0.9,4.9,2.6c0.2-0.1,2.6-2.6,5.9-2.6c4.8,0,6,3.1,6,7.4v8.8c0,0.4-0.4,0.8-0.8,0.8h-1.1c-0.4,0-0.8-0.4-0.8-0.8V285
		c0-3.1-1-5-3.5-5c-2.7,0-4.2,1.8-4.8,2.3c0.1,0.7,0.2,1.9,0.2,2.7v8.8c0,0.4-0.4,0.8-0.8,0.8h-1.1c-0.4,0-0.8-0.4-0.8-0.8V285
		c0-3.2-1-5-3.7-5c-3,0-4.5,2.3-4.5,2.3v11.5c0,0.4-0.4,0.8-0.8,0.8h-1.1c-0.4,0-0.8-0.4-0.8-0.8V278.7z"/>
	<path class="st2" d="M704,283.2c0-7.1-1.8-11.3-6.3-12.2c-0.3,0-0.4-0.3-0.4-0.6l0.1-1c0-0.3,0.3-0.4,0.6-0.4
		c4.1,0.2,8.5,3.6,8.5,14.1c0,10.6-4.4,13.9-8.5,14.1c-0.4,0-0.6-0.1-0.6-0.4l-0.1-1c-0.1-0.3,0.1-0.6,0.4-0.6
		C702.2,294.5,704,290.3,704,283.2z"/>
</g>
</svg>
