<svg xmlns="http://www.w3.org/2000/svg" viewBox="0 0 280 262.04"><defs><style>.cls-1{fill:#fff;}.cls-2{fill:#767573;}</style></defs><title>Room_</title><g id="ON_WHITE_OFF" data-name="ON WHITE / OFF"><polygon class="cls-1" points="72.45 142.94 39.56 142.94 45.9 122.72 48.27 122.72 66.11 122.72 72.45 142.94"/><path class="cls-2" d="M72.45,143.94H39.56a1,1,0,0,1-1-1.3l6.34-20.22a1,1,0,0,1,1-.7H66.11a1,1,0,0,1,1,.7l6.34,20.22a1,1,0,0,1-1,1.3Zm-31.53-2H71.09l-5.71-18.22H46.63Z"/><path class="cls-2" d="M72.76,199.72a1,1,0,0,1-1-1V167.18a3.28,3.28,0,0,0-3.28-3.28h-25a3.28,3.28,0,0,0-3.28,3.28v31.54a1,1,0,0,1-2,0V167.18a5.29,5.29,0,0,1,5.28-5.28h25a5.28,5.28,0,0,1,5.28,5.28v31.54A1,1,0,0,1,72.76,199.72Z"/><path class="cls-1" d="M39.25,175.7v-8.52a4.29,4.29,0,0,1,4.28-4.28h25a4.29,4.29,0,0,1,4.28,4.28v8.52Z"/><path class="cls-2" d="M72.76,176.7H39.25a1,1,0,0,1-1-1v-8.52a5.29,5.29,0,0,1,5.28-5.28h25a5.28,5.28,0,0,1,5.28,5.28v8.52A1,1,0,0,1,72.76,176.7Zm-32.51-2H71.76v-7.52a3.28,3.28,0,0,0-3.28-3.28h-25a3.28,3.28,0,0,0-3.28,3.28Z"/><path class="cls-1" d="M91.09,198.69V168.27a5.48,5.48,0,0,1,5.46-5.46h128a5.48,5.48,0,0,1,5.46,5.46v30.42Z"/><path class="cls-2" d="M230,199.69H91.09a1,1,0,0,1-1-1V168.27a6.47,6.47,0,0,1,6.46-6.46h128a6.47,6.47,0,0,1,6.46,6.46v30.42A1,1,0,0,1,230,199.69Zm-137.94-2H229V168.27a4.47,4.47,0,0,0-4.46-4.46h-128a4.47,4.47,0,0,0-4.46,4.46Z"/><path class="cls-1" d="M91.09,191.93V168.27a5.48,5.48,0,0,1,5.46-5.46h128a5.48,5.48,0,0,1,5.46,5.46v23.66Z"/><path class="cls-2" d="M230,192.93H91.09a1,1,0,0,1-1-1V168.27a6.47,6.47,0,0,1,6.46-6.46h128a6.47,6.47,0,0,1,6.46,6.46v23.66A1,1,0,0,1,230,192.93Zm-137.94-2H229V168.27a4.47,4.47,0,0,0-4.46-4.46h-128a4.47,4.47,0,0,0-4.46,4.46Z"/><path class="cls-2" d="M170.88,150.94H151.1a1,1,0,0,1,0-2h19.78a1,1,0,0,1,0,2Z"/><path class="cls-2" d="M39.26,206.48a1,1,0,0,1-1-1v-6.76a1,1,0,0,1,1-1H72.77a1,1,0,0,1,1,1v6.76a1,1,0,0,1-2,0v-5.76H40.25v5.76a1,1,0,0,1-1,1Z"/><path class="cls-2" d="M99.33,206.48a1,1,0,0,1-1-1v-6.79a1,1,0,0,1,1-1H221.81a1,1,0,0,1,1,1v6.79a1,1,0,0,1-2,0v-5.79H100.32v5.79a1,1,0,0,1-1,1Z"/><path class="cls-2" d="M56,163.84a1,1,0,0,1-1-1v-19.9a1,1,0,0,1,2,0v19.9A1,1,0,0,1,56,163.84Z"/><path class="cls-1" d="M171.18,151.83c3.9-3.41,10-5.61,16.92-5.61s13,2.2,16.92,5.61h25V124.58H92.21v27.26H117c3.9-3.41,10-5.61,16.92-5.61s13,2.2,16.92,5.61Z"/><path class="cls-2" d="M230,152.83H205a1,1,0,0,1-.71-.3c-3.9-3.38-9.8-5.31-16.21-5.31s-12.37,2-16.26,5.36a1,1,0,0,1-.66.25H150.8a1,1,0,0,1-.66-.25c-3.9-3.41-9.82-5.36-16.26-5.36s-12.37,2-16.27,5.36a1,1,0,0,1-.66.25H92.21a1,1,0,0,1-1-1V124.58a1,1,0,0,1,1-1H230a1,1,0,0,1,1,1v27.26A1,1,0,0,1,230,152.83Zm-24.64-2H229V125.58H93.21v25.26h23.38c4.25-3.57,10.53-5.61,17.29-5.61s13,2,17.29,5.61h19.64c4.25-3.57,10.53-5.61,17.29-5.61S201.14,147.26,205.39,150.83Z"/><path class="cls-2" d="M59.52,170.5h-7a1,1,0,0,1,0-2h7a1,1,0,1,1,0,2Z"/><path class="cls-1" d="M188.1,91.68a4.51,4.51,0,0,0-4.32,3.22V104h8.65V94.9A4.51,4.51,0,0,0,188.1,91.68Z"/><path class="cls-2" d="M192.43,105h-8.65a1,1,0,0,1-1-1V94.9a1,1,0,0,1,0-.28,5.51,5.51,0,0,1,10.57,0,1,1,0,0,1,0,.28V104A1,1,0,0,1,192.43,105Zm-7.65-2h6.65v-8a3.51,3.51,0,0,0-6.65,0Z"/><path class="cls-2" d="M188.1,92.68a1,1,0,0,1-1-1V85.81a1,1,0,0,1,2,0v5.87A1,1,0,0,1,188.1,92.68Z"/><path class="cls-1" d="M133.88,91.68a4.51,4.51,0,0,0-4.32,3.22V104h8.65V94.9A4.51,4.51,0,0,0,133.88,91.68Z"/><path class="cls-2" d="M138.2,105h-8.65a1,1,0,0,1-1-1V94.9a1,1,0,0,1,0-.28,5.51,5.51,0,0,1,10.56,0,1,1,0,0,1,0,.29V104A1,1,0,0,1,138.2,105Zm-7.65-2h6.65v-8a3.51,3.51,0,0,0-6.65,0Z"/><path class="cls-2" d="M133.88,92.68a1,1,0,0,1-1-1V85.81a1,1,0,0,1,2,0v5.87A1,1,0,0,1,133.88,92.68Z"/><path class="cls-1" d="M112.92,157.67c1.86-6.65,10.54-11.67,21-11.67s19.1,5,21,11.67Z"/><path class="cls-2" d="M154.84,158.67H112.92a1,1,0,0,1-1-1.27c2-7.19,11.24-12.4,21.93-12.4s19.91,5.22,21.93,12.4a1,1,0,0,1-1,1.27Zm-40.51-2h39.09C151,151,143,147,133.88,147S116.81,151,114.33,156.67Z"/><path class="cls-1" d="M167.14,157.67C169,151,177.68,146,188.1,146s19.1,5,21,11.67Z"/><path class="cls-2" d="M209.06,158.67H167.14a1,1,0,0,1-1-1.27c2-7.19,11.23-12.4,21.93-12.4S208,150.21,210,157.4a1,1,0,0,1-1,1.27Zm-40.51-2h39.09C205.17,151,197.25,147,188.1,147S171,151,168.56,156.67Z"/></g></svg>