<svg xmlns="http://www.w3.org/2000/svg" viewBox="0 0 280 262.04"><defs><style>.cls-1{fill:#fff;}.cls-2{fill:#767573;}</style></defs><title>Room_</title><g id="ON_WHITE_OFF" data-name="ON WHITE / OFF"><polygon class="cls-1" points="148.26 192.37 108.41 192.37 100.67 205.48 116.93 205.48 135.16 205.48 156 205.48 148.26 192.37"/><path class="cls-2" d="M156,206.48H100.67a1,1,0,0,1-.86-1.51l7.74-13.11a1,1,0,0,1,.86-.49h39.85a1,1,0,0,1,.86.49L156.86,205a1,1,0,0,1-.86,1.51Zm-53.57-2h51.82l-6.56-11.11H109Z"/><path class="cls-2" d="M229,186.56H159.55a1,1,0,0,1-1-1V80.22H98.13V185.56a1,1,0,0,1-1,1H51a1,1,0,0,1,0-2H96.13V79.22a1,1,0,0,1,1-1h62.42a1,1,0,0,1,1,1V184.56H229a1,1,0,1,1,0,2Z"/><path class="cls-1" d="M207.6,153.81h-21s-2.16,15.88,3.5,31.75h14C209.76,169.68,207.6,153.81,207.6,153.81Z"/><path class="cls-2" d="M204.09,186.56h-14a1,1,0,0,1-.94-.66,75.61,75.61,0,0,1-3.55-32.23,1,1,0,0,1,1-.86h21a1,1,0,0,1,1,.86A75.61,75.61,0,0,1,205,185.9,1,1,0,0,1,204.09,186.56Zm-13.3-2h12.59c4.51-13.15,3.65-26.31,3.32-29.75H187.48C187.15,158.25,186.29,171.41,190.8,184.56Z"/><path class="cls-2" d="M89.8,158.94h-16a1,1,0,0,1-1-1V86.58a1,1,0,0,1,1-1h16a1,1,0,0,1,1,1v71.37A1,1,0,0,1,89.8,158.94Zm-15-2h14V87.58h-14Z"/><path class="cls-2" d="M152.32,172.12a1,1,0,0,1-1-1V100.46a1,1,0,1,1,2,0v70.66A1,1,0,0,1,152.32,172.12Z"/><circle class="cls-1" cx="176.88" cy="101.07" r="6.18"/><path class="cls-2" d="M176.88,108.25a7.18,7.18,0,1,1,7.18-7.18A7.19,7.19,0,0,1,176.88,108.25Zm0-12.36a5.18,5.18,0,1,0,5.18,5.18A5.18,5.18,0,0,0,176.88,95.89Z"/><path class="cls-2" d="M176.88,95.89a1,1,0,0,1-1-1V86.58a1,1,0,0,1,2,0v8.31A1,1,0,0,1,176.88,95.89Z"/><path class="cls-1" d="M197.09,132.29h0a18.25,18.25,0,0,1,0-19.33h0a18.25,18.25,0,0,1,0,19.33Z"/><path class="cls-2" d="M197.09,133.29a1,1,0,0,1-.85-.47,19.37,19.37,0,0,1,0-20.39,1,1,0,0,1,1.7,0,19.37,19.37,0,0,1,0,20.39A1,1,0,0,1,197.09,133.29Zm0-18.27a17.4,17.4,0,0,0,0,15.21A17.4,17.4,0,0,0,197.09,115Z"/><path class="cls-1" d="M197.09,140.23h0a18.25,18.25,0,0,1-13.67-13.67h0a18.25,18.25,0,0,1,13.67,13.67Z"/><path class="cls-2" d="M197.09,141.23l-.23,0a19.37,19.37,0,0,1-14.42-14.42,1,1,0,0,1,1.2-1.2A19.37,19.37,0,0,1,198.07,140a1,1,0,0,1-1,1.23ZM184.88,128a17.4,17.4,0,0,0,10.75,10.75A17.4,17.4,0,0,0,184.88,128Z"/><path class="cls-1" d="M197.09,140.23h0a18.25,18.25,0,0,0,13.67-13.67h0a18.25,18.25,0,0,0-13.67,13.67Z"/><path class="cls-2" d="M197.09,141.23a1,1,0,0,1-1-1.23,19.37,19.37,0,0,1,14.42-14.42,1,1,0,0,1,1.2,1.2,19.37,19.37,0,0,1-14.42,14.42ZM209.3,128a17.4,17.4,0,0,0-10.75,10.75A17.4,17.4,0,0,0,209.3,128Z"/><path class="cls-1" d="M197.09,151.34h0a18.25,18.25,0,0,1-13.67-13.67h0a18.25,18.25,0,0,1,13.67,13.67Z"/><path class="cls-2" d="M197.09,152.34l-.23,0a19.37,19.37,0,0,1-14.42-14.42,1,1,0,0,1,1.2-1.2,19.37,19.37,0,0,1,14.42,14.42,1,1,0,0,1-1,1.23Zm-12.21-13.21a17.4,17.4,0,0,0,10.75,10.75A17.4,17.4,0,0,0,184.88,139.13Z"/><path class="cls-1" d="M197.09,151.34h0a18.25,18.25,0,0,0,13.67-13.67h0a18.25,18.25,0,0,0-13.67,13.67Z"/><path class="cls-2" d="M197.09,152.34a1,1,0,0,1-1-1.23,19.37,19.37,0,0,1,14.42-14.42,1,1,0,0,1,1.2,1.2,19.37,19.37,0,0,1-14.42,14.42Zm12.21-13.21a17.4,17.4,0,0,0-10.75,10.75A17.4,17.4,0,0,0,209.3,139.13Z"/><path class="cls-2" d="M197.09,154.81a1,1,0,0,1-1-1V132.29a1,1,0,0,1,2,0v21.51A1,1,0,0,1,197.09,154.81Z"/></g></svg>