<svg xmlns="http://www.w3.org/2000/svg" viewBox="0 0 280 262.04"><defs><style>.cls-1{fill:#767573;}.cls-2{fill:#fff;}.cls-3{fill:#757472;}</style></defs><title>Room_</title><g id="ON_WHITE_OFF" data-name="ON WHITE / OFF"><path class="cls-1" d="M213.15,206.48a1,1,0,0,1-1-1V121.91a1,1,0,0,1,2,0v83.57A1,1,0,0,1,213.15,206.48Z"/><path class="cls-1" d="M226.42,206.48H199.87a1,1,0,1,1,0-2h26.55a1,1,0,1,1,0,2Z"/><path class="cls-1" d="M127.54,150.92H83.71a1.86,1.86,0,0,1-1.86-1.86v-28.9a1.86,1.86,0,0,1,1.86-1.86h43.83a1.86,1.86,0,0,1,1.86,1.86v28.9A1.86,1.86,0,0,1,127.54,150.92Zm-43.68-2h43.54V120.3H83.86Z"/><circle class="cls-2" cx="140" cy="79.54" r="14.15"/><path class="cls-1" d="M140,94.69a15.15,15.15,0,1,1,15.15-15.15A15.17,15.17,0,0,1,140,94.69Zm0-28.3a13.15,13.15,0,1,0,13.15,13.15A13.17,13.17,0,0,0,140,66.39Z"/><path class="cls-1" d="M143.7,84.24a1,1,0,0,1-.71-.29l-3.7-3.7a1,1,0,0,1-.29-.71V71.92a1,1,0,0,1,2,0v7.21l3.41,3.41a1,1,0,0,1-.71,1.71Z"/><path class="cls-1" d="M223.23,138a1,1,0,0,1-.48-.12L176.29,112.6a1,1,0,1,1,1-1.76l46.46,25.32a1,1,0,0,1-.48,1.88Z"/><circle class="cls-3" cx="213.15" cy="131.9" r="2.09"/><path class="cls-1" d="M213.15,135a3.09,3.09,0,1,1,3.09-3.09A3.09,3.09,0,0,1,213.15,135Zm0-4.17a1.09,1.09,0,1,0,1.09,1.09A1.09,1.09,0,0,0,213.15,130.81Z"/><path class="cls-1" d="M122.08,206.48a1,1,0,0,1-1-1v-2.91a1.39,1.39,0,0,0-1.18-1.38L105.63,199l-14.27,2.23a1.39,1.39,0,0,0-1.18,1.38v2.91a1,1,0,0,1-2,0v-2.91a3.38,3.38,0,0,1,2.88-3.36L105.47,197a1,1,0,0,1,.31,0l14.42,2.25a3.38,3.38,0,0,1,2.88,3.36v2.91A1,1,0,0,1,122.08,206.48Z"/><path class="cls-1" d="M105.63,206.48a1,1,0,0,1-1-1V181.57a1,1,0,0,1,2,0v23.91A1,1,0,0,1,105.63,206.48Z"/><rect class="cls-2" x="150.57" y="163.85" width="28.47" height="41.63"/><path class="cls-1" d="M179,206.48H150.57a1,1,0,0,1-1-1V163.85a1,1,0,0,1,1-1H179a1,1,0,0,1,1,1v41.63A1,1,0,0,1,179,206.48Zm-27.47-2H178V164.85H151.57Z"/><path class="cls-1" d="M179,185.66H150.57a1,1,0,0,1,0-2H179a1,1,0,0,1,0,2Z"/><path class="cls-1" d="M167.13,170h-4.65a1,1,0,1,1,0-2h4.65a1,1,0,1,1,0,2Z"/><path class="cls-1" d="M167.13,190.8h-4.65a1,1,0,0,1,0-2h4.65a1,1,0,0,1,0,2Z"/><rect class="cls-2" x="60.68" y="155.57" width="118.35" height="8.28"/><path class="cls-1" d="M179,164.85H60.68a1,1,0,0,1-1-1v-8.28a1,1,0,0,1,1-1H179a1,1,0,0,1,1,1v8.28A1,1,0,0,1,179,164.85Zm-117.35-2H178v-6.28H61.68Z"/><path class="cls-1" d="M60.68,206.48a1,1,0,0,1-1-1V163.85a1,1,0,0,1,2,0v41.63A1,1,0,0,1,60.68,206.48Z"/><path class="cls-2" d="M117.71,136.53H93.55a3.42,3.42,0,0,0-3.42,3.29l-2.31,38a3.42,3.42,0,0,0,3.42,3.55H120a3.42,3.42,0,0,0,3.42-3.55l-2.31-38A3.42,3.42,0,0,0,117.71,136.53Z"/><path class="cls-1" d="M120,182.34H91.24a4.42,4.42,0,0,1-4.42-4.59l2.31-38a4.4,4.4,0,0,1,4.42-4.23h24.16a4.41,4.41,0,0,1,4.42,4.25l2.3,37.94a4.42,4.42,0,0,1-4.42,4.61Zm-26.47-44.8a2.41,2.41,0,0,0-2.42,2.33l-2.31,38a2.42,2.42,0,0,0,2.42,2.49H120a2.42,2.42,0,0,0,2.42-2.52l-2.3-37.94a2.42,2.42,0,0,0-2.42-2.35Z"/><path class="cls-2" d="M178,115.6c.2,1.35,1.81,3.11,2.12,4.61.46,2.2-1.06,4.86-1.88,6.49l-14.6-7.41c.83-1.63,2.08-4.42,4.13-5.35,1.4-.63,3.77-.38,5-1,1.6-.84,3.29-4.38,5.07-3.47S177.76,113.82,178,115.6Z"/><path class="cls-1" d="M178.26,127.71a1,1,0,0,1-.45-.11l-14.6-7.41a1,1,0,0,1-.44-1.34l.21-.42c.87-1.75,2.2-4.39,4.4-5.39a9.32,9.32,0,0,1,2.84-.59,7,7,0,0,0,2.08-.4,7.3,7.3,0,0,0,1.5-1.43c1.13-1.25,2.67-3,4.49-2.05s1.35,3.2,1,4.85a7.18,7.18,0,0,0-.27,2,7,7,0,0,0,.91,1.92,9.3,9.3,0,0,1,1.2,2.64c.49,2.37-.86,5-1.76,6.73l-.21.42a1,1,0,0,1-.89.55ZM165,118.85l12.82,6.51c.74-1.46,1.65-3.44,1.34-4.94a8.06,8.06,0,0,0-1-2,8,8,0,0,1-1.16-2.63h0a8.07,8.07,0,0,1,.29-2.76c.22-1,.52-2.41.06-2.64s-1.4.83-2.09,1.61a8.19,8.19,0,0,1-2.06,1.86,8,8,0,0,1-2.8.62,8,8,0,0,0-2.22.42C166.8,115.49,165.74,117.39,165,118.85Z"/><rect class="cls-2" x="156.65" y="147.79" width="6.66" height="7.78"/><path class="cls-1" d="M163.31,156.57h-6.66a1,1,0,0,1-1-1v-7.78a1,1,0,0,1,1-1h6.66a1,1,0,0,1,1,1v7.78A1,1,0,0,1,163.31,156.57Zm-5.66-2h4.66v-5.78h-4.66Z"/><path class="cls-1" d="M158.9,148.78a1,1,0,0,1-1-.91l-.49-5.42a1,1,0,1,1,2-.18l.49,5.42a1,1,0,0,1-.91,1.09Z"/><path class="cls-1" d="M161.07,148.75h-.15a1,1,0,0,1-.84-1.14l1.13-7.59a1,1,0,1,1,2,.3l-1.13,7.59A1,1,0,0,1,161.07,148.75Z"/></g></svg>