<svg xmlns="http://www.w3.org/2000/svg" viewBox="0 0 280 262.04"><defs><style>.cls-1{fill:#767573;}.cls-2{fill:#fff;}</style></defs><title>Room_</title><g id="ON_WHITE_OFF" data-name="ON WHITE / OFF"><path class="cls-1" d="M54.18,166.26a1,1,0,0,1-1-1V102.63a11.35,11.35,0,1,1,22.71,0,1,1,0,1,1-2,0,9.35,9.35,0,1,0-18.71,0v62.63A1,1,0,0,1,54.18,166.26Z"/><path class="cls-2" d="M83.62,111.27a8.72,8.72,0,0,0-17.45,0Z"/><path class="cls-1" d="M83.62,112.27H66.17a1,1,0,0,1-1-1,9.72,9.72,0,0,1,19.45,0A1,1,0,0,1,83.62,112.27Zm-16.38-2H82.55a7.72,7.72,0,0,0-15.32,0Z"/><path class="cls-1" d="M74.89,122.79a1,1,0,0,1-1-1v-6.54a1,1,0,0,1,2,0v6.54A1,1,0,0,1,74.89,122.79Z"/><path class="cls-1" d="M80.89,122.79a1,1,0,0,1-1-1v-6.54a1,1,0,0,1,2,0v6.54A1,1,0,0,1,80.89,122.79Z"/><path class="cls-1" d="M68.9,122.79a1,1,0,0,1-1-1v-6.54a1,1,0,0,1,2,0v6.54A1,1,0,0,1,68.9,122.79Z"/><path class="cls-1" d="M214.66,150.63H173.38a1,1,0,0,1-1-1V106.91a1,1,0,0,1,1-1h41.28a1,1,0,0,1,1,1v42.71A1,1,0,0,1,214.66,150.63Zm-40.28-2h39.28V107.91H174.38Z"/><rect class="cls-2" x="166.03" y="159.62" width="55.8" height="39.98"/><path class="cls-1" d="M221.83,200.6H166a1,1,0,0,1-1-1v-40a1,1,0,0,1,1-1h55.8a1,1,0,0,1,1,1v40A1,1,0,0,1,221.83,200.6Zm-54.8-2h53.8v-38H167Z"/><path class="cls-1" d="M193.93,160.62a1,1,0,0,1-1-1V146.24a1,1,0,0,1,2,0v13.38A1,1,0,0,1,193.93,160.62Z"/><path class="cls-1" d="M197.89,160.62a1,1,0,0,1-1-1v-4.76a1,1,0,0,1,1-1h2.89a1,1,0,0,1,0,2h-1.89v3.76A1,1,0,0,1,197.89,160.62Z"/><path class="cls-1" d="M189.95,160.62a1,1,0,0,1-1-1v-3.76h-1.89a1,1,0,0,1,0-2h2.89a1,1,0,0,1,1,1v4.76A1,1,0,0,1,189.95,160.62Z"/><path class="cls-1" d="M221.83,171H166a1,1,0,0,1,0-2h55.8a1,1,0,0,1,0,2Z"/><path class="cls-1" d="M194,200.58a1,1,0,0,1-1-1V170a1,1,0,0,1,2,0v29.6A1,1,0,0,1,194,200.58Z"/><rect class="cls-2" x="158.97" y="111.19" width="6.7" height="23.26" transform="translate(324.64 245.65) rotate(180)"/><path class="cls-1" d="M165.67,135.46H159a1,1,0,0,1-1-1V111.19a1,1,0,0,1,1-1h6.7a1,1,0,0,1,1,1v23.26A1,1,0,0,1,165.67,135.46Zm-5.7-2h4.7V112.19H160Z"/><path class="cls-1" d="M165.67,129.81H159a1,1,0,0,1,0-2h6.7a1,1,0,0,1,0,2Z"/><rect class="cls-2" x="222.64" y="111.19" width="6.7" height="23.26" transform="translate(451.99 245.65) rotate(180)"/><path class="cls-1" d="M229.34,135.46h-6.7a1,1,0,0,1-1-1V111.19a1,1,0,0,1,1-1h6.7a1,1,0,0,1,1,1v23.26A1,1,0,0,1,229.34,135.46Zm-5.7-2h4.7V112.19h-4.7Z"/><path class="cls-1" d="M229.34,129.81h-6.7a1,1,0,0,1,0-2h6.7a1,1,0,1,1,0,2Z"/><path class="cls-2" d="M143,165.26v15.49a19.53,19.53,0,0,1-19.53,19.53h-60a19.53,19.53,0,0,1-19.53-19.53V165.26Z"/><path class="cls-1" d="M123.47,201.28h-60a20.55,20.55,0,0,1-20.53-20.53V165.26a1,1,0,0,1,1-1H143a1,1,0,0,1,1,1v15.49A20.55,20.55,0,0,1,123.47,201.28Zm-78.53-35v14.49a18.55,18.55,0,0,0,18.53,18.53h60A18.55,18.55,0,0,0,142,180.75V166.26Z"/><path class="cls-1" d="M63.47,206.43a1,1,0,0,1-1-1v-5.15a1,1,0,0,1,2,0v5.15A1,1,0,0,1,63.47,206.43Z"/><path class="cls-1" d="M123.47,206.48a1,1,0,0,1-1-1v-5.2a1,1,0,0,1,2,0v5.2A1,1,0,0,1,123.47,206.48Z"/><path class="cls-1" d="M166,206.48a1,1,0,0,1-1-1v-5.9a1,1,0,0,1,2,0v5.9A1,1,0,0,1,166,206.48Z"/><path class="cls-1" d="M221.83,206.48a1,1,0,0,1-1-1v-5.9a1,1,0,0,1,2,0v5.9A1,1,0,0,1,221.83,206.48Z"/></g></svg>