<svg xmlns="http://www.w3.org/2000/svg" viewBox="0 0 280 262.04"><defs><style>.cls-1{fill:#fff;}.cls-2{fill:#747474;}</style></defs><title>Room_</title><g id="ON_WHITE_OFF" data-name="ON WHITE / OFF"><path class="cls-1" d="M158.65,184.77V145.19a4.29,4.29,0,0,0-4.28-4.28H69.82a4.29,4.29,0,0,0-4.28,4.28V185"/><path class="cls-2" d="M65.54,186a1,1,0,0,1-1-1V145.19a5.28,5.28,0,0,1,5.28-5.28h84.55a5.29,5.29,0,0,1,5.28,5.28v39.58a1,1,0,0,1-2,0V145.19a3.28,3.28,0,0,0-3.28-3.28H69.82a3.28,3.28,0,0,0-3.28,3.28V185A1,1,0,0,1,65.54,186Z"/><path class="cls-1" d="M212.89,175.7v-8.52a4.29,4.29,0,0,0-4.28-4.28h-25a4.29,4.29,0,0,0-4.28,4.28v8.52"/><path class="cls-2" d="M212.89,176.7a1,1,0,0,1-1-1v-8.52a3.28,3.28,0,0,0-3.28-3.28h-25a3.28,3.28,0,0,0-3.28,3.28v8.52a1,1,0,0,1-2,0v-8.52a5.28,5.28,0,0,1,5.28-5.28h25a5.28,5.28,0,0,1,5.28,5.28v8.52A1,1,0,0,1,212.89,176.7Z"/><path class="cls-2" d="M212.89,206.48a1,1,0,0,1-1-1v-38.3a3.28,3.28,0,0,0-3.28-3.28h-25a3.28,3.28,0,0,0-3.28,3.28v38.3a1,1,0,0,1-2,0v-38.3a5.28,5.28,0,0,1,5.28-5.28h25a5.28,5.28,0,0,1,5.28,5.28v38.3A1,1,0,0,1,212.89,206.48Z"/><path class="cls-2" d="M212.54,176.7h-32.8a1,1,0,0,1,0-2h32.8a1,1,0,0,1,0,2Z"/><path class="cls-2" d="M199.65,170.5h-7a1,1,0,1,1,0-2h7a1,1,0,0,1,0,2Z"/><path class="cls-2" d="M158.65,206.45a1,1,0,0,1-1-1V145.19a3.28,3.28,0,0,0-3.28-3.28H69.66a3.28,3.28,0,0,0-3.28,3.28v60.25a1,1,0,0,1-2,0V145.19a5.28,5.28,0,0,1,5.28-5.28h84.71a5.29,5.29,0,0,1,5.28,5.28v60.25A1,1,0,0,1,158.65,206.45Z"/><path class="cls-2" d="M158.65,150.19H65.54a1,1,0,0,1,0-2h93.11a1,1,0,0,1,0,2Z"/><path class="cls-2" d="M158.65,185.77H65.54a1,1,0,1,1,0-2h93.11a1,1,0,0,1,0,2Z"/><path class="cls-2" d="M121.41,185.58a1,1,0,0,1-1-1V149.19a1,1,0,0,1,2,0v35.39A1,1,0,0,1,121.41,185.58Z"/><path class="cls-2" d="M102.78,185.58a1,1,0,0,1-1-1V149.19a1,1,0,0,1,2,0v35.39A1,1,0,0,1,102.78,185.58Z"/><path class="cls-2" d="M140,185.58a1,1,0,0,1-1-1V149.19a1,1,0,0,1,2,0v35.39A1,1,0,0,1,140,185.58Z"/><path class="cls-2" d="M158.65,185.58a1,1,0,0,1-1-1V149a1,1,0,1,1,2,0v35.58A1,1,0,0,1,158.65,185.58Z"/><path class="cls-2" d="M84.16,185.58a1,1,0,0,1-1-1V149.19a1,1,0,0,1,2,0v35.39A1,1,0,0,1,84.16,185.58Z"/><path class="cls-2" d="M65.54,185.58a1,1,0,0,1-1-1V149a1,1,0,0,1,2,0v35.58A1,1,0,0,1,65.54,185.58Z"/><circle class="cls-1" cx="141.23" cy="107.17" r="5.21"/><path class="cls-2" d="M141.23,113.38a6.21,6.21,0,1,1,6.21-6.21A6.22,6.22,0,0,1,141.23,113.38Zm0-10.42a4.21,4.21,0,1,0,4.21,4.21A4.22,4.22,0,0,0,141.23,103Z"/><polygon class="cls-1" points="125.31 113.68 135.24 123.61 115.37 123.61 125.31 113.68"/><path class="cls-2" d="M135.24,124.61H115.37a1,1,0,0,1-.71-1.71L124.6,113a1,1,0,0,1,1.41,0l9.93,9.93a1,1,0,0,1-.71,1.71Zm-17.45-2h15l-7.52-7.52Z"/><rect class="cls-1" x="104.85" y="92.9" width="9.12" height="9.12"/><path class="cls-2" d="M114,103h-9.12a1,1,0,0,1-1-1V92.9a1,1,0,0,1,1-1H114a1,1,0,0,1,1,1V102A1,1,0,0,1,114,103Zm-8.12-2H113V93.9h-7.12Z"/><path class="cls-2" d="M125.31,114.68a1,1,0,0,1-1-1V72.28a1,1,0,0,1,2,0v41.4A1,1,0,0,1,125.31,114.68Z"/><path class="cls-2" d="M141.2,103a1,1,0,0,1-1-1V79.32a1,1,0,1,1,2,0V102A1,1,0,0,1,141.2,103Z"/><path class="cls-2" d="M109.41,93.9a1,1,0,0,1-1-1V79.32a1,1,0,0,1,2,0V92.9A1,1,0,0,1,109.41,93.9Z"/><path class="cls-2" d="M147,80.32H103.64a1,1,0,0,1,0-2H147a1,1,0,0,1,0,2Z"/><path class="cls-2" d="M196.13,160a1,1,0,0,1-1-1V143.24a1,1,0,0,1,2,0V159A1,1,0,0,1,196.13,160Z"/><path class="cls-1" d="M210.61,143.24a14.48,14.48,0,0,0-29,0Z"/><path class="cls-2" d="M210.61,144.24h-29a1,1,0,0,1-1-1,15.48,15.48,0,1,1,31,0A1,1,0,0,1,210.61,144.24Zm-27.92-2h26.88a13.48,13.48,0,0,0-26.88,0Z"/><path class="cls-1" d="M200,162.9a3.88,3.88,0,0,0-7.76,0Z"/><path class="cls-2" d="M200,163.9h-7.75a1,1,0,0,1-1-1,4.88,4.88,0,1,1,9.75,0A1,1,0,0,1,200,163.9Zm-6.58-2h5.4a2.88,2.88,0,0,0-5.4,0Z"/></g></svg>