<svg xmlns="http://www.w3.org/2000/svg" viewBox="0 0 280 262.04"><defs><style>.cls-1{fill:#fff;}.cls-2{fill:#767573;}.cls-3{fill:#757472;}</style></defs><title>Room_</title><g id="ON_WHITE_OFF" data-name="ON WHITE / OFF"><rect class="cls-1" x="177.05" y="111.35" width="64.51" height="84.55"/><path class="cls-2" d="M241.56,196.91H177.05a1,1,0,0,1-1-1V111.35a1,1,0,0,1,1-1h64.51a1,1,0,0,1,1,1v84.55A1,1,0,0,1,241.56,196.91Zm-63.51-2h62.51V112.35H178.05Z"/><path class="cls-2" d="M209.31,196.91a1,1,0,0,1-1-1V111.35a1,1,0,0,1,2,0v84.55A1,1,0,0,1,209.31,196.91Z"/><rect class="cls-1" x="177.05" y="195.91" width="64.51" height="9.57"/><path class="cls-2" d="M241.56,206.48H177.05a1,1,0,0,1-1-1v-9.57a1,1,0,0,1,1-1h64.51a1,1,0,0,1,1,1v9.57A1,1,0,0,1,241.56,206.48Zm-63.51-2h62.51v-7.57H178.05Z"/><path class="cls-2" d="M204,180.79a1,1,0,0,1-1-1V133a1,1,0,0,1,2,0v46.83A1,1,0,0,1,204,180.79Z"/><path class="cls-2" d="M214.61,180.79a1,1,0,0,1-1-1V133a1,1,0,0,1,2,0v46.83A1,1,0,0,1,214.61,180.79Z"/><rect class="cls-1" x="43.09" y="165.93" width="133.96" height="39.55"/><path class="cls-2" d="M177.05,206.48h-134a1,1,0,0,1-1-1V165.93a1,1,0,0,1,1-1h134a1,1,0,0,1,1,1v39.55A1,1,0,0,1,177.05,206.48Zm-133-2h132V166.93h-132Z"/><path class="cls-1" d="M151.6,125.39H140.71l.6-6.36a4.88,4.88,0,0,1,4.84-4.29h0A4.88,4.88,0,0,1,151,119Z"/><path class="cls-2" d="M151.6,126.39H140.71a1,1,0,0,1-1-1.09l.6-6.36a5.88,5.88,0,0,1,11.68,0l.6,6.38a1,1,0,0,1-1,1.09Zm-9.79-2h8.69l-.5-5.26a3.88,3.88,0,0,0-7.7,0Z"/><path class="cls-1" d="M115.16,125.39H104.27l.6-6.36a4.88,4.88,0,0,1,4.84-4.29h0a4.88,4.88,0,0,1,4.84,4.29Z"/><path class="cls-2" d="M115.16,126.39H104.27a1,1,0,0,1-1-1.09l.6-6.36a5.88,5.88,0,0,1,11.68,0l.6,6.38a1,1,0,0,1-1,1.09Zm-9.79-2h8.69l-.5-5.26a3.88,3.88,0,0,0-7.7,0Z"/><path class="cls-1" d="M78.73,125.39H67.84l.6-6.36a4.88,4.88,0,0,1,4.84-4.29h0A4.88,4.88,0,0,1,78.13,119Z"/><path class="cls-2" d="M78.73,126.39H67.84a1,1,0,0,1-1-1.09l.6-6.36a5.88,5.88,0,0,1,11.67,0l.6,6.38a1,1,0,0,1-1,1.09Zm-9.79-2h8.69l-.5-5.26a3.88,3.88,0,0,0-7.7,0Z"/><path class="cls-2" d="M73.28,115.75a1,1,0,0,1-1-1V87a1,1,0,1,1,2,0v27.71A1,1,0,0,1,73.28,115.75Z"/><path class="cls-2" d="M109.72,115.75a1,1,0,0,1-1-1V87a1,1,0,0,1,2,0v27.71A1,1,0,0,1,109.72,115.75Z"/><path class="cls-2" d="M146.15,115.75a1,1,0,0,1-1-1V87a1,1,0,1,1,2,0v27.71A1,1,0,0,1,146.15,115.75Z"/><circle class="cls-1" cx="146.42" cy="146.99" r="3.59"/><path class="cls-2" d="M146.42,151.59A4.59,4.59,0,1,1,151,147,4.6,4.6,0,0,1,146.42,151.59Zm0-7.19A2.59,2.59,0,1,0,149,147,2.6,2.6,0,0,0,146.42,144.4Z"/><circle class="cls-1" cx="139.84" cy="148.78" r="3.22"/><path class="cls-2" d="M139.84,153a4.22,4.22,0,1,1,4.22-4.22A4.22,4.22,0,0,1,139.84,153Zm0-6.43a2.22,2.22,0,1,0,2.22,2.22A2.22,2.22,0,0,0,139.84,146.56Z"/><circle class="cls-1" cx="153.06" cy="148.78" r="3.22"/><path class="cls-2" d="M153.06,153a4.22,4.22,0,1,1,4.22-4.22A4.22,4.22,0,0,1,153.06,153Zm0-6.43a2.22,2.22,0,1,0,2.22,2.22A2.22,2.22,0,0,0,153.06,146.56Z"/><path class="cls-1" d="M160.49,150.59a14.41,14.41,0,0,1-27.61,0Z"/><path class="cls-2" d="M146.69,161.88a15.49,15.49,0,0,1-14.76-11,1,1,0,0,1,1-1.29h27.61a1,1,0,0,1,1,1.29A15.49,15.49,0,0,1,146.69,161.88Zm-12.39-10.29a13.41,13.41,0,0,0,24.78,0Z"/><path class="cls-1" d="M55.47,160.79h6a1.66,1.66,0,0,0,1.66-1.66V143.88l2-2.16H53.81v17.41A1.66,1.66,0,0,0,55.47,160.79Z"/><path class="cls-2" d="M61.46,161.79h-6a2.66,2.66,0,0,1-2.66-2.66V141.72a1,1,0,0,1,1-1h11.3a1,1,0,0,1,.74,1.68l-1.73,1.87v14.86A2.66,2.66,0,0,1,61.46,161.79Zm-6.65-19.08v16.41a.66.66,0,0,0,.66.66h6a.66.66,0,0,0,.66-.66V143.88a1,1,0,0,1,.26-.68l.44-.48Z"/><circle class="cls-1" cx="58.48" cy="140.33" r="1.39"/><path class="cls-2" d="M58.48,142.72a2.39,2.39,0,1,1,2.39-2.39A2.39,2.39,0,0,1,58.48,142.72Zm0-2.78a.39.39,0,1,0,.39.39A.39.39,0,0,0,58.48,139.93Z"/><path class="cls-1" d="M50.4,143.84h1.75a1.66,1.66,0,0,1,1.66,1.66v9.64a1.66,1.66,0,0,1-1.66,1.66H50.4a0,0,0,0,1,0,0v-13A0,0,0,0,1,50.4,143.84Z" transform="translate(104.21 300.64) rotate(-180)"/><path class="cls-2" d="M53.81,157.8H52.06a2.66,2.66,0,0,1-2.66-2.66V145.5a2.66,2.66,0,0,1,2.66-2.66h1.75a1,1,0,0,1,1,1v13A1,1,0,0,1,53.81,157.8Zm-1.75-13a.66.66,0,0,0-.66.66v9.64a.66.66,0,0,0,.66.66h.75v-11Z"/><path class="cls-1" d="M78.32,154.38h5.75a0,0,0,0,1,0,0v4.75a1.66,1.66,0,0,1-1.66,1.66H80a1.66,1.66,0,0,1-1.66-1.66v-4.75A0,0,0,0,1,78.32,154.38Z"/><path class="cls-2" d="M82.41,161.79H80a2.66,2.66,0,0,1-2.66-2.66v-4.75a1,1,0,0,1,1-1h5.75a1,1,0,0,1,1,1v4.75A2.66,2.66,0,0,1,82.41,161.79Zm-3.09-6.41v3.75a.66.66,0,0,0,.66.66h2.43a.66.66,0,0,0,.66-.66v-3.75Z"/><path class="cls-1" d="M69.3,154.38h5.75a0,0,0,0,1,0,0v4.75a1.66,1.66,0,0,1-1.66,1.66H71a1.66,1.66,0,0,1-1.66-1.66v-4.75A0,0,0,0,1,69.3,154.38Z"/><path class="cls-2" d="M73.39,161.79H71a2.66,2.66,0,0,1-2.66-2.66v-4.75a1,1,0,0,1,1-1h5.75a1,1,0,0,1,1,1v4.75A2.66,2.66,0,0,1,73.39,161.79Zm-3.09-6.41v3.75a.66.66,0,0,0,.66.66h2.43a.66.66,0,0,0,.66-.66v-3.75Z"/><path class="cls-2" d="M132.88,206.48a1,1,0,0,1-1-1V165.93a1,1,0,0,1,2,0v39.55A1,1,0,0,1,132.88,206.48Z"/><path class="cls-2" d="M88,206.48a1,1,0,0,1-1-1V165.93a1,1,0,0,1,2,0v39.55A1,1,0,0,1,88,206.48Z"/><path class="cls-3" d="M110.21,166.93a1,1,0,0,1-1-1V152.66a1.07,1.07,0,1,0-2.15,0v2.46a1,1,0,0,1-2,0v-2.46a3.07,3.07,0,1,1,6.15,0v13.27A1,1,0,0,1,110.21,166.93Z"/></g></svg>