<svg xmlns="http://www.w3.org/2000/svg" viewBox="0 0 280 262.04"><defs><style>.cls-1{fill:#767573;}.cls-2{fill:#fff;}</style></defs><title>Room_</title><g id="ON_WHITE_OFF" data-name="ON WHITE / OFF"><path class="cls-1" d="M231.57,206.78a1,1,0,0,1-1-1V186.32a3.28,3.28,0,0,0-3.28-3.28H208.9a3.28,3.28,0,0,0-3.28,3.28v19.46a1,1,0,0,1-2,0V186.32A5.28,5.28,0,0,1,208.9,181h18.39a5.28,5.28,0,0,1,5.28,5.28v19.46A1,1,0,0,1,231.57,206.78Z"/><path class="cls-2" d="M108.72,96c2.78-9.92,15.73-17.42,31.28-17.42s28.5,7.5,31.28,17.42Z"/><path class="cls-1" d="M171.28,97H108.72a1,1,0,0,1-1-1.27C110.7,85.25,124.26,77.62,140,77.62s29.3,7.63,32.24,18.15a1,1,0,0,1-1,1.27ZM110.1,95H169.9c-3.42-9-15.7-15.42-29.9-15.42S113.53,86,110.1,95Z"/><path class="cls-1" d="M140,79.62a1,1,0,0,1-1-1V42.53a1,1,0,1,1,2,0V78.62A1,1,0,0,1,140,79.62Z"/><path class="cls-1" d="M231.57,187.32a1,1,0,0,1-1-1V144.27a1,1,0,0,1,2,0v42.06A1,1,0,0,1,231.57,187.32Z"/><path class="cls-1" d="M75.38,206.78a1,1,0,0,1-1-1V186.32A3.28,3.28,0,0,0,71.1,183H52.71a3.28,3.28,0,0,0-3.28,3.28v19.46a1,1,0,0,1-2,0V186.32A5.28,5.28,0,0,1,52.71,181H71.1a5.29,5.29,0,0,1,5.28,5.28v19.46A1,1,0,0,1,75.38,206.78Z"/><path class="cls-1" d="M48.43,187.32a1,1,0,0,1-1-1V144.27a1,1,0,0,1,2,0v42.06A1,1,0,0,1,48.43,187.32Z"/><path class="cls-2" d="M158.62,146.84c-1.65,5.9-9.36,10.37-18.62,10.37s-17-4.47-18.62-10.37Z"/><path class="cls-1" d="M140,158.21c-9.55,0-17.78-4.67-19.58-11.1a1,1,0,0,1,1-1.27h37.24a1,1,0,0,1,1,1.27C157.78,153.54,149.55,158.21,140,158.21Zm-17.19-10.37c2.26,4.92,9.2,8.37,17.19,8.37s14.94-3.45,17.19-8.37Z"/><path class="cls-1" d="M135.58,147.84a1,1,0,0,1-.58-.19l-9.65-6.92a1,1,0,1,1,1.17-1.62l9.65,6.92a1,1,0,0,1-.58,1.81Z"/><path class="cls-1" d="M88.09,206.78a1,1,0,0,1-1-1V170.63a1,1,0,0,1,2,0v35.16A1,1,0,0,1,88.09,206.78Z"/><path class="cls-1" d="M191.91,206.78a1,1,0,0,1-1-1V170.63a1,1,0,0,1,2,0v35.16A1,1,0,0,1,191.91,206.78Z"/><path class="cls-2" d="M204.43,162.35v4a4.29,4.29,0,0,1-4.28,4.28H79.85a4.29,4.29,0,0,1-4.28-4.28v-4Z"/><path class="cls-1" d="M200.15,171.63H79.85a5.28,5.28,0,0,1-5.28-5.28v-4a1,1,0,0,1,1-1H204.43a1,1,0,0,1,1,1v4A5.28,5.28,0,0,1,200.15,171.63ZM76.57,163.35v3a3.28,3.28,0,0,0,3.28,3.28H200.15a3.28,3.28,0,0,0,3.28-3.28v-3Z"/><path class="cls-1" d="M96.64,163.35a1,1,0,0,1-1-1v-6.8a1,1,0,0,1,2,0v6.8A1,1,0,0,1,96.64,163.35Z"/><path class="cls-2" d="M92.32,143.19H101a0,0,0,0,1,0,0v8a4.32,4.32,0,0,1-4.32,4.32h0a4.32,4.32,0,0,1-4.32-4.32v-8A0,0,0,0,1,92.32,143.19Z"/><path class="cls-1" d="M96.64,156.54a5.33,5.33,0,0,1-5.32-5.32v-8a1,1,0,0,1,1-1H101a1,1,0,0,1,1,1v8A5.33,5.33,0,0,1,96.64,156.54Zm-3.32-12.35v7a3.32,3.32,0,1,0,6.65,0v-7Z"/><path class="cls-1" d="M183.36,163.35a1,1,0,0,1-1-1v-6.8a1,1,0,0,1,2,0v6.8A1,1,0,0,1,183.36,163.35Z"/><path class="cls-2" d="M179,143.19h8.65a0,0,0,0,1,0,0v8a4.32,4.32,0,0,1-4.32,4.32h0a4.32,4.32,0,0,1-4.32-4.32v-8a0,0,0,0,1,0,0Z"/><path class="cls-1" d="M183.36,156.54a5.33,5.33,0,0,1-5.32-5.32v-8a1,1,0,0,1,1-1h8.65a1,1,0,0,1,1,1v8A5.33,5.33,0,0,1,183.36,156.54ZM180,144.19v7a3.33,3.33,0,0,0,3.32,3.32h0a3.33,3.33,0,0,0,3.32-3.32v-7Z"/></g></svg>