<svg xmlns="http://www.w3.org/2000/svg" viewBox="0 0 280 262.04"><defs><style>.cls-1{fill:#fff;}.cls-2{fill:#767573;}</style></defs><title>Room_</title><g id="ON_WHITE_OFF" data-name="ON WHITE / OFF"><path class="cls-1" d="M90.1,160.82H77.67V193a4.64,4.64,0,0,0,4.63,4.63H236.53a4.64,4.64,0,0,0,4.63-4.63V160.82H228.73"/><path class="cls-2" d="M236.53,198.61H82.3A5.63,5.63,0,0,1,76.67,193V160.82a1,1,0,0,1,1-1H90.1a1,1,0,0,1,0,2H78.67V193a3.63,3.63,0,0,0,3.63,3.63H236.53a3.63,3.63,0,0,0,3.63-3.63V161.82H228.73a1,1,0,0,1,0-2h12.43a1,1,0,0,1,1,1V193A5.64,5.64,0,0,1,236.53,198.61Z"/><polyline class="cls-1" points="90.1 175 90.1 144.39 228.73 144.39 228.73 175"/><path class="cls-2" d="M228.73,176a1,1,0,0,1-1-1V145.39H91.1V175a1,1,0,1,1-2,0V144.39a1,1,0,0,1,1-1H228.73a1,1,0,0,1,1,1V175A1,1,0,0,1,228.73,176Z"/><path class="cls-1" d="M159.41,181.86V175h69.32v6.86a4.64,4.64,0,0,1-4.62,4.63H164A4.64,4.64,0,0,1,159.41,181.86Z"/><path class="cls-2" d="M224.11,187.49H164a5.63,5.63,0,0,1-5.62-5.63V175a1,1,0,0,1,1-1h69.32a1,1,0,0,1,1,1v6.86A5.63,5.63,0,0,1,224.11,187.49ZM160.41,176v5.86a3.63,3.63,0,0,0,3.62,3.63h60.07a3.63,3.63,0,0,0,3.62-3.63V176Z"/><path class="cls-1" d="M90.1,181.86V175h69.32v6.86a4.64,4.64,0,0,1-4.62,4.63H94.72A4.64,4.64,0,0,1,90.1,181.86Z"/><path class="cls-2" d="M154.79,187.49H94.72a5.63,5.63,0,0,1-5.62-5.63V175a1,1,0,0,1,1-1h69.32a1,1,0,0,1,1,1v6.86A5.63,5.63,0,0,1,154.79,187.49ZM91.1,176v5.86a3.63,3.63,0,0,0,3.62,3.63h60.07a3.63,3.63,0,0,0,3.62-3.63V176Z"/><path class="cls-2" d="M228.73,206.48a1,1,0,0,1-1-1v-6.87H91.1v6.87a1,1,0,0,1-2,0v-7.87a1,1,0,0,1,1-1H228.73a1,1,0,0,1,1,1v7.87A1,1,0,0,1,228.73,206.48Z"/><path class="cls-2" d="M62.49,206.48H48.84a1,1,0,0,1-1-1V172.4a1,1,0,0,1,1-1H62.49a1,1,0,0,1,1,1v33.08A1,1,0,0,1,62.49,206.48Zm-12.64-2H61.49V173.4H49.84Z"/><path class="cls-2" d="M48.84,173.4a1,1,0,0,1-1-1V131.8a35.39,35.39,0,0,1,52.65-30.89,1,1,0,0,1-1,1.75A33.39,33.39,0,0,0,49.84,131.8v40.6A1,1,0,0,1,48.84,173.4Z"/><path class="cls-1" d="M90.1,112.84c2.41-8.61,13.65-15.12,27.15-15.12s24.74,6.51,27.15,15.12Z"/><path class="cls-2" d="M144.4,113.84H90.1a1,1,0,0,1-1-1.27c2.57-9.18,14.4-15.85,28.11-15.85s25.54,6.67,28.11,15.85a1,1,0,0,1-1,1.27Zm-52.91-2H143c-3-7.68-13.58-13.12-25.76-13.12S94.54,104.16,91.49,111.84Z"/></g></svg>