<svg xmlns="http://www.w3.org/2000/svg" viewBox="0 0 280 262.04"><defs><style>.cls-1{fill:#767573;}.cls-2{fill:#fff;}.cls-3{fill:#757472;}</style></defs><title>Room_</title><g id="ON_WHITE_OFF" data-name="ON WHITE / OFF"><path class="cls-1" d="M69.47,214.53a1,1,0,0,1-.71-1.71l16.3-16.3V94.33a1,1,0,0,1,1.54-.84l21.57,13.82a1,1,0,0,1,.46.84v64.79l10.1-10.1V94.93l-41.8-41.8a1,1,0,0,1,1.41-1.41l42.09,42.09a1,1,0,0,1,.29.71v68.74a1,1,0,0,1-.29.71l-12.1,12.1a1,1,0,0,1-1.71-.71V108.7L87.07,96.16V196.93a1,1,0,0,1-.29.71l-16.6,16.59A1,1,0,0,1,69.47,214.53Z"/><path class="cls-1" d="M210.52,214.53a1,1,0,0,1-.71-.29L159.55,164a1,1,0,0,1-.29-.71V94.44a1,1,0,0,1,.29-.71l42-42A1,1,0,0,1,203,53.13L161.26,94.85v68l50,50a1,1,0,0,1-.71,1.71Z"/><polygon class="cls-2" points="172.35 108.85 187.79 99.33 187.79 190.79 172.35 175.36 172.35 108.85"/><path class="cls-3" d="M187.79,191.79a1,1,0,0,1-.71-.29l-15.44-15.44a1,1,0,0,1-.29-.71v-66.5a1,1,0,0,1,.47-.85l15.44-9.52a1,1,0,0,1,1.53.85v91.47a1,1,0,0,1-1,1Zm-14.44-16.85,13.44,13.44V101.12l-13.44,8.29Z"/><path class="cls-1" d="M160.26,143.33H119.74a1,1,0,1,1,0-2h40.52a1,1,0,0,1,0,2Z"/><rect class="cls-2" x="134" y="102.01" width="26.05" height="21.07"/><path class="cls-3" d="M160,124.08H134a1,1,0,0,1-1-1V102a1,1,0,0,1,1-1H160a1,1,0,0,1,1,1v21.07A1,1,0,0,1,160,124.08Zm-25.05-2H159V103H135Z"/><ellipse class="cls-2" cx="140" cy="84.47" rx="6" ry="3.35"/><path class="cls-3" d="M140,88.82c-3.93,0-7-1.91-7-4.35s3.08-4.35,7-4.35,7,1.91,7,4.35S143.92,88.82,140,88.82Zm0-6.69c-2.86,0-5,1.24-5,2.35s2.14,2.35,5,2.35,5-1.24,5-2.35S142.86,82.13,140,82.13Z"/><path class="cls-1" d="M140,86.28c-2.79,0-5.23-1-6.36-2.48a1,1,0,1,1,1.61-1.19c.59.8,2.33,1.67,4.75,1.67s4.11-.83,4.73-1.65a1,1,0,0,1,1.59,1.21C145.18,85.35,142.76,86.28,140,86.28Z"/><ellipse class="cls-2" cx="140" cy="63.51" rx="7.28" ry="3.61"/><path class="cls-3" d="M140,68.13c-4.72,0-8.28-2-8.28-4.61s3.56-4.61,8.28-4.61,8.28,2,8.28,4.61S144.72,68.13,140,68.13Zm0-7.23c-3.89,0-6.28,1.52-6.28,2.61s2.39,2.61,6.28,2.61,6.28-1.52,6.28-2.61S143.89,60.9,140,60.9Z"/><path class="cls-1" d="M140,65.15c-3.17,0-6-.94-7.38-2.45a1,1,0,0,1,1.48-1.35c.82.9,3,1.8,5.9,1.8s5.08-.9,5.9-1.8a1,1,0,1,1,1.48,1.35C146,64.21,143.17,65.15,140,65.15Z"/><path class="cls-2" d="M160.26,134.49H142.48v11.6a1.67,1.67,0,0,0,1.67,1.67h16.11"/><path class="cls-3" d="M160.26,148.76H144.15a2.67,2.67,0,0,1-2.67-2.67v-11.6a1,1,0,0,1,1-1h17.78a1,1,0,0,1,0,2H143.48v10.6a.68.68,0,0,0,.67.67h16.11a1,1,0,0,1,0,2Z"/><polyline class="cls-2" points="146.96 139.6 146.96 128.57 160.26 128.57 160.26 139.6 146.96 139.6"/><path class="cls-3" d="M160.26,140.6H147a1,1,0,0,1-1-1v-11a1,1,0,0,1,1-1h13.3a1,1,0,0,1,1,1v11A1,1,0,0,1,160.26,140.6Zm-12.3-2h11.3v-9H148Z"/><path class="cls-2" d="M147,142.08V139.6h13.3v4.14H148.63A1.67,1.67,0,0,1,147,142.08Z"/><path class="cls-3" d="M160.26,144.75H148.63a2.67,2.67,0,0,1-2.67-2.67V139.6a1,1,0,0,1,1-1h13.3a1,1,0,0,1,1,1v4.14A1,1,0,0,1,160.26,144.75ZM148,140.6v1.47a.68.68,0,0,0,.67.67h10.63V140.6Z"/><path class="cls-3" d="M147,152.43a1,1,0,0,1-1-1v-3.68a1,1,0,0,1,1-1h12.3V134.49a1,1,0,0,1,2,0v13.27a1,1,0,0,1-1,1H148v2.68A1,1,0,0,1,147,152.43Z"/><polygon class="cls-2" points="86.07 94.33 107.64 108.16 107.64 175.36 86.07 175.36 86.07 94.33"/><path class="cls-3" d="M107.64,176.36H86.07a1,1,0,0,1-1-1v-81a1,1,0,0,1,1.54-.84l21.57,13.82a1,1,0,0,1,.46.84v67.2A1,1,0,0,1,107.64,176.36Zm-20.57-2h19.57V108.7L87.07,96.16Z"/><path class="cls-1" d="M183.82,146.91a2,2,0,1,1,2-2A2,2,0,0,1,183.82,146.91Zm0-2h0Z"/><path class="cls-3" d="M183.82,145.91a1,1,0,0,1-.34-.06l-2.74-1a1,1,0,1,1,.69-1.88l2.74,1a1,1,0,0,1-.34,1.94Z"/><polygon class="cls-2" points="50.79 152.81 77.65 145.6 77.65 111.63 50.79 104.22 50.79 152.81"/><path class="cls-3" d="M50.79,153.81a1,1,0,0,1-1-1V104.22a1,1,0,0,1,1.27-1l26.86,7.42a1,1,0,0,1,.73,1v34a1,1,0,0,1-.74,1L51,153.77A1,1,0,0,1,50.79,153.81Zm1-48.28v46l24.86-6.68V112.39Z"/></g></svg>