<svg xmlns="http://www.w3.org/2000/svg" viewBox="0 0 280 262.04"><defs><style>.cls-1{fill:#fff;}.cls-2{fill:#757472;}</style></defs><title>Room_</title><g id="LABELS"><path class="cls-1" d="M66.22,166.35H55.84v26.88a3.88,3.88,0,0,0,3.87,3.87H123a3.88,3.88,0,0,0,3.87-3.87V166.35H116.44"/><path class="cls-2" d="M123,198.1H59.71a4.87,4.87,0,0,1-4.87-4.87V166.35a1,1,0,0,1,1-1H66.22a1,1,0,0,1,0,2H56.84v25.88a2.87,2.87,0,0,0,2.87,2.87H123a2.87,2.87,0,0,0,2.87-2.87V167.35h-9.38a1,1,0,1,1,0-2h10.38a1,1,0,0,1,1,1v26.88A4.87,4.87,0,0,1,123,198.1Z"/><polyline class="cls-1" points="66.22 178.21 66.22 152.62 116.44 152.62 116.44 178.21"/><path class="cls-2" d="M116.44,179.21a1,1,0,0,1-1-1V153.62H67.22v24.58a1,1,0,0,1-2,0V152.62a1,1,0,0,1,1-1h50.21a1,1,0,0,1,1,1v25.58A1,1,0,0,1,116.44,179.21Z"/><path class="cls-1" d="M66.22,183.94v-5.73h50.21v5.73a3.88,3.88,0,0,1-3.86,3.87H70.09A3.88,3.88,0,0,1,66.22,183.94Z"/><path class="cls-2" d="M112.57,188.81H70.09a4.87,4.87,0,0,1-4.86-4.87v-5.73a1,1,0,0,1,1-1h50.21a1,1,0,0,1,1,1v5.73A4.87,4.87,0,0,1,112.57,188.81Zm-45.35-9.6v4.73a2.87,2.87,0,0,0,2.86,2.87h42.49a2.87,2.87,0,0,0,2.86-2.87v-4.73Z"/><path class="cls-2" d="M116.44,206.62a1,1,0,0,1-1-1V198.1H67.22v7.52a1,1,0,0,1-2,0V197.1a1,1,0,0,1,1-1h50.21a1,1,0,0,1,1,1v8.52A1,1,0,0,1,116.44,206.62Z"/><path class="cls-2" d="M181.62,177.86a1,1,0,0,1-1-1V163.92a1.34,1.34,0,0,0-1.34-1.34h-7.35a1.34,1.34,0,0,0-1.34,1.34v12.93a1,1,0,0,1-2,0V163.92a3.35,3.35,0,0,1,3.34-3.34h7.35a3.35,3.35,0,0,1,3.34,3.34v12.93A1,1,0,0,1,181.62,177.86Z"/><path class="cls-2" d="M235.48,177.86a1,1,0,0,1-1-1V154.43a1.25,1.25,0,0,0-1.25-1.25H158.78a1.25,1.25,0,0,0-1.25,1.25v22.42a1,1,0,0,1-2,0V154.43a3.25,3.25,0,0,1,3.25-3.25h74.45a3.25,3.25,0,0,1,3.25,3.25v22.42A1,1,0,0,1,235.48,177.86Z"/><path class="cls-2" d="M181.62,174.54h-12a1,1,0,0,1,0-2h12a1,1,0,0,1,0,2Z"/><path class="cls-2" d="M222.43,177.86a1,1,0,0,1-1-1V163.92a1.34,1.34,0,0,0-1.34-1.34h-7.35a1.34,1.34,0,0,0-1.34,1.34v12.93a1,1,0,0,1-2,0V163.92a3.35,3.35,0,0,1,3.34-3.34h7.35a3.35,3.35,0,0,1,3.34,3.34v12.93A1,1,0,0,1,222.43,177.86Z"/><path class="cls-2" d="M222.43,174.54h-12a1,1,0,0,1,0-2h12a1,1,0,1,1,0,2Z"/><path class="cls-2" d="M202.23,177.86a1,1,0,0,1-1-1V163.92a1.34,1.34,0,0,0-1.34-1.34h-7.35a1.34,1.34,0,0,0-1.34,1.34v12.93a1,1,0,0,1-2,0V163.92a3.35,3.35,0,0,1,3.34-3.34h7.35a3.35,3.35,0,0,1,3.34,3.34v12.93A1,1,0,0,1,202.23,177.86Z"/><path class="cls-2" d="M202.23,174.54h-12a1,1,0,0,1,0-2h12a1,1,0,0,1,0,2Z"/><path class="cls-2" d="M193.66,148a1,1,0,0,1-1-1V121.35a.68.68,0,0,0-.68-.68H171.26a.68.68,0,0,0-.68.68V147a1,1,0,0,1-2,0V121.35a2.68,2.68,0,0,1,2.68-2.68H192a2.68,2.68,0,0,1,2.68,2.68V147A1,1,0,0,1,193.66,148Z"/><path class="cls-2" d="M188.78,144.6a1,1,0,0,1-1-1v-8.45a1,1,0,0,1,2,0v8.45A1,1,0,0,1,188.78,144.6Z"/><path class="cls-2" d="M222.43,148H202.23a1,1,0,0,1,0-2h20.21a1,1,0,1,1,0,2Z"/><path class="cls-2" d="M250.53,183H126.82a1,1,0,1,1,0-2H250.53a1,1,0,0,1,0,2Z"/><path class="cls-2" d="M55.84,183H29.47a1,1,0,1,1,0-2H55.84a1,1,0,0,1,0,2Z"/><polygon class="cls-1" points="150.23 128.02 121.28 128.02 126.86 110.22 144.65 110.22 150.23 128.02"/><path class="cls-2" d="M150.23,129H121.28a1,1,0,0,1-1-1.3l5.58-17.79a1,1,0,0,1,1-.7h17.79a1,1,0,0,1,1,.7l5.58,17.79a1,1,0,0,1-1,1.3Zm-27.58-2h26.22l-5-15.79H127.59Z"/><path class="cls-2" d="M135.75,206.57a1,1,0,0,1-1-1V128a1,1,0,1,1,2,0v77.55A1,1,0,0,1,135.75,206.57Z"/><path class="cls-2" d="M215.77,147.5a1,1,0,0,1-1-1v-6a1.07,1.07,0,0,0-2.15,0,1,1,0,0,1-2,0,3.07,3.07,0,0,1,6.15,0v6A1,1,0,0,1,215.77,147.5Z"/><path class="cls-2" d="M141.71,206.57H129.9a1,1,0,0,1,0-2h11.8a1,1,0,0,1,0,2Z"/></g></svg>